<?xml version="1.0" encoding="UTF-8" standalone="no"?>
<!DOCTYPE svg  PUBLIC '-//W3C//DTD SVG 1.1//EN'  'http://www.w3.org/Graphics/SVG/1.1/DTD/svg11.dtd'>
<svg xmlns="http://www.w3.org/2000/svg">
<defs>
<font id="FuturaLT-Bold" horiz-adv-x="1404">
<font-face underline-position="-153" font-weight="700" descent="-410" panose-1="2 0 8 3 4 0 0 2 0 3" units-per-em="2048" unicode-range="U+0020-2122" bbox="-156 -541 2951 2130" x-height="1051" underline-thickness="102" font-family="FuturaLT" ascent="1638" cap-height="1544"/>
<missing-glyph horiz-adv-x="2048"/>
<glyph glyph-name=".notdef" horiz-adv-x="2048"/>
<glyph glyph-name=".null" horiz-adv-x="0"/>
<glyph glyph-name="nonmarkingreturn" horiz-adv-x="2048"/>
<glyph glyph-name="space" horiz-adv-x="702" unicode=" "/>
<glyph glyph-name="exclam" horiz-adv-x="786" unicode="!" d="M201 1544h387v-1020h-387v1020zM393 438q49 0 93 -18.5t77 -51t51.5 -76.5t18.5 -93t-18.5 -93.5t-51.5 -76t-77 -51t-93 -19.5t-93 19.5t-77 51t-51 76t-18 93.5t18 93t51 76.5t77 51t93 18.5z"/>
<glyph glyph-name="quotedbl" horiz-adv-x="1024" unicode='&quot;' d="M928 1544l-56 -678h-237l-55 678h348zM444 1544l-55 -678h-237l-56 678h348z"/>
<glyph glyph-name="numbersign" d="M588 586h209l53 254h-213zM1266 1071v-231h-201l-49 -254h192v-232h-241l-68 -354h-217l68 354h-207l-68 -354h-217l68 354h-187v232h232l49 254h-197v231h240l80 416h217l-80 -416h207l80 416h215l-80 -416h164z" unicode="#"/>
<glyph glyph-name="dollar" d="M795 1227q-68 0 -121 -26.5t-53 -88.5q0 -86 87 -118.5t144 -51.5q189 -63 301.5 -154.5t112.5 -283.5q0 -306 -165 -390.5t-265 -109.5v-256h-191v244q-179 0 -317 69.5t-189 116.5l168 309q123 -116 222.5 -144t140.5 -28q79 0 139.5 40t60.5 112t-72.5 103.5 t-130 49.5t-117.5 40q-151 57 -237 145.5t-86 264.5t117.5 318t300.5 154v248h191v-248q222 -23 372 -119l-151 -297q-123 101 -262 101z" unicode="$"/>
<glyph glyph-name="percent" horiz-adv-x="1996" unicode="%" d="M1536 530q-72 0 -123 -51t-51 -122.5t51 -122t123 -50.5t123 50.5t51 122t-51 122.5t-123 51zM1536 735q184 0 303 -100t119 -277t-119 -277.5t-303 -100.5t-303 100.5t-119 277.5t119 277t303 100zM1546 1544l-897 -1544h-200l897 1544h200zM460.5 1360 q-71.5 0 -122.5 -51.5t-51 -123t51 -121.5t122.5 -50t123 50t51.5 121.5t-51.5 123t-123 51.5zM763.5 1464.5q119.5 -100.5 119.5 -278.5q0 -177 -120 -277t-302.5 -100t-302 99.5t-119.5 277.5t119 278.5t302.5 100.5t303 -100.5z"/>
<glyph glyph-name="ampersand" horiz-adv-x="1736" unicode="&amp;" d="M573 -41q-210 0 -352.5 119.5t-142.5 322.5q0 232 129 315t203 115l36 17l-32 45q-18 25 -38 52.5t-46.5 79.5t-26.5 144t40 171t106.5 133.5t153.5 83t230.5 28.5t288 -114.5t144.5 -306.5t-114 -265.5t-173 -103.5l195 -205q129 115 202 219l228 -217l-195 -209 l-18 -18l346 -365h-502l-133 143q-276 -184 -529 -184zM948 1167q0 61 -37 103.5t-94 42.5t-95 -35t-38 -78t12.5 -70.5t29.5 -54t39 -50.5t40 -44q53 29 98 77t45 109zM494 460q0 -66 54.5 -103.5t115.5 -37.5q115 0 219 64l-244 262q-103 -66 -124 -108.5t-21 -76.5z"/>
<glyph glyph-name="quotesingle" horiz-adv-x="512" unicode="&apos;" d="M430 1544l-55 -678h-238l-55 678h348z"/>
<glyph glyph-name="parenleft" horiz-adv-x="720" unicode="(" d="M385 565q0 -247 61.5 -504t174.5 -426l-224 -127q-222 289 -259.5 619t-37.5 458q0 268 76.5 549.5t220.5 483.5l224 -127q-236 -382 -236 -926z"/>
<glyph glyph-name="parenright" horiz-adv-x="720" unicode=")" d="M549 6.5q-72 -294.5 -225 -498.5l-224 127q113 171 174.5 427t61.5 499q0 386 -86 607t-150 323l224 127q142 -195 219.5 -480.5t77.5 -560.5q0 -276 -72 -570.5z"/>
<glyph glyph-name="asterisk" horiz-adv-x="989" unicode="*" d="M586 1544l-11 -219l183 115l92 -156l-195 -102l193 -107l-92 -153l-181 116l9 -207h-185l13 205l-174 -110l-93 155l185 103l-191 104l94 156l179 -113l-11 213h185z"/>
<glyph glyph-name="plus" d="M549 1051h307v-371h371v-307h-371v-373h-307v373h-371v307h371v371z" unicode="+"/>
<glyph glyph-name="comma" horiz-adv-x="702" unicode="," d="M662 391l-377 -680h-240l266 680h351z"/>
<glyph glyph-name="hyphenminus" horiz-adv-x="802" unicode="-" d="M694 811v-307h-585v307h585z"/>
<glyph glyph-name="period" horiz-adv-x="702" unicode="." d="M352 438q49 0 93 -18.5t77 -51t51.5 -76.5t18.5 -93t-18.5 -93.5t-51.5 -76t-77 -51t-93 -19.5t-93 19.5t-76.5 51t-51 76t-18.5 93.5t18.5 93t51 76.5t76.5 51t93 18.5z"/>
<glyph glyph-name="slash" horiz-adv-x="1185" unicode="/" d="M1130 1700l-782 -1890h-293l783 1890h292z"/>
<glyph glyph-name="zero" d="M702.5 1251q-77.5 0 -127 -53t-78 -129t-40 -158t-11.5 -137t11.5 -138t40 -159t78 -130t127 -54t127 54t78 130t39.5 159t11 138t-11 137t-39.5 158t-78 129t-127 53zM702 1606q172 0 296 -74t242 -249t118 -510q0 -336 -118 -511.5t-242 -249t-296 -73.5t-295.5 73.5 t-241.5 249t-118 511.5t118 510.5t241.5 248.5t295.5 74z" unicode="0"/>
<glyph glyph-name="one" d="M330 1204v340h622v-1544h-401v1204h-221z" unicode="1"/>
<glyph glyph-name="two" d="M1309 340v-340h-1241l630 686q68 74 122 173t54 192t-50 154t-129 61t-122 -55.5t-43 -133.5q0 -33 7 -65h-443q8 267 169.5 430.5t421.5 163.5t433.5 -152t173.5 -397q0 -160 -63.5 -272.5t-186.5 -221.5l-239 -223h506z" unicode="2"/>
<glyph glyph-name="three" d="M627 952h41q78 0 127 45t49 121t-45 118t-118 42t-116 -50t-43 -121v-7h-372q23 233 176 369.5t382 136.5t369 -118t140 -331q0 -92 -39 -181t-123 -136q113 -30 182.5 -145t69.5 -243q0 -242 -177 -377.5t-423 -135.5q-346 0 -471 174.5t-145.5 252.5t-20.5 127v9h409 q0 -92 59.5 -155.5t153.5 -63.5t155.5 56t61.5 146t-64 150.5t-138 60.5q-32 0 -80 -12v268z" unicode="3"/>
<glyph glyph-name="four" d="M782 1221h-4l-360 -594h364v594zM1341 627v-308h-186v-319h-373v319h-749v256l596 969h526v-917h186z" unicode="4"/>
<glyph glyph-name="five" horiz-adv-x="1411" unicode="5" d="M852 492q0 145 -103 211.5t-247 66.5q-145 0 -283 -63l135 837h803v-340h-534l-27 -176l127 10q21 1 42 1q208 0 356.5 -154.5t148.5 -399.5q0 -123 -100.5 -334.5t-548.5 -211.5q-288 0 -504 139l59 379q200 -178 430 -178q101 0 173.5 64.5t72.5 148.5z"/>
<glyph glyph-name="six" d="M868.5 329q71.5 75 71.5 180t-70.5 179t-177.5 74t-180.5 -75.5t-73.5 -177.5t74.5 -178.5t179.5 -76.5t176.5 75zM865 1065q217 0 355 -162t138 -381q0 -271 -191.5 -427t-468.5 -156t-444 133q-92 78 -149.5 191t-57.5 215q0 171 67 325t181 307l332 434h454l-438 -522 l4 -4q108 47 218 47z" unicode="6"/>
<glyph glyph-name="seven" d="M145 1204v340h1268l-887 -1544h-440l705 1204h-646z" unicode="7"/>
<glyph glyph-name="eight" d="M702.5 1606q211.5 0 369 -115t157.5 -326q0 -119 -66.5 -214.5t-177.5 -135.5v-4q139 -47 223 -149.5t84 -239.5t-54 -224t-140 -145.5t-190.5 -86t-269 -27.5t-345 122.5t-180.5 344.5q0 154 84 256t223 149v4q-167 57 -205.5 173t-38.5 202t45 169t157.5 165t324 82z M702.5 649q-38.5 0 -72.5 -15.5t-58.5 -41t-39 -61t-14.5 -74.5t14.5 -74t39 -60.5t58.5 -40t72.5 -14.5t72.5 14.5t58.5 40t39 60.5t14.5 74t-14.5 74.5t-39 61t-58.5 41t-72.5 15.5zM702.5 1327q-34.5 0 -66.5 -13.5t-54.5 -37t-36 -55t-13.5 -68.5t13.5 -68.5t36 -55 t54.5 -37t66.5 -13.5t65.5 13.5t54.5 37t36.5 55t13 68.5t-13 68.5t-36.5 55t-54.5 37t-65.5 13.5z" unicode="8"/>
<glyph glyph-name="nine" d="M712.5 1288q-53.5 0 -98.5 -19.5t-78.5 -54t-52 -81t-18.5 -99.5t18.5 -99t52 -81t78.5 -54.5t98.5 -19.5t99.5 19.5t81 54.5t55.5 81t20.5 99t-20.5 99.5t-55.5 81t-81 54t-99.5 19.5zM540 477q-217 0 -355 162t-138 383q0 271 192 427.5t472 156.5q430 0 538.5 -218.5 t108.5 -321.5q0 -173 -67 -327t-181 -307l-330 -432h-456l440 520l-4 4q-108 -47 -220 -47z" unicode="9"/>
<glyph glyph-name="colon" horiz-adv-x="702" unicode=":" d="M352 1128q49 0 93 -18t77 -51t51.5 -77t18.5 -93t-18.5 -93t-51.5 -76t-77 -51.5t-93 -19.5t-93 19.5t-76.5 51.5t-51 76t-18.5 93t18.5 93t51 77t76.5 51t93 18zM352 438q49 0 93 -18.5t77 -51t51.5 -76.5t18.5 -93t-18.5 -93.5t-51.5 -76t-77 -51t-93 -19.5t-93 19.5 t-76.5 51t-51 76t-18.5 93.5t18.5 93t51 76.5t76.5 51t93 18.5z"/>
<glyph glyph-name="semicolon" horiz-adv-x="702" unicode=";" d="M446.5 1128q49.5 0 93.5 -18t76.5 -51t51 -77t18.5 -93t-18.5 -93t-51 -76t-76.5 -51.5t-93.5 -19.5t-93.5 19.5t-76.5 51.5t-51 76t-18.5 93t18.5 93t51 77t76.5 51t93.5 18zM633 391l-377 -680h-240l267 680h350z"/>
<glyph glyph-name="less" d="M203 649l1001 373v-307l-561 -187v-4l561 -186v-307l-1001 372v246z" unicode="&lt;"/>
<glyph glyph-name="equal" d="M1227 434v-307h-1049v307h1049zM1227 926v-308h-1049v308h1049z" unicode="="/>
<glyph glyph-name="greater" d="M1204 403l-1001 -372v307l561 186v4l-561 187v307l1001 -373v-246z" unicode="&gt;"/>
<glyph glyph-name="question" horiz-adv-x="1218" unicode="?" d="M575.5 438q49.5 0 93.5 -18.5t76.5 -51t51 -76.5t18.5 -93t-18.5 -93.5t-51 -76t-76.5 -51t-93.5 -19.5t-93.5 19.5t-76.5 51t-51 76t-18.5 93.5t18.5 93t51 76.5t76.5 51t93.5 18.5zM469 903q97 0 179.5 54t82.5 149q0 63 -42.5 108.5t-110.5 45.5t-104 -45.5 t-36 -110.5h-407q0 225 167 353t387 128q219 0 365 -127q78 -66 127 -159t49 -187q0 -172 -102.5 -285.5t-267.5 -164.5v-146h-375v397q47 -10 88 -10z"/>
<glyph glyph-name="at" horiz-adv-x="1515" unicode="@" d="M1096 548q0 -24 8 -37t33 -11t58.5 33.5t83 114t55.5 210.5q1 19 1 37q0 222 -151 360t-403 138q-253 0 -415.5 -175.5t-162.5 -450.5t175.5 -445t442.5 -170q129 0 223.5 25.5t143.5 55.5l168 -135q-275 -139 -496 -139t-365.5 61.5t-252 170t-170 257t-62.5 323.5 t60.5 323.5t167 257t248.5 171t292 62.5q296 0 496 -178q229 -203 229 -476t-127 -439q-74 -98 -155.5 -140t-136.5 -42q-4 0 -35 1.5t-67 35.5t-48 83q-104 -119 -252 -119t-251 113.5t-103 267.5q0 199 117.5 346.5t288.5 147.5t263 -127l21 108h194l-102 -532 q-14 -63 -14 -87zM573 708q0 -60 40 -115.5t116 -55.5q126 0 162 106.5t36 158.5q0 55 -38.5 107t-119.5 52t-138.5 -74.5t-57.5 -178.5z"/>
<glyph glyph-name="A" horiz-adv-x="1599" unicode="A" d="M805 1067h-4l-166 -492h334zM524 268l-106 -268h-426l594 1544h438l582 -1544h-428l-101 268h-553z"/>
<glyph glyph-name="B" horiz-adv-x="1386" unicode="B" d="M532 938h46q96 0 156.5 30t60.5 121t-62 119.5t-172 28.5h-29v-299zM1309 430q0 -224 -159.5 -327t-399.5 -103h-619v1544h574q335 0 396.5 -145.5t61.5 -255.5q0 -231 -170 -316v-4q316 -44 316 -393zM532 307h52q141 0 230 26t89 138q0 168 -55 168h-316v-332z"/>
<glyph glyph-name="C" horiz-adv-x="1351" unicode="C" d="M875 1585q170 0 360 -78v-481q-61 84 -154.5 127t-191.5 43q-188 0 -303 -122.5t-115 -307.5t117.5 -301.5t300.5 -116.5q98 0 190 44t156 120v-481q-100 -31 -180 -51.5t-208 -20.5t-276.5 58.5t-273.5 172.5q-244 222 -244 566q0 345 228 579q115 117 269.5 183.5 t324.5 66.5z"/>
<glyph glyph-name="D" horiz-adv-x="1540" unicode="D" d="M532 340h91q192 0 318 109t126 317q0 207 -121 322.5t-319 115.5h-95v-864zM131 1544h569q162 0 304.5 -59.5t249 -163.5t169 -245.5t62.5 -304.5t-62.5 -303t-169 -244.5t-250 -164t-303.5 -59.5h-569v1544z"/>
<glyph glyph-name="E" horiz-adv-x="1126" unicode="E" d="M532 1204v-258h453v-340h-453v-266h478v-340h-879v1544h879v-340h-478z"/>
<glyph glyph-name="F" horiz-adv-x="1110" unicode="F" d="M532 1204v-258h441v-340h-441v-606h-401v1544h887v-340h-486z"/>
<glyph glyph-name="G" horiz-adv-x="1724" unicode="G" d="M883 -51q-372 0 -601 227t-229 596t231 596t607 227q240 0 418 -107.5t278 -324.5l-381 -159q-41 111 -126.5 178t-195.5 67q-199 0 -306 -147.5t-107 -340.5t109.5 -337.5t298.5 -144.5q131 0 221 66.5t102 201.5h-328v315h797q-5 -209 -34.5 -344.5t-123.5 -265.5 q-218 -303 -630 -303z"/>
<glyph glyph-name="H" horiz-adv-x="1644" unicode="H" d="M1112 948v596h401v-1544h-401v633h-580v-633h-401v1544h401v-596h580z"/>
<glyph glyph-name="I" horiz-adv-x="663" unicode="I" d="M532 0h-401v1544h401v-1544z"/>
<glyph glyph-name="J" horiz-adv-x="1001" unicode="J" d="M362 299q110 0 112.5 97.5t2.5 129.5v1018h402v-1042q0 -251 -131.5 -397t-380 -146t-398.5 227l232 244q98 -131 161 -131z"/>
<glyph glyph-name="K" horiz-adv-x="1552" unicode="K" d="M532 670v-670h-401v1544h401v-637h5l485 637h498l-615 -731l670 -813h-520l-518 670h-5z"/>
<glyph glyph-name="L" horiz-adv-x="1013" unicode="L" d="M532 340h482v-340h-883v1544h401v-1204z"/>
<glyph glyph-name="M" horiz-adv-x="2013" unicode="M" d="M301 1544h395l314 -825l331 825h400l233 -1544h-401l-113 889h-4l-371 -889h-159l-355 889h-4l-129 -889h-399z"/>
<glyph glyph-name="N" horiz-adv-x="1804" unicode="N" d="M131 1544h401l736 -944h4v944h401v-1544h-401l-735 946h-5v-946h-401v1544z"/>
<glyph glyph-name="O" horiz-adv-x="1816" unicode="O" d="M471 799q0 -197 128 -329t308 -132t308 131.5t128 329.5q0 161 -129.5 284t-307 123t-306.5 -123.5t-129 -283.5zM907 1595q166 0 320.5 -58t273.5 -163.5t189.5 -252t70.5 -327.5t-63.5 -337t-177 -269.5t-270 -176t-436.5 -62.5t-520.5 239t-240.5 613q0 174 71 320.5 t189.5 252t273 163.5t320.5 58z"/>
<glyph glyph-name="P" horiz-adv-x="1353" unicode="P" d="M532 836h68q144 0 192 20.5t72.5 58t24.5 110.5q0 131 -70 163.5t-219 32.5h-68v-385zM131 1544h614q403 0 482.5 -187.5t79.5 -320.5q0 -274 -141.5 -399t-405.5 -125h-228v-512h-401v1544z"/>
<glyph glyph-name="Q" horiz-adv-x="1816" unicode="Q" d="M53 801q0 174 71 320.5t189.5 252t273 163.5t327.5 58t329 -58t271.5 -166.5t181 -261.5t65.5 -341q0 -299 -198 -543l260 -264l-369 -57l-123 145q-170 -100 -424 -100q-373 0 -613.5 239t-240.5 613zM1343 745q0 107 -33.5 187t-92 141.5t-138.5 97t-215 35.5 t-264 -123.5t-129 -283.5q0 -197 128 -329t310 -132q63 0 123 20l-248 246l379 47l109 -112q71 99 71 206z"/>
<glyph glyph-name="R" horiz-adv-x="1392" unicode="R" d="M532 852h39q125 0 176.5 26.5t77 64.5t25.5 126.5t-77 128t-202 39.5h-39v-385zM532 594v-594h-401v1544h600q377 0 457 -176t80 -278q0 -188 -89 -309t-249 -148l485 -633h-500l-378 594h-5z"/>
<glyph glyph-name="S" horiz-adv-x="1261" unicode="S" d="M713 1249q-63 0 -117.5 -34.5t-54.5 -94.5q0 -82 75.5 -110.5t102.5 -36.5l102 -31q182 -57 281.5 -151.5t99.5 -270.5q0 -282 -166.5 -421.5t-445.5 -139.5t-529 176l172 324q76 -66 164 -113t179 -47t149.5 38.5t58.5 117.5q0 103 -105.5 135t-168.5 50 q-192 56 -289.5 138.5t-97.5 301.5t149 362t383 143q182 0 307 -49t177 -78l-160 -311q-119 102 -266 102z"/>
<glyph glyph-name="T" horiz-adv-x="1091" unicode="T" d="M745 0h-401v1204h-332v340h1065v-340h-332v-1204z"/>
<glyph glyph-name="U" horiz-adv-x="1593" unicode="U" d="M1470 1544v-868q0 -184 -42.5 -383t-258.5 -266t-387 -67q-65 0 -211.5 19t-288.5 155q-141 136 -150 302t-9 240v868h401v-813q0 -195 33 -270.5t88 -112.5t191 -37t184.5 111t48.5 309v813h401z"/>
<glyph glyph-name="V" horiz-adv-x="1558" unicode="V" d="M778 606l375 938h436l-659 -1544h-312l-649 1544h437z"/>
<glyph glyph-name="W" horiz-adv-x="2287" unicode="W" d="M655 547h4l324 997h320l303 -997h4l291 997h417l-493 -1544h-410l-270 895h-4l-303 -895h-408l-461 1544h418z"/>
<glyph glyph-name="X" horiz-adv-x="1615" unicode="X" d="M94 1544h494l235 -399l236 399h493l-493 -719l571 -825h-483l-324 504l-354 -504h-485l604 825z"/>
<glyph glyph-name="Y" horiz-adv-x="1462" unicode="Y" d="M932 0h-402v741l-569 803h481l289 -420l289 420h481l-569 -803v-741z"/>
<glyph glyph-name="Z" horiz-adv-x="1447" unicode="Z" d="M1346 340v-340h-1323l731 1204h-607v340h1278l-727 -1204h648z"/>
<glyph glyph-name="bracketleft" horiz-adv-x="716" unicode="[" d="M391 -274h219v-218h-504v2110h504v-217h-219v-1675z"/>
<glyph glyph-name="backslash" horiz-adv-x="1185" unicode="\" d="M350 1700l780 -1700h-290l-785 1700h295z"/>
<glyph glyph-name="bracketright" horiz-adv-x="716" unicode="]" d="M326 1401h-220v217h504v-2110h-504v218h220v1675z"/>
<glyph glyph-name="asciicircum" d="M211 834l369 772h245l369 -772l-233 -138l-259 551l-258 -551z" unicode="^"/>
<glyph glyph-name="underscore" horiz-adv-x="1024" unicode="_" d="M0 -256v102h1024v-102h-1024z"/>
<glyph glyph-name="grave" horiz-adv-x="823" unicode="`" d="M381 1679l289 -352l-166 -121l-350 310z"/>
<glyph glyph-name="a" horiz-adv-x="1396" unicode="a" d="M1272 0h-373v117h-4q-49 -78 -137 -115t-192 -37t-202 45t-168.5 122t-109.5 179.5t-39 273t148 335.5t378 165q92 0 179.5 -33.5t146.5 -103.5v103h373v-1051zM646 762q-83 0 -148.5 -69t-65.5 -169t62.5 -167.5t177 -67.5t177 67.5t62.5 167.5q0 157 -91 197.5 t-174 40.5z"/>
<glyph glyph-name="b" horiz-adv-x="1396" unicode="b" d="M685 762q-83 0 -148.5 -69t-65.5 -169t62.5 -167.5t177 -67.5t177 67.5t62.5 167.5q0 157 -91 197.5t-174 40.5zM483 948q115 137 339 137q104 0 201 -45t204.5 -165t107.5 -350t-149 -395t-381 -165q-92 0 -179 37t-139 115h-4v-117h-372v1700h372v-752z"/>
<glyph glyph-name="c" horiz-adv-x="989" unicode="c" d="M432 523q0 -112 73 -183.5t186 -71.5t190 72v-315q-118 -60 -249 -60q-249 0 -417 157t-168 402q0 244 170 402.5t418 158.5q136 0 246 -61v-315q-97 73 -198.5 73t-176 -73.5t-74.5 -185.5z"/>
<glyph glyph-name="d" horiz-adv-x="1396" unicode="d" d="M686 762q-107 0 -173.5 -68.5t-66.5 -169.5q0 -100 62.5 -167.5t177.5 -67.5t177.5 67.5t62.5 167.5t-66.5 169t-173.5 69zM913 117h-4q-49 -78 -137 -115t-192 -37t-201.5 45t-168.5 122t-110 179.5t-39 273t148 335.5t379 165q92 0 179 -33.5t146 -103.5v752h373v-1700 h-373v117z"/>
<glyph glyph-name="e" horiz-adv-x="1249" unicode="e" d="M651 229q124 0 178 97h359q-45 -181 -194.5 -271t-340.5 -90q-269 0 -438.5 147.5t-169.5 409.5t161 412.5t427 150.5t417.5 -157t151.5 -426v-39h-784q0 -234 233 -234zM642 844q-79 0 -140.5 -42t-77.5 -124h432q-14 76 -74.5 121t-139.5 45z"/>
<glyph glyph-name="f" horiz-adv-x="794" unicode="f" d="M650 1397q-118 0 -118 -176v-170h261v-308h-261v-743h-372v743h-131v308h131v133q0 131 17.5 210.5t88.5 157.5q143 168 367 168q91 0 160 -37v-321q-83 35 -143 35z"/>
<glyph glyph-name="g" horiz-adv-x="1386" unicode="g" d="M650.5 770q-82.5 0 -148.5 -68t-66 -169t62.5 -168.5t177.5 -67.5t177 67.5t62 167.5q0 157 -91 197.5t-173.5 40.5zM903 940v111h373v-949q0 -484 -231 -555t-349 -71t-218.5 23.5t-186.5 72.5t-147.5 125t-73.5 180h417q14 -51 67 -78q52 -27 119 -27q127 1 178.5 78 t51.5 224v49q-72 -72 -150.5 -107.5t-188.5 -35.5t-205 40.5t-163.5 113.5t-106.5 170t-38 272.5t151.5 342t372.5 166.5q222 0 324 -145h4z"/>
<glyph glyph-name="h" horiz-adv-x="1353" unicode="h" d="M500 918q128 167 330 167q199 0 300 -119t101 -323v-643h-373v539q0 115 -22.5 160.5t-56.5 67t-112 21.5t-124.5 -70.5t-46.5 -178.5v-539h-373v1700h373v-782h4z"/>
<glyph glyph-name="i" horiz-adv-x="618" unicode="i" d="M309 1663q43 0 81 -16.5t66.5 -45t45 -66.5t16.5 -81t-16.5 -81t-45 -66.5t-66.5 -45t-81 -16.5t-81 16.5t-66.5 45t-45 66.5t-16.5 81t16.5 81t45 66.5t66.5 45t81 16.5zM496 0h-373v1051h373v-1051z"/>
<glyph glyph-name="j" horiz-adv-x="618" unicode="j" d="M309 1663q43 0 81 -16.5t66.5 -45t45 -66.5t16.5 -81t-16.5 -81t-45 -66.5t-66.5 -45t-81 -16.5t-81 16.5t-66.5 45t-45 66.5t-16.5 81t16.5 81t45 66.5t66.5 45t81 16.5zM496 -524h-373v1575h373v-1575z"/>
<glyph glyph-name="k" horiz-adv-x="1409" unicode="k" d="M496 0h-373v1700h373v-1028l387 379h510l-527 -486l559 -565h-522l-407 428v-428z"/>
<glyph glyph-name="l" horiz-adv-x="618" unicode="l" d="M496 0h-373v1700h373v-1700z"/>
<glyph glyph-name="m" horiz-adv-x="2025" unicode="m" d="M1546 1085q359 0 359 -415v-670h-373v502q0 128 -25 207t-129 79q-159 0 -168.5 -119.5t-9.5 -166.5v-502h-373v502q0 129 -18 182t-52 83t-119.5 30t-113.5 -83t-28 -212v-502h-373v1051h373v-131h4q124 165 331 165q249 0 359 -200q53 98 150.5 149t205.5 51z"/>
<glyph glyph-name="n" horiz-adv-x="1353" unicode="n" d="M690 788q-194 0 -194 -243v-545h-373v1051h373v-136h4q66 96 146 133t188 37q207 0 302 -116.5t95 -319.5v-649h-373v596q0 111 -49 151.5t-119 40.5z"/>
<glyph glyph-name="o" horiz-adv-x="1355" unicode="o" d="M503.5 693q-65.5 -69 -65.5 -169t62.5 -167.5t177.5 -67.5t177.5 67.5t62.5 167.5t-66.5 169t-174.5 69t-173.5 -69zM1128.5 934q182.5 -151 182.5 -409t-183.5 -409t-447.5 -151t-449.5 149.5t-185.5 409.5t183 410.5t450.5 150.5t450 -151z"/>
<glyph glyph-name="p" horiz-adv-x="1396" unicode="p" d="M685 762q-83 0 -148.5 -69t-65.5 -169t62.5 -167.5t177 -67.5t177 67.5t62.5 167.5q0 157 -91 197.5t-174 40.5zM487 932q101 153 331 153q104 0 202 -46t206.5 -165.5t108.5 -349.5t-146.5 -394.5t-379.5 -164.5q-92 0 -179 33t-147 102v-624h-372v1575h372v-119h4z"/>
<glyph glyph-name="q" horiz-adv-x="1396" unicode="q" d="M686 762q-107 0 -173.5 -68.5t-66.5 -169.5q0 -100 62.5 -167.5t177.5 -67.5t177.5 67.5t62.5 167.5t-66.5 169t-173.5 69zM913 100q-113 -135 -337 -135q-104 0 -202 44t-205.5 163t-107.5 350t152 397t379 166q92 0 180 -37.5t137 -115.5h4v119h373v-1575h-373v624z "/>
<glyph glyph-name="r" horiz-adv-x="927" unicode="r" d="M496 424v-424h-373v1051h373v-172h4q101 186 340 186h71v-358q-58 34 -146 34q-156 0 -212.5 -82.5t-56.5 -234.5z"/>
<glyph glyph-name="s" horiz-adv-x="1050" unicode="s" d="M817 780q-95 51 -184 51q-133 -1 -133 -75q0 -58 115 -78t236.5 -73t121.5 -232q0 -212 -148 -310t-361 -98t-411 121l135 260q102 -70 181.5 -88t105.5 -18q54 0 89.5 20.5t35.5 54.5q0 35 -20.5 52.5t-53 29t-74.5 19.5t-120 30.5t-138.5 81.5t-60.5 170 q0 196 136 291.5t330 95.5t343 -67z"/>
<glyph glyph-name="t" horiz-adv-x="737" unicode="t" d="M530 0h-372v743h-121v308h121v315h372v-315h211v-308h-211v-743z"/>
<glyph glyph-name="u" horiz-adv-x="1349" unicode="u" d="M676 -35q-559 0 -559 453v633h372v-562q0 -111 28 -152.5t64.5 -58t120 -16.5t122 57.5t38.5 169.5v562h373v-633q0 -453 -559 -453z"/>
<glyph glyph-name="v" horiz-adv-x="1275" unicode="v" d="M639 512l250 539h418l-549 -1051h-238l-551 1051h418z"/>
<glyph glyph-name="w" horiz-adv-x="2039" unicode="w" d="M645 481l264 570h221l265 -570l264 570h412l-549 -1051h-242l-260 575l-260 -575h-242l-549 1051h414z"/>
<glyph glyph-name="x" horiz-adv-x="1458" unicode="x" d="M68 1051h473l188 -217l189 217h481l-434 -482l524 -569h-490l-270 311l-270 -311h-490l525 569z"/>
<glyph glyph-name="y" horiz-adv-x="1339" unicode="y" d="M-31 1051h430l281 -539l274 539h424l-841 -1575h-418l358 667z"/>
<glyph glyph-name="z" horiz-adv-x="1144" unicode="z" d="M1081 309v-309h-1065l494 741h-428v310h1048l-491 -742h442z"/>
<glyph glyph-name="braceleft" horiz-adv-x="720" unicode="{" d="M74 678q58 0 100.5 16.5t42.5 91.5v519q0 148 80.5 230.5t151.5 82.5h198v-246h-51q-90 0 -92 -50t-2 -71v-460q0 -117 -59 -159.5t-138 -58.5v-4q25 -4 58.5 -11t86 -47t52.5 -181v-455q0 -61 15.5 -91t78.5 -30h51v-246h-198q-71 0 -151.5 82.5t-80.5 227.5v518 q0 90 -40 109.5t-47 19.5h-56v213z"/>
<glyph glyph-name="bar" horiz-adv-x="1185" unicode="|" d="M748 -438h-308v2048h308v-2048z"/>
<glyph glyph-name="braceright" horiz-adv-x="720" unicode="}" d="M219 791v460q0 62 -16 91.5t-78 29.5h-51v246h198q27 0 67 -18.5t102.5 -82.5t62.5 -212v-519q0 -75 42.5 -91.5t100.5 -16.5v-213h-41q-55 0 -78.5 -38t-23.5 -91v-518q0 -145 -62.5 -209t-102.5 -82.5t-67 -18.5h-198v246h51q89 0 91.5 49.5t2.5 71.5v455 q0 141 52.5 181t86 47t58.5 11v4q-197 32 -197 218z"/>
<glyph glyph-name="asciitilde" d="M944 592q61 0 127 172l234 -199q-81 -134 -163 -226.5t-196 -92.5q-76 0 -137 33.5t-123 69.5t-118 75t-103 39q-61 0 -133 -172l-232 196q33 39 70 94.5t109.5 141.5t182.5 86t261 -115q49 -39 111.5 -70.5t109.5 -31.5z" unicode="~"/>
<glyph glyph-name="nonbreakingspace" horiz-adv-x="702" unicode=" "/>
<glyph glyph-name="exclamdown" horiz-adv-x="786" unicode="¡" d="M588 522v-1020h-387v1020h387zM393 1090q49 0 93 -18.5t77 -51.5t51.5 -77t18.5 -93t-18.5 -93t-51.5 -76t-77 -51.5t-93 -19.5t-93 19.5t-77 51.5t-51 76t-18 93t18 93t51 77t77 51.5t93 18.5z"/>
<glyph glyph-name="cent" d="M997 20h-190v203q-215 8 -366.5 171t-151.5 386t147 377t371 174v191h190v-203l119 -35v-334q-82 78 -187 78q-104 0 -177.5 -69.5t-73.5 -176.5t69 -181.5t185.5 -74.5t183.5 78v-334q-77 -27 -119 -32v-218z" unicode="¢"/>
<glyph glyph-name="sterling" d="M707 473q0 -82 -19 -133l23 -8q31 -10 69.5 -22.5t107 -30t120.5 -17.5q53 0 81.5 26.5t28.5 73.5h250q-20 -279 -153.5 -337t-216.5 -58t-150.5 18.5t-116.5 32.5t-83 22.5t-89 22t-102 13.5q-118 0 -138 -76h-266q26 143 122.5 252.5t230.5 109.5q20 42 20 87 q0 77 -57 165h-330v156h221q-74 121 -74 247q0 246 161 401t449 155q287 0 420.5 -137.5t137.5 -444.5h-398v72q0 78 -54.5 136t-140.5 58q-85 0 -135.5 -64.5t-50.5 -152.5q0 -149 84 -270h320v-156h-291q19 -59 19 -141z" unicode="£"/>
<glyph glyph-name="currency" d="M708.5 1040q-113.5 0 -191 -79t-77.5 -194q0 -116 77 -185.5t191.5 -69.5t191.5 69.5t77 185.5t-77.5 194.5t-191 78.5zM133 787.5q0 203.5 103 324.5l-136 137l127 129l138 -137q144 107 344 107q94 0 181 -29t146 -78l138 137l126 -127l-126 -129q49 -66 79.5 -157 t30.5 -187t-30.5 -183t-84.5 -146l136 -136l-123 -133l-138 135q-127 -110 -337 -110t-345 112l-135 -135l-127 129l136 135q-103 138 -103 341.5z" unicode="¤"/>
<glyph glyph-name="yen" d="M1296 741v-155h-405v-586h-377v586h-410v155h408l-117 172h-291v156h189l-316 475h455l270 -420l271 420h454l-317 -475h186v-156h-290l-115 -172h405z" unicode="¥"/>
<glyph glyph-name="brokenbar" horiz-adv-x="1185" unicode="¦" d="M748 842h-308v512h308v-512zM748 -182h-308v512h308v-512z"/>
<glyph glyph-name="section" d="M293 954q-92 88 -92 260q0 78 40 151t138.5 146.5t288.5 73.5q319 0 400 -138t85 -241h-322q-12 53 -50 88t-90 35t-86 -27.5t-34 -71.5t18.5 -72t47.5 -48t62.5 -35.5t62.5 -30.5l227 -114q155 -76 228 -152.5t73 -220.5q0 -98 -48 -180t-124 -141q105 -92 105 -286 q0 -92 -46.5 -174.5t-156.5 -164.5t-338 -82t-395 122t-167 328q0 13 1 27h375v-9q0 -71 61 -124t132 -53q70 0 116.5 35t46.5 87t-16.5 77.5t-45 47.5t-110.5 58l-324 158q-239 120 -239 323t176 348zM494 817q-64 -35 -64 -111q0 -75 64.5 -108t89.5 -45l342 -170 q23 18 38 50t15 62q0 52 -40.5 85.5t-109.5 66.5z" unicode="§"/>
<glyph glyph-name="dieresis" horiz-adv-x="1236" unicode="¨" d="M880 1638q85 0 143 -58t58 -143t-58 -142.5t-143 -57.5t-143.5 57.5t-58.5 142.5t58.5 143t143.5 58zM355 1638q85 0 143.5 -58t58.5 -143t-58.5 -142.5t-143.5 -57.5t-143 57.5t-58 142.5t58 143t143 58z"/>
<glyph glyph-name="copyright" horiz-adv-x="1638" unicode="©" d="M856 1090q-121 0 -190.5 -89.5t-69.5 -214.5t73 -221t185 -96q72 0 131 42t64 116h184q-15 -142 -123 -229t-256 -87q-198 0 -324.5 133t-126.5 336t119.5 335t327.5 132q149 0 254 -82.5t129 -224.5h-184q-12 76 -68.5 113t-124.5 37zM1260.5 328q177.5 176 177.5 443 t-177.5 444.5t-441.5 177.5t-441 -175.5t-177 -446.5q0 -270 176.5 -444.5t441.5 -174.5q264 0 441.5 176zM818 -41q-169 0 -316.5 63.5t-257 174t-173 258t-63.5 316.5t63.5 317.5t173 259t257 174t316.5 63.5t317.5 -63.5t258 -174t173 -259t63.5 -317.5t-63.5 -316.5 t-173 -258t-258 -174t-317.5 -63.5z"/>
<glyph glyph-name="ordfeminine" horiz-adv-x="837" unicode="ª" d="M571 1004q-61 -91 -213 -91q-142 0 -238.5 99t-96.5 238.5t95.5 237t237.5 97.5q143 0 219 -82v62h242v-631h-242v70h-4zM428 1106q66 0 111 42t45 101.5t-45 101.5t-111 42t-111 -42t-45 -101.5t45 -101.5t111 -42z"/>
<glyph glyph-name="guillemotleft" horiz-adv-x="1234" unicode="«" d="M616 299l-210 -147l-353 503l353 504l204 -141l-258 -363zM1126 299l-211 -147l-352 503l352 504l205 -141l-258 -363z"/>
<glyph glyph-name="logicalnot" d="M920 618h-742v308h1049v-637h-307v329z" unicode="¬"/>
<glyph glyph-name="registered" horiz-adv-x="1638" unicode="®" d="M909 842q72 0 110 23.5t38 104.5t-80 83t-111 2h-182v-213h225zM684 715v-357h-188v844h409q167 0 247.5 -52.5t80.5 -205.5q0 -117 -58.5 -169t-170.5 -60l204 -357h-204l-189 357h-131zM1260.5 328q177.5 176 177.5 443t-177.5 444.5t-441.5 177.5t-441 -175.5 t-177 -446.5q0 -270 176.5 -444.5t441.5 -174.5q264 0 441.5 176zM818 -41q-169 0 -316.5 63.5t-257 174t-173 258t-63.5 316.5t63.5 317.5t173 259t257 174t316.5 63.5t317.5 -63.5t258 -174t173 -259t63.5 -317.5t-63.5 -316.5t-173 -258t-258 -174t-317.5 -63.5z"/>
<glyph glyph-name="macron" horiz-adv-x="1234" unicode="¯" d="M1079 1540v-219h-925v219h925z"/>
<glyph glyph-name="degree" horiz-adv-x="819" unicode="°" d="M543 1277q0 54 -39 94t-94 40t-95 -39.5t-40 -91.5q0 -56 39.5 -95.5t95 -39.5t94.5 39t39 93zM627 1061q-90 -90 -220 -90t-217.5 90.5t-88.5 154.5t-1 66q0 122 88.5 212.5t217.5 90.5t220 -91t91 -217t-90 -216z"/>
<glyph glyph-name="plusminus" d="M1227 307v-307h-1049v307h1049zM549 1339h307v-290h371v-308h-371v-290h-307v290h-371v308h371v290z" unicode="±"/>
<glyph glyph-name="twosuperior" horiz-adv-x="843" unicode="²" d="M307 1303q0 -32 4 -54h-286q6 160 109.5 258.5t274.5 98.5t282.5 -90.5t111.5 -239.5q0 -100 -42 -164.5t-120 -130.5l-156 -135h328v-203h-807l412 412q114 114 114 227q0 43 -31.5 81t-83.5 38t-81 -33t-29 -65z"/>
<glyph glyph-name="threesuperior" horiz-adv-x="843" unicode="³" d="M416 1061q-11 0 -47 -6v159h26q51 0 83 28t32 72t-28.5 69.5t-75.5 25.5t-76 -30.5t-29 -75.5h-242q16 145 116.5 224t248.5 79t239 -72t91 -197q0 -55 -26 -108t-81 -82q77 -20 120.5 -87t43.5 -145q0 -146 -114.5 -226.5t-290.5 -80.5t-283 105q-77 67 -96 130.5 t-19 94.5v6h266q0 -55 39 -92t99 -37t100.5 33t40.5 88t-42 90t-95 35z"/>
<glyph glyph-name="acute" horiz-adv-x="823" unicode="´" d="M319 1206l-165 121l288 352l228 -163z"/>
<glyph glyph-name="mu" horiz-adv-x="1349" unicode="µ" d="M489 1051v-562q0 -111 28 -152.5t64.5 -58t120 -16.5t122 57.5t38.5 169.5v562h373v-633q0 -242 -147.5 -347.5t-329.5 -105.5q-98 0 -166 33t-103 68v-590h-372v1575h372z"/>
<glyph glyph-name="paragraph" d="M1311 1544v-186h-135v-1706h-207v1704h-191v-1704h-207v942q-429 38 -473 440q-2 21 -2 42q0 71 30 153t92.5 153.5t146.5 116.5t174 45h772z" unicode="¶"/>
<glyph glyph-name="cedilla" horiz-adv-x="778" unicode="¸" d="M313 -485l-159 100l266 324l203 -132z"/>
<glyph glyph-name="onesuperior" horiz-adv-x="843" unicode="¹" d="M190 1366v203h404v-926h-260v723h-144z"/>
<glyph glyph-name="ordmasculine" horiz-adv-x="839" unicode="º" d="M419.5 1391q-65.5 0 -109.5 -41t-44 -100.5t44 -100.5t109.5 -41t110.5 41t45 100.5t-45 100.5t-110.5 41zM420 1585q82 0 156.5 -22.5t131 -65.5t90 -105.5t33.5 -142.5t-33.5 -142.5t-90 -105.5t-131 -65.5t-156.5 -22.5t-157 22.5t-131 65.5t-89 105.5t-33 142.5 t33 142.5t89 105.5t131 65.5t157 22.5z"/>
<glyph glyph-name="guillemotright" horiz-adv-x="1234" unicode="»" d="M883 655l-258 363l204 141l353 -504l-353 -503l-211 147zM373 655l-258 363l204 141l353 -504l-353 -503l-210 147z"/>
<glyph glyph-name="onequarter" horiz-adv-x="2107" unicode="¼" d="M1522 1544l-897 -1544h-201l897 1544h201zM1540 731h-4l-233 -356h237v356zM1903 377v-184h-121v-193h-242v193h-487v153l387 580h342v-549h121zM205 1341v203h403v-926h-260v723h-143z"/>
<glyph glyph-name="onehalf" horiz-adv-x="2107" unicode="½" d="M1464 1544l-897 -1544h-200l897 1544h200zM1397 659q0 -33 4 -53h-287q6 160 109.5 258.5t274.5 98.5t282.5 -91t111.5 -239q0 -100 -42 -165t-119 -130l-156 -135h328v-203h-807l411 412q115 115 115 227q0 43 -32 81t-84 38t-80.5 -33t-28.5 -66zM205 1341v203h403 v-926h-260v723h-143z"/>
<glyph glyph-name="threequarters" horiz-adv-x="2107" unicode="¾" d="M510 999q-11 0 -47 -6v160h26q51 0 83 27.5t32 71.5t-28.5 70t-75.5 26t-76 -31t-29 -76h-241q16 145 116.5 224t248.5 79t238.5 -71t90.5 -197q0 -55 -25.5 -108.5t-81.5 -82.5q76 -20 120 -86t44 -145q0 -147 -115 -227t-290 -80t-283 104q-77 67 -96 131t-19 95v6h267 q0 -57 40 -93t99 -36t99 32t40 88t-42 90.5t-95 34.5zM1698 1544l-897 -1544h-201l897 1544h201zM1642 731h-4l-233 -356h237v356zM2005 377v-184h-121v-193h-242v193h-487v153l387 580h342v-549h121z"/>
<glyph glyph-name="questiondown" horiz-adv-x="1218" unicode="¿" d="M643 1090q49 0 93 -18.5t77 -51.5t51.5 -77t18.5 -93t-18.5 -93t-51.5 -76t-77 -51.5t-93 -19.5t-93 19.5t-77 51.5t-51.5 76t-18.5 93t18.5 93t51.5 77t77 51.5t93 18.5zM750 141q-100 0 -181.5 -54t-81.5 -148q0 -63 42 -108.5t111 -45.5t104.5 45t35.5 111h408 q0 -225 -168 -353.5t-386 -128.5t-366 127q-78 66 -127 159t-49 187q0 171 101.5 284t269.5 167v145h375v-397q-47 10 -88 10z"/>
<glyph glyph-name="Agrave" horiz-adv-x="1599" unicode="À" d="M729 2111l289 -352l-166 -121l-350 310zM805 1067h-4l-166 -492h334zM524 268l-106 -268h-426l594 1544h438l582 -1544h-428l-101 268h-553z"/>
<glyph glyph-name="Aacute" horiz-adv-x="1599" unicode="Á" d="M750 1638l-166 121l288 352l228 -163zM805 1067h-4l-166 -492h334zM524 268l-106 -268h-426l594 1544h438l582 -1544h-428l-101 268h-553z"/>
<glyph glyph-name="Acircumflex" horiz-adv-x="1599" unicode="Â" d="M797 2130l452 -336l-157 -172l-295 227l-295 -227l-152 172zM805 1067h-4l-166 -492h334zM524 268l-106 -268h-426l594 1544h438l582 -1544h-428l-101 268h-553z"/>
<glyph glyph-name="Atilde" horiz-adv-x="1599" unicode="Ã" d="M795 1978.5q124 -34.5 160 -34.5t51.5 20.5t27.5 52.5h174q-9 -122 -76.5 -222.5t-189.5 -100.5q-48 0 -123.5 25.5t-113 37.5t-74.5 12t-48.5 -23.5t-21.5 -51.5h-168l-2 22q0 177 85 237t140 60t179 -34.5zM805 1067h-4l-166 -492h334zM524 268l-106 -268h-426 l594 1544h438l582 -1544h-428l-101 268h-553z"/>
<glyph glyph-name="Adieresis" horiz-adv-x="1599" unicode="Ä" d="M1062 2071q85 0 143.5 -58.5t58.5 -143.5t-58.5 -142.5t-143.5 -57.5t-143.5 57.5t-58.5 142.5t58.5 143.5t143.5 58.5zM538 2071q85 0 143 -58.5t58 -143.5t-58 -142.5t-143 -57.5t-143.5 57.5t-58.5 142.5t58.5 143.5t143.5 58.5zM805 1067h-4l-166 -492h334zM524 268 l-106 -268h-426l594 1544h438l582 -1544h-428l-101 268h-553z"/>
<glyph glyph-name="Aring" horiz-adv-x="1599" unicode="Å" d="M800 1923q-42 0 -81 -19.5t-39 -68.5t39 -68.5t81 -19.5t81 19.5t39 68.5t-39 68.5t-81 19.5zM1022.5 2015q91.5 -56 91.5 -179t-91.5 -180t-260 -57t-223 83t-54.5 150t27 113t91 86t196 40t223.5 -56zM805 1067h-4l-166 -492h334zM524 268l-106 -268h-426l594 1544h438 l582 -1544h-428l-101 268h-553z"/>
<glyph glyph-name="AE" horiz-adv-x="2101" unicode="Æ" d="M1071 268h-559l-96 -268h-424l596 1544h946l125 -340h-508l94 -258h506l129 -340h-510l100 -266h508l123 -340h-930zM797 1034l-174 -459h340z"/>
<glyph glyph-name="Ccedilla" horiz-adv-x="1351" unicode="Ç" d="M651 -485l-159 100l266 324l203 -132zM875 1585q170 0 360 -78v-481q-61 84 -154.5 127t-191.5 43q-188 0 -303 -122.5t-115 -307.5t117.5 -301.5t300.5 -116.5q98 0 190 44t156 120v-481q-100 -31 -180 -51.5t-208 -20.5t-276.5 58.5t-273.5 172.5q-244 222 -244 566 q0 345 228 579q115 117 269.5 183.5t324.5 66.5z"/>
<glyph glyph-name="Egrave" horiz-adv-x="1126" unicode="È" d="M532 2111l289 -352l-166 -121l-350 310zM532 1204v-258h453v-340h-453v-266h478v-340h-879v1544h879v-340h-478z"/>
<glyph glyph-name="Eacute" horiz-adv-x="1126" unicode="É" d="M471 1638l-166 121l289 352l227 -163zM532 1204v-258h453v-340h-453v-266h478v-340h-879v1544h879v-340h-478z"/>
<glyph glyph-name="Ecircumflex" horiz-adv-x="1126" unicode="Ê" d="M559 2130l453 -336l-158 -172l-295 227l-295 -227l-151 172zM532 1204v-258h453v-340h-453v-266h478v-340h-879v1544h879v-340h-478z"/>
<glyph glyph-name="Edieresis" horiz-adv-x="1126" unicode="Ë" d="M824 2071q85 0 143.5 -58.5t58.5 -143.5t-58.5 -142.5t-143.5 -57.5t-143 57.5t-58 142.5t58 143.5t143 58.5zM300 2071q85 0 143.5 -58.5t58.5 -143.5t-58.5 -142.5t-143.5 -57.5t-143.5 57.5t-58.5 142.5t58.5 143.5t143.5 58.5zM532 1204v-258h453v-340h-453v-266h478 v-340h-879v1544h879v-340h-478z"/>
<glyph glyph-name="Igrave" horiz-adv-x="663" unicode="Ì" d="M270 2111l289 -352l-166 -121l-350 310zM532 0h-401v1544h401v-1544z"/>
<glyph glyph-name="Iacute" horiz-adv-x="663" unicode="Í" d="M270 1638l-166 121l289 352l228 -163zM532 0h-401v1544h401v-1544z"/>
<glyph glyph-name="Icircumflex" horiz-adv-x="663" unicode="Î" d="M358 2130l453 -336l-158 -172l-295 227l-295 -227l-151 172zM532 0h-401v1544h401v-1544z"/>
<glyph glyph-name="Idieresis" horiz-adv-x="663" unicode="Ï" d="M593 2071q85 0 143.5 -58.5t58.5 -143.5t-58.5 -142.5t-143.5 -57.5t-143.5 57.5t-58.5 142.5t58.5 143.5t143.5 58.5zM69 2071q85 0 143 -58.5t58 -143.5t-58 -142.5t-143 -57.5t-143.5 57.5t-58.5 142.5t58.5 143.5t143.5 58.5zM532 0h-401v1544h401v-1544z"/>
<glyph glyph-name="Eth" horiz-adv-x="1540" unicode="Ð" d="M131 633h-172v315h172v596h520q182 0 336 -57t326 -218t172 -497q0 -170 -63.5 -311.5t-176 -243.5t-264.5 -159.5t-326 -57.5h-524v633zM532 948h226v-315h-226v-293h91q192 0 318 109t126 317q0 207 -121 322.5t-319 115.5h-95v-256z"/>
<glyph glyph-name="Ntilde" horiz-adv-x="1804" unicode="Ñ" d="M897 1978.5q124 -34.5 161 -34.5q36 0 51 20.5t28 52.5h174q-9 -123 -77 -223t-190 -100q-47 0 -122.5 25.5t-113.5 37.5t-75 12t-48 -23.5t-21 -51.5h-168l-2 22q0 110 37 170t85 93.5t102 33.5q55 0 179 -34.5zM131 1544h401l736 -944h4v944h401v-1544h-401l-735 946 h-5v-946h-401v1544z"/>
<glyph glyph-name="Ograve" horiz-adv-x="1816" unicode="Ò" d="M838 2111l288 -352l-165 -121l-351 310zM471 799q0 -197 128 -329t308 -132t308 131.5t128 329.5q0 161 -129.5 284t-307 123t-306.5 -123.5t-129 -283.5zM907 1595q166 0 320.5 -58t273.5 -163.5t189.5 -252t70.5 -327.5t-63.5 -337t-177 -269.5t-270 -176t-436.5 -62.5 t-520.5 239t-240.5 613q0 174 71 320.5t189.5 252t273 163.5t320.5 58z"/>
<glyph glyph-name="Oacute" horiz-adv-x="1816" unicode="Ó" d="M858 1638l-166 121l289 352l227 -163zM471 799q0 -197 128 -329t308 -132t308 131.5t128 329.5q0 161 -129.5 284t-307 123t-306.5 -123.5t-129 -283.5zM907 1595q166 0 320.5 -58t273.5 -163.5t189.5 -252t70.5 -327.5t-63.5 -337t-177 -269.5t-270 -176t-436.5 -62.5 t-520.5 239t-240.5 613q0 174 71 320.5t189.5 252t273 163.5t320.5 58z"/>
<glyph glyph-name="Ocircumflex" horiz-adv-x="1816" unicode="Ô" d="M905 2130l453 -336l-158 -172l-295 227l-295 -227l-151 172zM471 799q0 -197 128 -329t308 -132t308 131.5t128 329.5q0 161 -129.5 284t-307 123t-306.5 -123.5t-129 -283.5zM907 1595q166 0 320.5 -58t273.5 -163.5t189.5 -252t70.5 -327.5t-63.5 -337t-177 -269.5 t-270 -176t-436.5 -62.5t-520.5 239t-240.5 613q0 174 71 320.5t189.5 252t273 163.5t320.5 58z"/>
<glyph glyph-name="Otilde" horiz-adv-x="1816" unicode="Õ" d="M903 1978.5q124 -34.5 161 -34.5q36 0 51 20.5t28 52.5h174q-9 -123 -77 -223t-189 -100q-48 0 -123.5 25.5t-113.5 37.5t-75 12t-48 -23.5t-21 -51.5h-168l-2 22q0 110 37 170t85 93.5t102 33.5q55 0 179 -34.5zM471 799q0 -197 128 -329t308 -132t308 131.5t128 329.5 q0 161 -129.5 284t-307 123t-306.5 -123.5t-129 -283.5zM907 1595q166 0 320.5 -58t273.5 -163.5t189.5 -252t70.5 -327.5t-63.5 -337t-177 -269.5t-270 -176t-436.5 -62.5t-520.5 239t-240.5 613q0 174 71 320.5t189.5 252t273 163.5t320.5 58z"/>
<glyph glyph-name="Odieresis" horiz-adv-x="1816" unicode="Ö" d="M1170 2071q85 0 143.5 -58.5t58.5 -143.5t-58.5 -142.5t-143.5 -57.5t-143 57.5t-58 142.5t58 143.5t143 58.5zM646 2071q85 0 143.5 -58.5t58.5 -143.5t-58.5 -142.5t-143.5 -57.5t-143.5 57.5t-58.5 142.5t58.5 143.5t143.5 58.5zM471 799q0 -197 128 -329t308 -132 t308 131.5t128 329.5q0 161 -129.5 284t-307 123t-306.5 -123.5t-129 -283.5zM907 1595q166 0 320.5 -58t273.5 -163.5t189.5 -252t70.5 -327.5t-63.5 -337t-177 -269.5t-270 -176t-436.5 -62.5t-520.5 239t-240.5 613q0 174 71 320.5t189.5 252t273 163.5t320.5 58z"/>
<glyph glyph-name="multiply" d="M178 834l217 217l307 -312l306 312l217 -217l-305 -310l307 -307l-217 -217l-308 307l-307 -307l-217 217l309 307z" unicode="×"/>
<glyph glyph-name="Oslash" horiz-adv-x="1816" unicode="Ø" d="M53 801q0 174 71 320.5t189.5 252t273 163.5t320.5 58q285 0 512 -159l195 190l160 -164l-185 -182q172 -206 172 -479q0 -373 -239.5 -612.5t-614.5 -239.5q-296 0 -514 157l-190 -188l-160 164l184 182q-174 226 -174 537zM892 338q195 0 323 131.5t128 329.5 q0 102 -53 186l-600 -588q96 -59 202 -59zM924 1206q-195 0 -324 -123.5t-129 -271.5q0 -147 61 -248l594 584q-95 59 -202 59z"/>
<glyph glyph-name="Ugrave" horiz-adv-x="1593" unicode="Ù" d="M725 2111l289 -352l-166 -121l-350 310zM1470 1544v-868q0 -184 -42.5 -383t-258.5 -266t-387 -67q-65 0 -211.5 19t-288.5 155q-141 136 -150 302t-9 240v868h401v-813q0 -195 33 -270.5t88 -112.5t191 -37t184.5 111t48.5 309v813h401z"/>
<glyph glyph-name="Uacute" horiz-adv-x="1593" unicode="Ú" d="M745 1638l-165 121l288 352l228 -163zM1470 1544v-868q0 -184 -42.5 -383t-258.5 -266t-387 -67q-65 0 -211.5 19t-288.5 155q-141 136 -150 302t-9 240v868h401v-813q0 -195 33 -270.5t88 -112.5t191 -37t184.5 111t48.5 309v813h401z"/>
<glyph glyph-name="Ucircumflex" horiz-adv-x="1593" unicode="Û" d="M793 2130l452 -336l-158 -172l-294 227l-295 -227l-152 172zM1470 1544v-868q0 -184 -42.5 -383t-258.5 -266t-387 -67q-65 0 -211.5 19t-288.5 155q-141 136 -150 302t-9 240v868h401v-813q0 -195 33 -270.5t88 -112.5t191 -37t184.5 111t48.5 309v813h401z"/>
<glyph glyph-name="Udieresis" horiz-adv-x="1593" unicode="Ü" d="M1058 2071q85 0 143.5 -58.5t58.5 -143.5t-58.5 -142.5t-143.5 -57.5t-143.5 57.5t-58.5 142.5t58.5 143.5t143.5 58.5zM534 2071q85 0 143 -58.5t58 -143.5t-58.5 -142.5t-142.5 -57.5t-143 57.5t-59 142.5t58.5 143.5t143.5 58.5zM1470 1544v-868q0 -184 -42.5 -383 t-258.5 -266t-387 -67q-65 0 -211.5 19t-288.5 155q-141 136 -150 302t-9 240v868h401v-813q0 -195 33 -270.5t88 -112.5t191 -37t184.5 111t48.5 309v813h401z"/>
<glyph glyph-name="Yacute" horiz-adv-x="1462" unicode="Ý" d="M721 1638l-166 121l289 352l227 -163zM932 0h-402v741l-569 803h481l289 -420l289 420h481l-569 -803v-741z"/>
<glyph glyph-name="Thorn" horiz-adv-x="1353" unicode="Þ" d="M532 590h68q144 0 192 20q97 40 97 170q0 129 -86 170q-54 25 -203 25h-68v-385zM131 1544h401v-246h213q403 0 521 -278q41 -95 41 -233q0 -270 -141.5 -395.5t-405.5 -125.5h-228v-266h-401v1544z"/>
<glyph glyph-name="germandbls" horiz-adv-x="1333" unicode="ß" d="M123 1206q0 127 25 218.5t104 162.5q145 133 385 133q241 0 384.5 -120.5t143.5 -331.5q0 -111 -48 -183.5t-134 -138.5q159 -65 232 -163.5t73 -277.5q0 -180 -102.5 -338.5t-274.5 -180t-227 -21.5h-80v318h13q108 0 186 63.5t78 180.5t-77 185.5t-177 68.5 q-11 0 -23 -1v297h16q76 0 131.5 37t55.5 119t-41.5 124t-105.5 42q-109 0 -136.5 -60t-27.5 -174v-1165h-373v608h-107v297h107v301z"/>
<glyph glyph-name="agrave" horiz-adv-x="1396" unicode="à" d="M668 1679l288 -352l-165 -121l-351 310zM1272 0h-373v117h-4q-49 -78 -137 -115t-192 -37t-202 45t-168.5 122t-109.5 179.5t-39 273t148 335.5t378 165q92 0 179.5 -33.5t146.5 -103.5v103h373v-1051zM646 762q-83 0 -148.5 -69t-65.5 -169t62.5 -167.5t177 -67.5 t177 67.5t62.5 167.5q0 157 -91 197.5t-174 40.5z"/>
<glyph glyph-name="aacute" horiz-adv-x="1396" unicode="á" d="M647 1206l-166 121l289 352l227 -163zM1272 0h-373v117h-4q-49 -78 -137 -115t-192 -37t-202 45t-168.5 122t-109.5 179.5t-39 273t148 335.5t378 165q92 0 179.5 -33.5t146.5 -103.5v103h373v-1051zM646 762q-83 0 -148.5 -69t-65.5 -169t62.5 -167.5t177 -67.5 t177 67.5t62.5 167.5q0 157 -91 197.5t-174 40.5z"/>
<glyph glyph-name="acircumflex" horiz-adv-x="1396" unicode="â" d="M694 1698l453 -336l-158 -172l-295 227l-295 -227l-151 172zM1272 0h-373v117h-4q-49 -78 -137 -115t-192 -37t-202 45t-168.5 122t-109.5 179.5t-39 273t148 335.5t378 165q92 0 179.5 -33.5t146.5 -103.5v103h373v-1051zM646 762q-83 0 -148.5 -69t-65.5 -169 t62.5 -167.5t177 -67.5t177 67.5t62.5 167.5q0 157 -91 197.5t-174 40.5z"/>
<glyph glyph-name="atilde" horiz-adv-x="1396" unicode="ã" d="M509 1581q48 0 94 -11t91 -23.5t86 -24t76 -11.5t50.5 20.5t27.5 53.5h174q-9 -122 -76.5 -222.5t-189.5 -100.5q-48 0 -123.5 25.5t-113.5 37.5t-74.5 12t-48 -23.5t-21.5 -51.5h-168l-2 22q0 177 85 237t133 60zM1272 0h-373v117h-4q-49 -78 -137 -115t-192 -37 t-202 45t-168.5 122t-109.5 179.5t-39 273t148 335.5t378 165q92 0 179.5 -33.5t146.5 -103.5v103h373v-1051zM646 762q-83 0 -148.5 -69t-65.5 -169t62.5 -167.5t177 -67.5t177 67.5t62.5 167.5q0 157 -91 197.5t-174 40.5z"/>
<glyph glyph-name="adieresis" horiz-adv-x="1396" unicode="ä" d="M960 1638q85 0 143 -58t58 -143t-58.5 -142.5t-142.5 -57.5t-143 57.5t-59 142.5t58.5 143t143.5 58zM435 1638q85 0 143.5 -58t58.5 -143t-58.5 -142.5t-143.5 -57.5t-143.5 57.5t-58.5 142.5t58.5 143t143.5 58zM1272 0h-373v117h-4q-49 -78 -137 -115t-192 -37 t-202 45t-168.5 122t-109.5 179.5t-39 273t148 335.5t378 165q92 0 179.5 -33.5t146.5 -103.5v103h373v-1051zM646 762q-83 0 -148.5 -69t-65.5 -169t62.5 -167.5t177 -67.5t177 67.5t62.5 167.5q0 157 -91 197.5t-174 40.5z"/>
<glyph glyph-name="aring" horiz-adv-x="1396" unicode="å" d="M699 1522q-42 0 -80.5 -19.5t-38.5 -69t38.5 -68.5t80.5 -19t81 19t39 68.5t-39 69t-81 19.5zM923.5 1612.5q90.5 -56.5 90.5 -177.5q0 -122 -92 -179.5t-260.5 -57.5t-222.5 83t-54 150t26.5 112.5t89.5 85.5t197.5 40t225 -56.5zM1272 0h-373v117h-4q-49 -78 -137 -115 t-192 -37t-202 45t-168.5 122t-109.5 179.5t-39 273t148 335.5t378 165q92 0 179.5 -33.5t146.5 -103.5v103h373v-1051zM646 762q-83 0 -148.5 -69t-65.5 -169t62.5 -167.5t177 -67.5t177 67.5t62.5 167.5q0 157 -91 197.5t-174 40.5z"/>
<glyph glyph-name="ae" horiz-adv-x="1925" unicode="æ" d="M748.5 1042q107.5 -43 160.5 -143q59 89 167 137.5t237 48.5q264 0 415.5 -157t151.5 -426v-39h-784q0 -234 233 -234q124 0 178 97h359q-45 -181 -194.5 -271t-357.5 -90t-293 74t-112 133q-76 -98 -189.5 -152.5t-213.5 -54.5q-191 0 -327 88t-136 256t124 256t289 88 t296 -53v31q0 99 -69.5 141.5t-178.5 42.5t-295 -57v278q181 49 307 49q125 0 232.5 -43zM454.5 419.5q-48.5 -26.5 -48.5 -85.5q0 -58 49.5 -85.5t95.5 -27.5q86 0 147.5 27.5t61.5 83.5q0 88 -86 101t-129 13q-42 0 -90.5 -26.5zM1326 844q-79 0 -140.5 -42t-77.5 -124 h432q-14 76 -74.5 121t-139.5 45z"/>
<glyph glyph-name="ccedilla" horiz-adv-x="989" unicode="ç" d="M420 -485l-160 100l266 324l203 -132zM432 523q0 -112 73 -183.5t186 -71.5t190 72v-315q-118 -60 -249 -60q-249 0 -417 157t-168 402q0 244 170 402.5t418 158.5q136 0 246 -61v-315q-97 73 -198.5 73t-176 -73.5t-74.5 -185.5z"/>
<glyph glyph-name="egrave" horiz-adv-x="1249" unicode="è" d="M543 1679l288 -352l-165 -121l-351 310zM651 229q124 0 178 97h359q-45 -181 -194.5 -271t-340.5 -90q-269 0 -438.5 147.5t-169.5 409.5t161 412.5t427 150.5t417.5 -157t151.5 -426v-39h-784q0 -234 233 -234zM642 844q-79 0 -140.5 -42t-77.5 -124h432 q-14 76 -74.5 121t-139.5 45z"/>
<glyph glyph-name="eacute" horiz-adv-x="1249" unicode="é" d="M584 1206l-166 121l289 352l227 -163zM651 229q124 0 178 97h359q-45 -181 -194.5 -271t-340.5 -90q-269 0 -438.5 147.5t-169.5 409.5t161 412.5t427 150.5t417.5 -157t151.5 -426v-39h-784q0 -234 233 -234zM642 844q-79 0 -140.5 -42t-77.5 -124h432q-14 76 -74.5 121 t-139.5 45z"/>
<glyph glyph-name="ecircumflex" horiz-adv-x="1249" unicode="ê" d="M621 1698l452 -336l-158 -172l-294 227l-295 -227l-152 172zM651 229q124 0 178 97h359q-45 -181 -194.5 -271t-340.5 -90q-269 0 -438.5 147.5t-169.5 409.5t161 412.5t427 150.5t417.5 -157t151.5 -426v-39h-784q0 -234 233 -234zM642 844q-79 0 -140.5 -42t-77.5 -124 h432q-14 76 -74.5 121t-139.5 45z"/>
<glyph glyph-name="edieresis" horiz-adv-x="1249" unicode="ë" d="M886 1638q85 0 143 -58t58 -143t-58 -142.5t-143 -57.5t-143.5 57.5t-58.5 142.5t58.5 143t143.5 58zM361 1638q85 0 143.5 -58t58.5 -143t-58.5 -142.5t-143.5 -57.5t-143 57.5t-58 142.5t58 143t143 58zM651 229q124 0 178 97h359q-45 -181 -194.5 -271t-340.5 -90 q-269 0 -438.5 147.5t-169.5 409.5t161 412.5t427 150.5t417.5 -157t151.5 -426v-39h-784q0 -234 233 -234zM642 844q-79 0 -140.5 -42t-77.5 -124h432q-14 76 -74.5 121t-139.5 45z"/>
<glyph glyph-name="igrave" horiz-adv-x="618" unicode="ì" d="M248 1679l289 -352l-166 -121l-351 310zM496 0h-373v1051h373v-1051z"/>
<glyph glyph-name="iacute" horiz-adv-x="618" unicode="í" d="M248 1206l-166 121l289 352l227 -163zM496 0h-373v1051h373v-1051z"/>
<glyph glyph-name="icircumflex" horiz-adv-x="618" unicode="î" d="M305 1698l453 -336l-158 -172l-295 227l-295 -227l-151 172zM496 0h-373v1051h373v-1051z"/>
<glyph glyph-name="idieresis" horiz-adv-x="618" unicode="ï" d="M570 1638q85 0 143.5 -58t58.5 -143t-58.5 -142.5t-143.5 -57.5t-143 57.5t-58 142.5t58 143t143 58zM46 1638q85 0 143.5 -58t58.5 -143t-58.5 -142.5t-143.5 -57.5t-143.5 57.5t-58.5 142.5t58.5 143t143.5 58zM496 0h-373v1051h373v-1051z"/>
<glyph glyph-name="eth" horiz-adv-x="1355" unicode="ð" d="M678 762q-107 0 -173 -67q-66 -68 -66 -172q0 -100 61.5 -167.5t177.5 -67.5q115 0 177 68q63 68 63 168t-66 169q-67 69 -174 69zM1311 608q0 -319 -201 -491q-175 -152 -444 -152q-98 0 -207 32q-236 69 -354 272q-60 105 -60 243t49 238q97 199 307 274q100 37 173 37 t151 -12q-101 126 -231 229l-267 -141l-135 145l223 119q-122 77 -231 123l217 213q228 -103 324 -170l260 137l133 -150l-213 -112q98 -82 189 -167q317 -296 317 -667z"/>
<glyph glyph-name="ntilde" horiz-adv-x="1353" unicode="ñ" d="M486 1581q48 0 94.5 -11t91.5 -23.5t86.5 -24t75.5 -11.5t49.5 20.5t27.5 53.5h174q-9 -122 -76.5 -222.5t-189.5 -100.5q-49 0 -123.5 25.5t-112.5 37.5t-75 12t-48 -23.5t-22 -51.5h-168l-2 22q0 177 85 237t133 60zM690 788q-194 0 -194 -243v-545h-373v1051h373v-136 h4q66 96 146 133t188 37q207 0 302 -116.5t95 -319.5v-649h-373v596q0 111 -49 151.5t-119 40.5z"/>
<glyph glyph-name="ograve" horiz-adv-x="1355" unicode="ò" d="M596 1679l289 -352l-166 -121l-350 310zM503.5 693q-65.5 -69 -65.5 -169t62.5 -167.5t177.5 -67.5t177.5 67.5t62.5 167.5t-66.5 169t-174.5 69t-173.5 -69zM1128.5 934q182.5 -151 182.5 -409t-183.5 -409t-447.5 -151t-449.5 149.5t-185.5 409.5t183 410.5 t450.5 150.5t450 -151z"/>
<glyph glyph-name="oacute" horiz-adv-x="1355" unicode="ó" d="M637 1206l-166 121l289 352l227 -163zM503.5 693q-65.5 -69 -65.5 -169t62.5 -167.5t177.5 -67.5t177.5 67.5t62.5 167.5t-66.5 169t-174.5 69t-173.5 -69zM1128.5 934q182.5 -151 182.5 -409t-183.5 -409t-447.5 -151t-449.5 149.5t-185.5 409.5t183 410.5t450.5 150.5 t450 -151z"/>
<glyph glyph-name="ocircumflex" horiz-adv-x="1355" unicode="ô" d="M674 1698l452 -336l-157 -172l-295 227l-295 -227l-152 172zM503.5 693q-65.5 -69 -65.5 -169t62.5 -167.5t177.5 -67.5t177.5 67.5t62.5 167.5t-66.5 169t-174.5 69t-173.5 -69zM1128.5 934q182.5 -151 182.5 -409t-183.5 -409t-447.5 -151t-449.5 149.5t-185.5 409.5 t183 410.5t450.5 150.5t450 -151z"/>
<glyph glyph-name="otilde" horiz-adv-x="1355" unicode="õ" d="M488 1581q48 0 94.5 -11t91.5 -23.5t86.5 -24t75.5 -11.5t49.5 20.5t27.5 53.5h174q-9 -125 -76.5 -224t-189.5 -99q-49 0 -123.5 25.5t-112.5 37.5t-75 12t-48 -23.5t-22 -51.5h-168l-2 22q0 177 85 237t133 60zM503.5 693q-65.5 -69 -65.5 -169t62.5 -167.5 t177.5 -67.5t177.5 67.5t62.5 167.5t-66.5 169t-174.5 69t-173.5 -69zM1128.5 934q182.5 -151 182.5 -409t-183.5 -409t-447.5 -151t-449.5 149.5t-185.5 409.5t183 410.5t450.5 150.5t450 -151z"/>
<glyph glyph-name="odieresis" horiz-adv-x="1355" unicode="ö" d="M939 1638q85 0 143.5 -58t58.5 -143t-58.5 -142.5t-143.5 -57.5t-143.5 57.5t-58.5 142.5t58.5 143t143.5 58zM415 1638q85 0 143 -58t58 -143t-58 -142.5t-143 -57.5t-143.5 57.5t-58.5 142.5t58.5 143t143.5 58zM503.5 693q-65.5 -69 -65.5 -169t62.5 -167.5 t177.5 -67.5t177.5 67.5t62.5 167.5t-66.5 169t-174.5 69t-173.5 -69zM1128.5 934q182.5 -151 182.5 -409t-183.5 -409t-447.5 -151t-449.5 149.5t-185.5 409.5t183 410.5t450.5 150.5t450 -151z"/>
<glyph glyph-name="divide" d="M702.5 1087q61.5 0 104.5 -43t43 -104t-43 -104t-104.5 -43t-104.5 43t-43 104t43 104t104.5 43zM702.5 260q61.5 0 104.5 -43t43 -104.5t-43 -104.5t-104.5 -43t-104.5 43t-43 104.5t43 104.5t104.5 43zM1227 680v-307h-1049v307h1049z" unicode="÷"/>
<glyph glyph-name="oslash" horiz-adv-x="1355" unicode="ø" d="M45 524q0 260 183 410.5t450 150.5q193 0 346 -81l145 143l144 -127l-135 -135q133 -153 133 -361q0 -257 -183.5 -408t-449.5 -151q-190 0 -346 82l-146 -143l-143 129l135 133q-133 148 -133 358zM678 289q115 0 177.5 67.5t62.5 167.5q0 47 -15 88l-313 -309 q37 -14 88 -14zM438 524q0 -51 15 -86l313 310q-42 14 -94 14q-103 0 -168.5 -69t-65.5 -169z"/>
<glyph glyph-name="ugrave" horiz-adv-x="1349" unicode="ù" d="M584 1679l288 -352l-165 -121l-351 310zM676 -35q-559 0 -559 453v633h372v-562q0 -111 28 -152.5t64.5 -58t120 -16.5t122 57.5t38.5 169.5v562h373v-633q0 -453 -559 -453z"/>
<glyph glyph-name="uacute" horiz-adv-x="1349" unicode="ú" d="M645 1206l-166 121l289 352l227 -163zM676 -35q-559 0 -559 453v633h372v-562q0 -111 28 -152.5t64.5 -58t120 -16.5t122 57.5t38.5 169.5v562h373v-633q0 -453 -559 -453z"/>
<glyph glyph-name="ucircumflex" horiz-adv-x="1349" unicode="û" d="M672 1698l452 -336l-157 -172l-295 227l-295 -227l-152 172zM676 -35q-559 0 -559 453v633h372v-562q0 -111 28 -152.5t64.5 -58t120 -16.5t122 57.5t38.5 169.5v562h373v-633q0 -453 -559 -453z"/>
<glyph glyph-name="udieresis" horiz-adv-x="1349" unicode="ü" d="M937 1638q85 0 143.5 -58t58.5 -143t-58.5 -142.5t-143.5 -57.5t-143.5 57.5t-58.5 142.5t58.5 143t143.5 58zM413 1638q85 0 143 -58t58 -143t-58 -142.5t-143 -57.5t-143.5 57.5t-58.5 142.5t58.5 143t143.5 58zM676 -35q-559 0 -559 453v633h372v-562 q0 -111 28 -152.5t64.5 -58t120 -16.5t122 57.5t38.5 169.5v562h373v-633q0 -453 -559 -453z"/>
<glyph glyph-name="yacute" horiz-adv-x="1339" unicode="ý" d="M659 1206l-165 121l288 352l228 -163zM-31 1051h430l281 -539l274 539h424l-841 -1575h-418l358 667z"/>
<glyph glyph-name="thorn" horiz-adv-x="1396" unicode="þ" d="M471 524q1 -100 63 -168t177 -68t177 68t62 169t-66 169t-174 68t-174 -69q-65 -69 -65 -169zM483 932h4q51 78 139 116t192 38t202 -47q198 -93 276 -302q39 -102 39 -216q0 -226 -146 -391q-148 -165 -380 -165q-92 0 -179 33t-147 102v-624h-372v2224h372v-768z"/>
<glyph glyph-name="OE" horiz-adv-x="2334" unicode="Œ" d="M903 1206q-90 0 -168 -33.5t-137 -93t-93 -138.5t-34 -169t34 -169t93 -137t137 -93t168 -35t168 35t136.5 93t92 137t33.5 169t-33.5 169t-92 138.5t-136.5 93t-168 33.5zM852 -51q-158 0 -304.5 66.5t-257 180t-174 263t-63.5 313.5t63.5 313.5t174 263t257 180 t312.5 66.5q299 0 492 -192v141h868v-340h-469v-258h436v-340h-436v-266h469v-340h-868v170q-104 -115 -223 -168t-277 -53z"/>
<glyph glyph-name="oe" horiz-adv-x="2093" unicode="œ" d="M1075 928q122 157 397 157t426.5 -157t151.5 -426v-39h-784q0 -234 233 -234q124 0 178 97h359q-45 -181 -194.5 -271t-315.5 -90t-272.5 40t-178.5 142q-90 -102 -189.5 -142t-232.5 -40q-268 0 -439 147t-171 408t168.5 413t433.5 152q131 0 232.5 -33.5t197.5 -123.5z M676 762q-49 0 -93 -19.5t-76 -51.5t-51.5 -75t-19.5 -92t19.5 -92t51.5 -74.5t76 -50t93 -18.5t93 18.5t76 50t51 74.5t19 92t-19 92t-51 75t-76 51.5t-93 19.5zM1484 844q-79 0 -140.5 -42t-77.5 -124h432q-14 76 -74.5 121t-139.5 45z"/>
<glyph glyph-name="Scaron" horiz-adv-x="1261" unicode="Š" d="M332 2130l295 -229l295 229l157 -174l-452 -334l-447 334zM713 1249q-63 0 -117.5 -34.5t-54.5 -94.5q0 -82 75.5 -110.5t102.5 -36.5l102 -31q182 -57 281.5 -151.5t99.5 -270.5q0 -282 -166.5 -421.5t-445.5 -139.5t-529 176l172 324q76 -66 164 -113t179 -47 t149.5 38.5t58.5 117.5q0 103 -105.5 135t-168.5 50q-192 56 -289.5 138.5t-97.5 301.5t149 362t383 143q182 0 307 -49t177 -78l-160 -311q-119 102 -266 102z"/>
<glyph glyph-name="scaron" horiz-adv-x="1050" unicode="š" d="M227 1698l295 -230l295 230l158 -174l-453 -334l-446 334zM817 780q-95 51 -184 51q-133 -1 -133 -75q0 -58 115 -78t236.5 -73t121.5 -232q0 -212 -148 -310t-361 -98t-411 121l135 260q102 -70 181.5 -88t105.5 -18q54 0 89.5 20.5t35.5 54.5q0 35 -20.5 52.5t-53 29 t-74.5 19.5t-120 30.5t-138.5 81.5t-60.5 170q0 196 136 291.5t330 95.5t343 -67z"/>
<glyph glyph-name="Ydieresis" horiz-adv-x="1462" unicode="Ÿ" d="M1013 2071q85 0 143 -58.5t58 -143.5t-58 -142.5t-143 -57.5t-143.5 57.5t-58.5 142.5t58.5 143.5t143.5 58.5zM488 2071q85 0 143.5 -58.5t58.5 -143.5t-58.5 -142.5t-143.5 -57.5t-143 57.5t-58 142.5t58 143.5t143 58.5zM932 0h-402v741l-569 803h481l289 -420 l289 420h481l-569 -803v-741z"/>
<glyph glyph-name="circumflex" horiz-adv-x="1208" unicode="ˆ" d="M600 1698l453 -336l-158 -172l-295 227l-295 -227l-151 172z"/>
<glyph glyph-name="tilde" horiz-adv-x="1124" unicode="˜" d="M372 1581q48 0 94 -11t91 -23.5t86 -24t76 -11.5t50 20.5t28 53.5h174q-9 -123 -77 -223t-189 -100q-48 0 -123.5 25.5t-113.5 37.5t-75 12t-48 -23.5t-21 -51.5h-168l-2 22q0 177 85 237t133 60z"/>
<glyph glyph-name="endash" horiz-adv-x="1024" unicode="–" d="M1024 811v-307h-1024v307h1024z"/>
<glyph glyph-name="emdash" horiz-adv-x="2048" unicode="—" d="M1782 811v-307h-1516v307h1516z"/>
<glyph glyph-name="quoteleft" horiz-adv-x="761" unicode="‘" d="M39 866l377 678h237l-266 -678h-348z"/>
<glyph glyph-name="quotesinglbase" horiz-adv-x="692" unicode="‚" d="M653 391l-377 -678h-237l266 678h348z"/>
<glyph glyph-name="quotedblleft" horiz-adv-x="1286" unicode="“" d="M39 866l377 678h237l-266 -678h-348zM563 866l377 678h238l-267 -678h-348z"/>
<glyph glyph-name="quotedblright" horiz-adv-x="1286" unicode="”" d="M1247 1544l-377 -678h-237l266 678h348zM723 1544l-377 -678h-237l266 678h348z"/>
<glyph glyph-name="dagger" d="M872 1544v-420h363v-295h-363v-1198h-340v1198h-360v295h360v420h340z" unicode="†"/>
<glyph glyph-name="daggerdbl" d="M874 1544v-379h361v-295h-361v-290h361v-295h-361v-652h-339v652h-363v295h363v290h-363v295h363v379h339z" unicode="‡"/>
<glyph glyph-name="ellipsis" horiz-adv-x="2048" unicode="…" d="M342 438q49 0 93 -18.5t77 -51t51.5 -76.5t18.5 -93t-18.5 -93.5t-51.5 -76t-77 -51t-93 -19.5t-93 19.5t-77 51t-51.5 76t-18.5 93.5t18.5 93t51.5 76.5t77 51t93 18.5zM1706 438q49 0 93 -18.5t77 -51t51.5 -76.5t18.5 -93t-18.5 -93.5t-51.5 -76t-77 -51t-93 -19.5 t-93 19.5t-77 51t-51.5 76t-18.5 93.5t18.5 93t51.5 76.5t77 51t93 18.5zM1024 438q49 0 93 -18.5t77 -51t51.5 -76.5t18.5 -93t-18.5 -93.5t-51.5 -76t-77 -51t-93 -19.5t-93 19.5t-77 51t-51.5 76t-18.5 93.5t18.5 93t51.5 76.5t77 51t93 18.5z"/>
<glyph glyph-name="perthousand" horiz-adv-x="2990" unicode="‰" d="M2529.5 530q-71.5 0 -123 -51t-51.5 -122.5t51.5 -122t123 -50.5t122.5 50.5t51 122t-51 122.5t-122.5 51zM2951 358q0 -178 -119.5 -278t-302 -100t-302.5 100t-120 278t119.5 277.5t303 99.5t302.5 -99.5t119 -277.5zM1536 530q-72 0 -123 -51t-51 -122.5t51 -122 t123 -50.5t123 50.5t51 122t-51 122.5t-123 51zM1536 735q184 0 303 -100t119 -277t-119 -277.5t-303 -100.5t-303 100.5t-119 277.5t119 277t303 100zM1546 1544l-897 -1544h-200l897 1544h200zM460.5 1360q-71.5 0 -122.5 -51.5t-51 -123t51 -121.5t122.5 -50t123 50 t51.5 121.5t-51.5 123t-123 51.5zM763.5 1464.5q119.5 -100.5 119.5 -278.5q0 -177 -120 -277t-302.5 -100t-302 99.5t-119.5 277.5t119 278.5t302.5 100.5t303 -100.5z"/>
<glyph glyph-name="guilsinglleft" horiz-adv-x="724" unicode="‹" d="M616 299l-210 -147l-353 503l353 504l204 -141l-258 -363z"/>
<glyph glyph-name="guilsinglright" horiz-adv-x="724" unicode="›" d="M373 655l-258 363l204 141l353 -504l-353 -503l-210 147z"/>
<glyph glyph-name="trademark" horiz-adv-x="1925" unicode="™" d="M786 1384h-251v-667h-199v667h-252v160h702v-160zM1841 717h-180v667h-4l-240 -667h-106l-240 667h-4v-667h-180v827h291l186 -489l186 489h291v-827z"/>
</font>
</defs>
</svg>
