<?xml version="1.0" encoding="UTF-8"?>
<svg width="154px" height="50px" viewBox="0 0 154 50" version="1.1" xmlns="http://www.w3.org/2000/svg" xmlns:xlink="http://www.w3.org/1999/xlink">
    <!-- Generator: Sketch 47.1 (45422) - http://www.bohemiancoding.com/sketch -->
    <title>logo_alt</title>
    <desc>Created with Sketch.</desc>
    <defs>
        <polygon id="path-1" points="0.0515254237 34.9290847 0.0515254237 0.384723164 51.7375367 0.384723164 51.7375367 34.9290847"></polygon>
    </defs>
    <g id="sheilas_wheels_logo" stroke="none" stroke-width="1" fill="none" fill-rule="evenodd">
        <g id="logo_alt">
            <g id="SW-08-condensed" transform="translate(1.000000, 4.000000)">
                <polyline id="Fill-1" fill="#1A1919" points="142.971028 13.7375367 142.179254 12.704452 141.15991 13.1733333 141.079186 13.8981243 142.273718 14.3275028 142.984768 13.7375367"></polyline>
                <polyline id="Fill-2" fill="#1A1919" points="121.542463 8.35656497 120.737808 7.32348023 119.61026 7.98042938 119.717605 9.00063277 120.871774 9.2960452 121.542463 8.37030508"></polyline>
                <polyline id="Fill-3" fill="#1A1919" points="98.0211073 1.52687006 97.2696949 0.506666667 96.5045424 0.88280226 96.343096 1.6479548 97.3770395 2.38562712 98.0211073 1.53975141"></polyline>
                <polyline id="Fill-4" fill="#1A1919" points="41.3285424 1.51312994 40.5505085 0.506666667 39.799096 0.909423729 39.5715254 1.68745763 40.4028023 2.30490395 41.3422825 1.52687006"></polyline>
                <polyline id="Fill-5" fill="#1A1919" points="38.3632542 19.5607684 39.1146667 20.5672316 39.5440452 20.4057853 40.000904 19.8158192 40.0275254 19.4130621 39.2623729 19.1047684 38.5916836 19.1580113 38.3632542 19.5204068"></polyline>
                <polyline id="Fill-6" fill="#1A1919" points="110.218034 19.6140113 110.996068 20.6342147 111.573153 20.3121808 111.787842 19.4800452 111.304362 19.1717514 110.647412 19.279096 110.218034 19.5873898"></polyline>
                <polyline id="Fill-7" fill="#1A1919" points="143.947435 30.5511412 143.167684 29.5189153 141.765333 30.3330169 142.302056 31.460565 143.947435 30.5511412"></polyline>
                <polyline id="Fill-8" fill="#1A1919" points="137.203616 35.9552994 136.37148 34.8818531 135.632949 35.7002486 135.606328 36.1167458 136.519186 36.7067119 137.203616 35.9819209"></polyline>
                <polyline id="Fill-9" fill="#1A1919" points="114.835571 23.7583729 114.070418 22.7519096 113.587797 23.0335819 113.345627 23.7042712 114.030056 24.3887006 114.848452 23.7446328"></polyline>
                <polyline id="Fill-10" fill="#1A1919" points="46.5901469 23.7446328 45.7717514 22.6849266 44.9258757 23.1143051 44.7249266 23.959322 46.0130621 24.5501469 46.603887 23.7446328"></polyline>
                <polyline id="Fill-11" fill="#1A1919" points="24.3698079 23.6776497 23.5642938 22.644565 22.1834124 23.2611525 22.1026893 24.2006328 23.2302373 24.6712316 23.8871864 23.7042712"></polyline>
                <polyline id="Fill-12" fill="#1A1919" points="12.8976723 23.6776497 12.0921582 22.644565 11.1260565 23.1143051 11.1123164 23.7849944 12.3334689 24.3749605 12.8976723 23.6905311"></polyline>
                <polyline id="Fill-13" fill="#1A1919" points="43.9065311 41.7785311 44.6579435 42.7987345 45.2350282 42.5703051 45.5699435 42.1280452 45.6103051 41.2289266 44.4836158 41.0545989 44.1478418 41.6042034 43.9065311 41.7252881"></polyline>
                <polyline id="Fill-14" fill="#1A1919" points="149.237379 8.61161582 149.411706 7.94092655 149.371345 7.56479096 148.526328 7.45744633 148.029966 7.95380791 147.922621 8.38318644 148.593311 8.90702825 149.237379 8.61161582"></polyline>
                <polyline id="Fill-15" fill="#1A1919" points="84.0122034 8.6519774 84.1736497 7.96754802 83.5424633 7.60515254 82.9653785 7.64551412 82.6837062 7.95380791 82.5901017 8.16849718 82.5763616 8.58499435 83.1002034 9.01437288 83.9855819 8.63823729"></polyline>
                <path d="M30.8336723,4.40971751 L20.7862147,4.40971751 C19.7660113,4.40971751 18.9931299,4.87344633 18.6530621,5.86273446 L17.540113,9.10883616 L26.783774,9.10883616 C28.1131299,9.10883616 29.3497401,9.72714124 29.3497401,11.2110734 C29.3497401,11.520226 29.2879096,11.8293785 29.1951638,12.1385311 L27.3711638,17.5796158 C26.6291977,19.7436836 25.2380113,20.6093107 22.9811977,20.6093107 L10.367774,20.6093107 C9.03841808,20.6093107 7.80180791,20.0219209 7.80180791,18.5070734 C7.80180791,18.1979209 7.86363842,17.8887684 7.95638418,17.5796158 L19.0549605,17.5796158 C20.1060791,17.5796158 20.8480452,17.1777175 21.2190282,16.1884294 C21.3736045,15.8174463 22.2392316,13.2823955 22.2392316,13.096904 C22.2392316,13.0350734 22.1774011,13.0041582 22.1155706,13.0041582 L12.9646554,13.0041582 C11.6352994,13.0041582 10.3986893,12.3858531 10.3986893,10.9019209 C10.3986893,10.5618531 10.4605198,10.2527006 10.5532655,9.94354802 L12.4081808,4.40971751 C13.1501469,2.18381921 14.5104181,1.3800226 16.8290621,1.3800226 L35.1308927,1.3800226 C34.4198418,3.45134463 33.0286554,4.40971751 30.8336723,4.40971751" id="Fill-16" fill="#1A1919"></path>
                <path d="M39.6883164,6.72836158 L36.6277062,15.9101921 L35.5765876,19.0326328 C35.4529266,19.4345311 35.3601808,19.8982599 35.1746893,20.2692429 C35.0819435,20.4547345 34.9273672,20.6093107 34.7109605,20.6093107 L31.7740113,20.6093107 C30.4446554,20.6093107 29.2080452,19.9910056 29.2080452,18.5070734 C29.2080452,18.1979209 29.2698757,17.8887684 29.3626215,17.5796158 L34.6491299,1.75100565 C34.7109605,1.53459887 34.9273672,1.3800226 35.143774,1.3800226 L41.0795028,1.3800226 C41.2031638,1.3800226 41.3577401,1.47276836 41.3577401,1.62734463 C41.3577401,1.75100565 39.8119774,6.38829379 39.6883164,6.72836158" id="Fill-17" fill="#1A1919"></path>
                <path d="M64.9048588,11.272904 L60.5458079,11.272904 C60.4530621,11.272904 60.4221469,11.3347345 60.3912316,11.396565 C60.3294011,11.520226 59.711096,13.4060565 59.711096,13.467887 C59.711096,13.5297175 59.7729266,13.591548 59.8347571,13.591548 L64.1938079,13.591548 C64.3174689,13.591548 64.4102147,13.4988023 64.4411299,13.4060565 C64.5029605,13.2514802 65.0903503,11.4893107 65.0903503,11.4274802 C65.0903503,11.3347345 64.9976045,11.272904 64.9048588,11.272904 Z M70.5623503,20.6093107 L54.0536045,20.6093107 C52.7233898,20.6093107 51.4876384,19.9910056 51.4876384,18.5070734 C51.4876384,18.1979209 51.5494689,17.8887684 51.6422147,17.5796158 L53.7753672,11.272904 C54.5173333,9.04700565 55.8466893,8.24320904 58.1653333,8.24320904 L69.4184859,8.24320904 C70.7478418,8.24320904 71.984452,8.86151412 71.984452,10.3454463 C71.984452,10.6545989 71.9226215,10.9637514 71.8298757,11.272904 L70.5623503,15.044565 C70.531435,15.1373107 70.4386893,15.2300565 70.3150282,15.2300565 L59.3091977,15.2300565 C59.1546215,15.2300565 59.0919322,15.3228023 59.0309605,15.4464633 C58.9691299,15.5701243 58.3817401,17.3941243 58.3817401,17.4250395 C58.3817401,17.5177853 58.4744859,17.5796158 58.5672316,17.5796158 L74.9832316,17.5796158 C74.2103503,19.8364294 72.8809944,20.6093107 70.5623503,20.6093107 L70.5623503,20.6093107 Z" id="Fill-18" fill="#1A1919"></path>
                <path d="M82.3736949,20.6651299 L76.6543729,20.6651299 C75.3241582,20.6651299 74.087548,20.0468249 74.087548,18.5628927 C74.087548,18.2537401 74.1502373,17.9445876 74.2429831,17.635435 L76.2833898,11.5451299 C76.2833898,11.5142147 76.2833898,11.4832994 76.2833898,11.4523842 C76.2833898,11.3596384 76.1906441,11.2978079 76.0978983,11.2978079 L71.7998192,11.3287232 C71.7070734,11.3287232 71.6761582,11.2359774 71.6761582,11.1741469 C71.6761582,11.1432316 72.5108701,8.60818079 72.5735593,8.48451977 C72.6345311,8.39177401 72.6963616,8.29902825 72.8200226,8.29902825 L83.8267119,8.29902825 C83.8567684,8.29902825 83.9812881,8.3299435 83.9812881,8.39177401 C83.9812881,8.73184181 81.383548,16.3060791 81.0134237,17.388113 C81.0134237,17.4190282 80.9825085,17.4808588 80.9825085,17.4808588 C80.9825085,17.5736045 81.0752542,17.635435 81.168,17.635435 L86.7945763,17.635435 C86.0526102,19.8613333 84.6614237,20.6651299 82.3736949,20.6651299" id="Fill-19" fill="#1A1919"></path>
                <path d="M97.1898305,20.6093107 L88.4717288,20.6093107 C87.1423729,20.6093107 85.9057627,19.9910056 85.9057627,18.5070734 C85.9057627,18.1979209 85.9675932,17.8887684 86.060339,17.5796158 L91.3468475,1.75100565 C91.408678,1.53459887 91.6250847,1.3800226 91.8414915,1.3800226 L97.7772203,1.3800226 C97.9008814,1.3800226 98.0554576,1.47276836 98.0554576,1.62734463 C98.0554576,1.7200904 97.1288588,4.50246328 97.0352542,4.71887006 C95.6440678,8.95425989 94.2219661,13.1896497 92.7998644,17.4559548 C92.8307797,17.5177853 92.8926102,17.5796158 92.9853559,17.5796158 L101.610712,17.5796158 C100.837831,19.7745989 99.4775593,20.6093107 97.1898305,20.6093107" id="Fill-20" fill="#1A1919"></path>
                <path d="M109.643525,11.3287232 C109.549921,11.3287232 109.519864,11.3905537 109.488949,11.4523842 C109.303458,11.8542825 107.479458,17.4499435 107.479458,17.4808588 C107.479458,17.5736045 107.572203,17.635435 107.664949,17.635435 L112.054056,17.635435 C111.312949,19.8922486 109.952678,20.6651299 107.634034,20.6651299 L103.151322,20.6651299 C101.821107,20.6651299 100.585356,20.0468249 100.585356,18.5628927 C100.585356,18.2537401 100.647186,17.9445876 100.739932,17.635435 L102.873085,11.3287232 C103.584136,9.19557062 105.037153,8.29902825 107.263051,8.29902825 L110.540068,8.29902825 C112.364927,8.29902825 114.033492,9.38106215 114.158011,11.3287232 L109.643525,11.3287232" id="Fill-21" fill="#1A1919"></path>
                <path d="M145.383277,11.3012429 L132.491616,11.3012429 C132.399729,11.3012429 132.337898,11.3321582 132.305266,11.424904 L131.625989,13.4653107 C131.594215,13.5580565 131.718734,13.619887 131.780565,13.619887 L142.786395,13.619887 C142.849085,13.619887 142.940972,13.6508023 142.940972,13.743548 C142.940972,13.8663503 141.827164,17.1751412 141.673446,17.6079548 C140.93148,19.7720226 139.633898,20.6376497 137.346169,20.6376497 L125.906667,20.6376497 C124.576452,20.6376497 123.340701,20.0502599 123.340701,18.5354124 C123.340701,18.2262599 123.402531,17.9171073 123.495277,17.6079548 L134.779345,17.6079548 C134.903864,17.6079548 134.995751,17.5461243 135.057582,17.4224633 C135.120271,17.3297175 135.706802,15.4748023 135.706802,15.4129718 C135.706802,15.320226 135.644972,15.2583955 135.553085,15.2583955 L127.792497,15.2583955 C126.464,15.2583955 125.225672,14.6710056 125.225672,13.1862147 C125.225672,12.5378531 125.473853,11.919548 125.69026,11.3012429 C126.464,9.04442938 127.761582,8.27154802 130.112,8.27154802 L149.650441,8.27154802 C148.93939,10.3428701 147.546486,11.3012429 145.383277,11.3012429" id="Fill-22" fill="#1A1919"></path>
                <path d="M119.949469,20.6230508 L111.075932,20.6230508 C110.982328,20.6230508 110.890441,20.5612203 110.890441,20.4684746 C110.890441,20.2829831 114.47661,9.52447458 114.909424,8.38061017 C114.941198,8.28786441 114.971254,8.25694915 115.063141,8.25694915 L121.339797,8.25694915 C121.431684,8.25694915 121.526147,8.31877966 121.526147,8.41152542 C121.526147,8.68976271 118.927548,16.295774 118.589198,17.3460339 C118.589198,17.3769492 118.557424,17.4396384 118.557424,17.4396384 C118.557424,17.5624407 118.681085,17.5933559 118.773831,17.5933559 L124.368633,17.5933559 C123.627525,19.8192542 122.237198,20.6230508 119.949469,20.6230508" id="Fill-23" fill="#1A1919"></path>
                <path d="M83.8988475,8.2500791 C83.7777627,8.31534463 83.6661243,8.31276836 83.564791,8.24235028 L78.4491751,4.65961582 C78.3736045,4.60723164 78.3581469,4.52049718 78.4113898,4.44492655 C78.428565,4.4200226 78.9781695,4.01211299 79.0219661,4.00438418 C79.5715706,3.59647458 80.0876836,3.12759322 80.6699209,2.78151412 C80.7489266,2.72311864 80.895774,2.67502825 80.9971073,2.74630508 L86.1384859,6.34535593 C86.2140565,6.39859887 86.1857175,6.49220339 86.1505085,6.54372881 C86.1333333,6.56863277 84.020791,8.1839548 83.8988475,8.2500791" id="Fill-24" fill="#1A1919"></path>
                <polyline id="Fill-25" fill="#1A1919" points="146.701469 6.03362712 149.286328 3.44962712 151.869469 6.0860113 149.259706 8.64424859"></polyline>
                <path d="M48.0268475,20.5818305 L39.2778305,20.5818305 C39.1541695,20.5818305 38.9995932,20.52 38.9995932,20.3654237 C38.9995932,20.1799322 41.1327458,13.8732203 41.3491525,13.1930847 C41.3800678,13.0994802 41.9365424,11.4927458 41.9365424,11.4609718 C41.9365424,11.3381695 41.9056271,11.2145085 41.7510508,11.2145085 L37.392,11.2145085 C38.1339661,8.98861017 39.4942373,8.21572881 41.7819661,8.21572881 L46.264678,8.21572881 C47.5940339,8.21572881 48.8306441,8.80225989 48.8306441,10.3171073 C48.8306441,10.6271186 48.7688136,10.9362712 48.6760678,11.244565 L46.6665763,17.3048136 C46.6665763,17.3348701 46.635661,17.3967006 46.635661,17.3967006 C46.635661,17.4903051 46.7284068,17.5521356 46.8211525,17.5521356 L52.4477288,17.5521356 C51.7057627,19.7780339 50.3145763,20.5818305 48.0268475,20.5818305" id="Fill-26" fill="#1A1919"></path>
                <path d="M34.9213559,26.7013333 L30.5631638,39.8720904 C29.852113,42.0352994 28.4600678,42.9009266 26.2032542,42.9009266 L3.41871186,42.9009266 C2.08935593,42.9009266 0.883661017,42.2834802 0.883661017,40.799548 C0.883661017,40.4903955 0.945491525,40.1803842 1.03823729,39.8720904 L6.32474576,23.8880452 C6.35566102,23.7635254 6.47932203,23.6716384 6.60298305,23.6716384 L12.8478644,23.6716384 C12.9406102,23.6716384 13.0024407,23.7334689 13.0024407,23.8262147 C13.0024407,23.8880452 12.4150508,25.6811299 12.3532203,25.7738757 C11.3330169,28.9590056 10.2818983,32.1123616 9.23077966,35.2974915 L8.27240678,38.1717514 C8.11783051,38.636339 7.90142373,39.1301243 7.77776271,39.6239096 C7.77776271,39.6556836 7.77776271,39.6556836 7.77776271,39.6857401 C7.77776271,39.7793446 7.87050847,39.8720904 7.96325424,39.8720904 L12.5077966,39.8720904 L17.7943051,23.8880452 C17.8252203,23.7635254 17.9488814,23.6716384 18.0725424,23.6716384 L24.3174237,23.6716384 C24.4410847,23.6716384 24.472,23.7961582 24.472,23.8880452 C24.472,23.9181017 23.4827119,26.7949379 23.4208814,26.9795706 C23.0189831,28.1852655 19.2164068,39.3774463 19.2164068,39.7175141 C19.2164068,39.8094011 19.3091525,39.8720904 19.4018983,39.8720904 L23.6991186,39.8720904 C23.8227797,39.8720904 23.9464407,39.8094011 23.9773559,39.6857401 L29.2329492,23.8880452 C29.2638644,23.7635254 29.3883842,23.6716384 29.5111864,23.6716384 L41.9090621,23.6716384 C40.7342825,27.1959774 37.9510508,26.7013333 34.9213559,26.7013333" id="Fill-27" fill="#1A1919"></path>
                <path d="M45.0297853,29.0208362 L41.9683164,38.2035254 L40.9171977,41.3242486 C40.7935367,41.7270056 40.700791,42.1898757 40.5161582,42.5608588 C40.4225537,42.7463503 40.2688362,42.9009266 40.0524294,42.9009266 L37.1154802,42.9009266 C35.7852655,42.9009266 34.5486554,42.2834802 34.5486554,40.799548 C34.5486554,40.4903955 34.6113446,40.1803842 34.7032316,39.8720904 L39.9897401,24.0426215 C40.0524294,23.8262147 40.2688362,23.6716384 40.4852429,23.6716384 L46.420113,23.6716384 C46.5446328,23.6716384 46.6983503,23.7635254 46.6983503,23.9181017 C46.6983503,24.0426215 45.1525876,28.6799096 45.0297853,29.0208362" id="Fill-28" fill="#1A1919"></path>
                <path d="M70.8474576,33.5662373 L66.4884068,33.5662373 C66.3948023,33.5662373 66.3647458,33.6280678 66.3329718,33.6881808 C66.272,33.8127006 65.6536949,35.6993898 65.6536949,35.7603616 C65.6536949,35.8221921 65.7155254,35.8840226 65.7773559,35.8840226 L70.1364068,35.8840226 C70.259209,35.8840226 70.3528136,35.7921356 70.3837288,35.6993898 C70.4455593,35.5439548 71.0320904,33.7826441 71.0320904,33.7208136 C71.0320904,33.6280678 70.9402034,33.5662373 70.8474576,33.5662373 Z M76.5049492,42.9009266 L59.9962034,42.9009266 C58.6659887,42.9009266 57.4302373,42.2834802 57.4302373,40.799548 C57.4302373,40.4903955 57.4920678,40.1803842 57.5839548,39.8720904 L59.7179661,33.5662373 C60.4590734,31.3386215 61.7892881,30.5356836 64.1070734,30.5356836 L75.3610847,30.5356836 C76.6895819,30.5356836 77.9279096,31.1539887 77.9279096,32.6387797 C77.9279096,32.9470734 77.8652203,33.256226 77.7716158,33.5662373 L76.5049492,37.3370395 C76.4731751,37.4306441 76.3812881,37.5225311 76.2567684,37.5225311 L65.2509379,37.5225311 C65.0963616,37.5225311 65.0345311,37.6152768 64.9727006,37.7389379 C64.9117288,37.8634576 64.3234802,39.6857401 64.3234802,39.7175141 C64.3234802,39.8094011 64.4170847,39.8720904 64.5098305,39.8720904 L80.9249718,39.8720904 C80.1538079,42.1280452 78.8235932,42.9009266 76.5049492,42.9009266 L76.5049492,42.9009266 Z" id="Fill-29" fill="#1A1919"></path>
                <path d="M93.5933559,33.5662373 L89.2343051,33.5662373 C89.1407006,33.5662373 89.1106441,33.6280678 89.0780113,33.6881808 C89.0178983,33.8127006 88.3987345,35.6993898 88.3987345,35.7603616 C88.3987345,35.8221921 88.4614237,35.8840226 88.5232542,35.8840226 L92.8823051,35.8840226 C93.0051073,35.8840226 93.0987119,35.7921356 93.1287684,35.6993898 C93.1914576,35.5439548 93.7779887,33.7826441 93.7779887,33.7208136 C93.7779887,33.6280678 93.6861017,33.5662373 93.5933559,33.5662373 Z M99.2508475,42.9009266 L82.7421017,42.9009266 C81.411887,42.9009266 80.1752768,42.2834802 80.1752768,40.799548 C80.1752768,40.4903955 80.2379661,40.1803842 80.3298531,39.8720904 L82.4630056,33.5662373 C83.2049718,31.3386215 84.5343277,30.5356836 86.8529718,30.5356836 L98.1069831,30.5356836 C99.4354802,30.5356836 100.672949,31.1539887 100.672949,32.6387797 C100.672949,32.9470734 100.611119,33.256226 100.517514,33.5662373 L99.2508475,37.3370395 C99.2190734,37.4306441 99.1271864,37.5225311 99.0026667,37.5225311 L87.9968362,37.5225311 C87.8422599,37.5225311 87.7804294,37.6152768 87.7185989,37.7389379 C87.6576271,37.8634576 87.0693785,39.6857401 87.0693785,39.7175141 C87.0693785,39.8094011 87.1629831,39.8720904 87.2548701,39.8720904 L103.67087,39.8720904 C102.898847,42.1280452 101.568633,42.9009266 99.2508475,42.9009266 L99.2508475,42.9009266 Z" id="Fill-30" fill="#1A1919"></path>
                <path d="M114.093605,42.9378531 L105.376362,42.9378531 C104.046147,42.9378531 102.810395,42.3204068 102.810395,40.8364746 C102.810395,40.527322 102.872226,40.2173107 102.964113,39.9090169 L108.25148,24.079548 C108.313311,23.8631412 108.529718,23.708565 108.746124,23.708565 L114.680994,23.708565 C114.805514,23.708565 114.959232,23.800452 114.959232,23.9550282 C114.959232,24.0486328 114.031774,26.8318644 113.939887,27.0482712 C112.547842,31.283661 111.124881,35.5199096 109.703638,39.7844972 C109.735412,39.8463277 109.797243,39.9090169 109.889989,39.9090169 L118.515345,39.9090169 C117.741605,42.104 116.381333,42.9378531 114.093605,42.9378531" id="Fill-31" fill="#1A1919"></path>
                <path d="M139.717198,33.6031638 L126.824678,33.6031638 C126.731932,33.6031638 126.670102,33.6332203 126.640045,33.7259661 L125.959051,35.7663729 C125.928994,35.8591186 126.052655,35.9209492 126.114486,35.9209492 L137.121175,35.9209492 C137.183006,35.9209492 137.27661,35.9527232 137.27661,36.0454689 C137.27661,36.1691299 136.163661,39.4762034 136.009085,39.9090169 C135.26626,42.072226 133.967819,42.9378531 131.678373,42.9378531 L120.239729,42.9378531 C118.911232,42.9378531 117.674621,42.3504633 117.674621,40.8364746 C117.674621,40.527322 117.735593,40.2173107 117.829198,39.9090169 L129.112407,39.9090169 C129.236068,39.9090169 129.328814,39.8463277 129.390644,39.7226667 C129.452475,39.6299209 130.039864,37.7758644 130.039864,37.7140339 C130.039864,37.6221469 129.978893,37.5594576 129.885288,37.5594576 L122.126418,37.5594576 C120.796203,37.5594576 119.560452,36.9729266 119.560452,35.4881356 C119.560452,34.8389153 119.806915,34.2206102 120.023322,33.6031638 C120.796203,31.3454915 122.094644,30.5726102 124.444203,30.5726102 L143.982644,30.5726102 C143.271593,32.6439322 141.881266,33.6031638 139.717198,33.6031638" id="Fill-32" fill="#1A1919"></path>
                <path d="M53.687774,42.9181017 L44.9396158,42.9181017 C44.815096,42.9181017 44.6605198,42.8554124 44.6605198,42.7016949 C44.6605198,42.5170621 46.7945311,36.2094915 47.0109379,35.5302147 C47.0427119,35.4383277 47.5974689,33.8298757 47.5974689,33.7989605 C47.5974689,33.6752994 47.5674124,33.5507797 47.4128362,33.5507797 L43.0537853,33.5507797 C43.7957514,31.3248814 45.1560226,30.552 47.4437514,30.552 L51.9264633,30.552 C53.2549605,30.552 54.4932881,31.1411073 54.4932881,32.655096 C54.4932881,32.9642486 54.4305989,33.2725424 54.3387119,33.5825537 L52.3275028,39.640226 C52.3275028,39.672 52.2974463,39.7346893 52.2974463,39.7346893 C52.2974463,39.8265763 52.3893333,39.8884068 52.4837966,39.8884068 L58.1086554,39.8884068 C57.367548,42.1143051 55.9755028,42.9181017 53.687774,42.9181017" id="Fill-33" fill="#1A1919"></path>
                <path d="M30.1234802,3.44876836 L20.0760226,3.44876836 C19.0558192,3.44876836 18.2829379,3.91249718 17.9428701,4.90178531 L16.8299209,8.14788701 L26.0735819,8.14788701 C27.4029379,8.14788701 28.639548,8.76705085 28.639548,10.2509831 C28.639548,10.5601356 28.5777175,10.8684294 28.4849718,11.1775819 L26.6609718,16.6195254 C25.9190056,18.7835932 24.5278192,19.6492203 22.2710056,19.6492203 L9.65758192,19.6492203 C8.32822599,19.6492203 7.09161582,19.0609718 7.09161582,17.5461243 C7.09161582,17.2369718 7.15344633,16.928678 7.24619209,16.6195254 L18.3447684,16.6195254 C19.395887,16.6195254 20.1378531,16.2176271 20.5088362,15.2274802 C20.6634124,14.8573559 21.5290395,12.3214463 21.5290395,12.1368136 C21.5290395,12.0749831 21.467209,12.043209 21.4053785,12.043209 L12.2544633,12.043209 C10.9251073,12.043209 9.68849718,11.4257627 9.68849718,9.94097175 C9.68849718,9.60090395 9.75032768,9.29175141 9.84307345,8.98345763 L11.6979887,3.44876836 C12.4399548,1.22287006 13.800226,0.419073446 16.1188701,0.419073446 L34.4207006,0.419073446 C33.7096497,2.49039548 32.3184633,3.44876836 30.1234802,3.44876836" id="Fill-34" fill="#FFFFFF"></path>
                <path d="M38.9781243,5.76827119 L35.9175141,14.9492429 L34.8663955,18.0725424 C34.7418757,18.4735819 34.6499887,18.9381695 34.4644972,19.3082938 C34.3717514,19.4937853 34.2171751,19.6492203 34.0007684,19.6492203 L31.0638192,19.6492203 C29.7344633,19.6492203 28.4978531,19.0300565 28.4978531,17.5461243 C28.4978531,17.2369718 28.5596836,16.928678 28.6524294,16.6195254 L33.9380791,0.790056497 C34.0007684,0.573649718 34.2171751,0.419073446 34.4335819,0.419073446 L40.3693107,0.419073446 C40.4929718,0.419073446 40.6466893,0.511819209 40.6466893,0.66639548 C40.6466893,0.790056497 39.1017853,5.42734463 38.9781243,5.76827119" id="Fill-35" fill="#FFFFFF"></path>
                <path d="M64.1938079,10.3119548 L59.8356158,10.3119548 C59.7420113,10.3119548 59.7119548,10.3737853 59.6810395,10.4356158 C59.619209,10.5601356 59.000904,12.4451073 59.000904,12.5077966 C59.000904,12.5696271 59.0618757,12.6314576 59.124565,12.6314576 L63.4836158,12.6314576 C63.6072768,12.6314576 63.7000226,12.5378531 63.7300791,12.4451073 C63.7927684,12.2913898 64.3801582,10.5283616 64.3801582,10.4665311 C64.3801582,10.3737853 64.2874124,10.3119548 64.1938079,10.3119548 Z M69.8521582,19.6492203 L53.3434124,19.6492203 C52.0131977,19.6492203 50.7765876,19.0300565 50.7765876,17.5461243 C50.7765876,17.2369718 50.8392768,16.928678 50.9320226,16.6195254 L53.0643164,10.3119548 C53.8071412,8.0860565 55.1364972,7.28225989 57.4551412,7.28225989 L68.7082938,7.28225989 C70.0376497,7.28225989 71.2742599,7.90056497 71.2742599,9.38449718 C71.2742599,9.69364972 71.2124294,10.0028023 71.1196836,10.3119548 L69.8521582,14.0836158 C69.8212429,14.1763616 69.7284972,14.2691073 69.6048362,14.2691073 L58.5990056,14.2691073 C58.4444294,14.2691073 58.3817401,14.3627119 58.3207684,14.4855141 C58.2580791,14.6091751 57.671548,16.4340339 57.671548,16.4640904 C57.671548,16.5568362 57.7642938,16.6195254 57.8570395,16.6195254 L74.2730395,16.6195254 C73.5001582,18.8754802 72.1699435,19.6492203 69.8521582,19.6492203 L69.8521582,19.6492203 Z" id="Fill-36" fill="#FFFFFF"></path>
                <path d="M81.6635028,19.7041808 L75.9441808,19.7041808 C74.6139661,19.7041808 73.3773559,19.0858757 73.3773559,17.6019435 C73.3773559,17.292791 73.4400452,16.9836384 73.5319322,16.6753446 L75.572339,10.5841808 C75.572339,10.5532655 75.572339,10.523209 75.572339,10.491435 C75.572339,10.3986893 75.480452,10.3368588 75.3877062,10.3368588 L71.0896271,10.367774 C70.9968814,10.367774 70.9659661,10.2750282 70.9659661,10.2131977 C70.9659661,10.1822825 71.800678,7.64723164 71.8633672,7.52442938 C71.924339,7.43082486 71.9861695,7.3380791 72.1098305,7.3380791 L83.1165198,7.3380791 C83.1465763,7.3380791 83.271096,7.36899435 83.271096,7.43082486 C83.271096,7.77089266 80.6733559,15.3451299 80.3032316,16.4271638 C80.3032316,16.4580791 80.2723164,16.5199096 80.2723164,16.5199096 C80.2723164,16.6135141 80.3650621,16.6753446 80.4569492,16.6753446 L86.0843842,16.6753446 C85.3424181,18.9012429 83.9512316,19.7041808 81.6635028,19.7041808" id="Fill-37" fill="#FFFFFF"></path>
                <path d="M96.4796384,19.6492203 L87.7615367,19.6492203 C86.431322,19.6492203 85.1955706,19.0300565 85.1955706,17.5461243 C85.1955706,17.2369718 85.2574011,16.928678 85.3501469,16.6195254 L90.6366554,0.790056497 C90.6984859,0.573649718 90.9148927,0.419073446 91.1312994,0.419073446 L97.0670282,0.419073446 C97.1906893,0.419073446 97.3444068,0.511819209 97.3444068,0.66639548 C97.3444068,0.759141243 96.4178079,3.54151412 96.3250621,3.75877966 C94.9338757,7.99416949 93.511774,12.2287006 92.0896723,16.4958644 C92.1197288,16.5568362 92.1824181,16.6195254 92.2751638,16.6195254 L100.90052,16.6195254 C100.127638,18.8136497 98.7673672,19.6492203 96.4796384,19.6492203" id="Fill-38" fill="#FFFFFF"></path>
                <path d="M108.933333,10.367774 C108.839729,10.367774 108.809672,10.4296045 108.778757,10.491435 C108.593266,10.8941921 106.769266,16.4889944 106.769266,16.5199096 C106.769266,16.6135141 106.862011,16.6753446 106.954757,16.6753446 L111.343864,16.6753446 C110.602757,18.9312994 109.242486,19.7041808 106.923842,19.7041808 L102.44113,19.7041808 C101.110915,19.7041808 99.8751638,19.0858757 99.8751638,17.6019435 C99.8751638,17.292791 99.9369944,16.9836384 100.028881,16.6753446 L102.162893,10.367774 C102.873944,8.23548023 104.326102,7.3380791 106.552859,7.3380791 L109.829876,7.3380791 C111.653876,7.3380791 113.322441,8.42011299 113.446102,10.367774 L108.933333,10.367774" id="Fill-39" fill="#FFFFFF"></path>
                <path d="M131.780565,10.3402938 C131.688678,10.3402938 131.625989,10.371209 131.595932,10.4648136 L130.914938,12.5043616 C130.884881,12.5971073 131.009401,12.6589379 131.071232,12.6589379 L142.075345,12.6589379 C142.138034,12.6589379 142.231638,12.6898531 142.231638,12.7825989 C142.231638,12.9062599 141.117831,16.2141921 140.963254,16.6470056 C140.220429,18.8110734 138.921989,19.6767006 136.63426,19.6767006 L125.195616,19.6767006 C123.867119,19.6767006 122.631367,19.0893107 122.631367,17.5744633 C122.631367,17.2653107 122.693198,16.9561582 122.785085,16.6470056 L134.068294,16.6470056 C134.192814,16.6470056 134.284701,16.5851751 134.346531,16.4615141 C134.40922,16.3687684 134.995751,14.5129944 134.995751,14.4520226 C134.995751,14.3592768 134.935638,14.2965876 134.842034,14.2965876 L127.082305,14.2965876 C125.752949,14.2965876 124.516339,13.7100565 124.516339,12.2252655 C124.516339,11.5760452 124.762802,10.9594576 124.979209,10.3402938 C125.752949,8.08348023 127.050531,7.31145763 129.400949,7.31145763 L148.93939,7.31145763 C148.22748,9.3819209 146.837153,10.3402938 144.673944,10.3402938 L131.780565,10.3402938 Z" id="Fill-40" fill="#FFFFFF"></path>
                <path d="M119.238418,19.6621017 L110.36574,19.6621017 C110.272994,19.6621017 110.180249,19.6002712 110.180249,19.5083842 C110.180249,19.3220339 113.767277,8.56438418 114.199232,7.42051977 C114.230147,7.32691525 114.261921,7.296 114.353808,7.296 L120.630463,7.296 C120.72235,7.296 120.815096,7.35783051 120.815096,7.45057627 C120.815096,7.72881356 118.218215,15.3348249 117.878147,16.3850847 C117.878147,16.4168588 117.847232,16.479548 117.847232,16.479548 C117.847232,16.6014915 117.970034,16.6332655 118.063638,16.6332655 L123.659299,16.6332655 C122.918192,18.8591638 121.526147,19.6621017 119.238418,19.6621017" id="Fill-41" fill="#FFFFFF"></path>
                <path d="M82.960226,7.61116384 C82.8391412,7.67728814 82.7275028,7.67471186 82.6261695,7.60343503 L77.5105537,4.02155932 C77.4341243,3.96831638 77.4195254,3.88244068 77.4727684,3.80687006 C77.4899435,3.78110734 78.039548,3.3740565 78.0833446,3.36546893 C78.6329492,2.95755932 79.1490621,2.48867797 79.7321582,2.14259887 C79.8103051,2.08506215 79.9571525,2.03611299 80.0593446,2.10738983 L85.1998644,5.70729944 C85.275435,5.75968362 85.2479548,5.85328814 85.2127458,5.90481356 C85.1947119,5.92971751 83.0821695,7.54503955 82.960226,7.61116384" id="Fill-42" fill="#FFFFFF"></path>
                <polyline id="Fill-43" fill="#FFFFFF" points="145.883073 5.18088136 148.467932 2.5960226 151.051932 5.23326554 148.440452 7.79064407"></polyline>
                <g id="Group-47" transform="translate(0.000000, 6.870056)">
                    <mask id="mask-2" fill="white">
                        <use xlink:href="#path-1"></use>
                    </mask>
                    <g id="Clip-45"></g>
                    <path d="M47.3166554,12.7516836 L38.5676384,12.7516836 C38.4439774,12.7516836 38.2894011,12.6889944 38.2894011,12.5352768 C38.2894011,12.3489266 40.4225537,6.04221469 40.6389605,5.3620791 C40.6698757,5.26933333 41.2263503,3.66259887 41.2263503,3.63082486 C41.2263503,3.50716384 41.195435,3.38350282 41.04,3.38350282 L36.6818079,3.38350282 C37.423774,1.15846328 38.7840452,0.384723164 41.071774,0.384723164 L45.5544859,0.384723164 C46.8838418,0.384723164 48.120452,0.972112994 48.120452,2.48696045 C48.120452,2.79611299 48.0586215,3.10526554 47.9658757,3.41441808 L45.9563842,9.47380791 C45.9563842,9.50386441 45.9246102,9.56655367 45.9246102,9.56655367 C45.9246102,9.65929944 46.0182147,9.72112994 46.1109605,9.72112994 L51.7375367,9.72112994 C50.9955706,11.9470282 49.6043842,12.7516836 47.3166554,12.7516836" id="Fill-44" fill="#FFFFFF" mask="url(#mask-2)"></path>
                    <path d="M34.0385537,18.7269153 L29.6812203,31.8993898 C28.968452,34.0634576 27.5764068,34.9290847 25.3187345,34.9290847 L2.53505085,34.9290847 C1.20569492,34.9290847 0,34.3099209 0,32.8259887 C0,32.5168362 0.0618305085,32.2085424 0.154576271,31.8993898 L5.44108475,15.9136271 C5.472,15.7916836 5.59566102,15.6972203 5.71932203,15.6972203 L11.9642034,15.6972203 C12.0569492,15.6972203 12.1196384,15.7599096 12.1196384,15.8535141 C12.1196384,15.9136271 11.5313898,17.7084294 11.4695593,17.8011751 C10.4484972,20.9828701 9.39823729,24.1379435 8.34711864,27.3230734 L7.38874576,30.1999096 C7.23416949,30.6627797 7.01776271,31.1574237 6.89410169,31.6520678 C6.89410169,31.6829831 6.89410169,31.6829831 6.89410169,31.7147571 C6.89410169,31.8066441 6.98684746,31.8993898 7.07959322,31.8993898 L11.6249944,31.8993898 L16.9115028,15.9136271 C16.9415593,15.7916836 17.0660791,15.6972203 17.1888814,15.6972203 L23.4337627,15.6972203 C23.5582825,15.6972203 23.588339,15.8217401 23.588339,15.9136271 C23.588339,15.9454011 22.5981921,18.8188023 22.5363616,19.0051525 C22.135322,20.2108475 18.3327458,31.403887 18.3327458,31.7448136 C18.3327458,31.8384181 18.4254915,31.8993898 18.5182373,31.8993898 L22.8145989,31.8993898 C22.9391186,31.8993898 23.0627797,31.8384181 23.0936949,31.7147571 L28.3501469,15.9136271 C28.3802034,15.7916836 28.5038644,15.6972203 28.6283842,15.6972203 L41.0254011,15.6972203 C39.8514802,19.2215593 37.0691073,18.7269153 34.0385537,18.7269153" id="Fill-46" fill="#FFFFFF" mask="url(#mask-2)"></path>
                </g>
                <path d="M44.1469831,27.9147571 L41.0863729,37.1000226 L40.0343955,40.2224633 C39.9107345,40.6235028 39.8179887,41.0880904 39.6333559,41.4582147 C39.5397514,41.644565 39.3851751,41.7991412 39.1687684,41.7991412 L36.2318192,41.7991412 C34.9024633,41.7991412 33.6658531,41.1799774 33.6658531,39.6960452 C33.6658531,39.3868927 33.7276836,39.0785989 33.8204294,38.7694463 L39.1069379,22.9399774 C39.1687684,22.7235706 39.3851751,22.5672768 39.6015819,22.5672768 L45.5373107,22.5672768 C45.6618305,22.5672768 45.8164068,22.6617401 45.8164068,22.8154576 C45.8164068,22.9399774 44.2697853,27.5738305 44.1469831,27.9147571" id="Fill-48" fill="#FFFFFF"></path>
                <path d="M69.9655141,32.4627345 L65.6064633,32.4627345 C65.5128588,32.4627345 65.4819435,32.524565 65.4501695,32.5863955 C65.3900565,32.7109153 64.7708927,34.595887 64.7708927,34.6577175 C64.7708927,34.7204068 64.8335819,34.7822373 64.8954124,34.7822373 L69.2544633,34.7822373 C69.3772655,34.7822373 69.4708701,34.6886328 69.5009266,34.595887 C69.5627571,34.4421695 70.1501469,32.6791412 70.1501469,32.616452 C70.1501469,32.524565 70.0582599,32.4627345 69.9655141,32.4627345 Z M75.6230056,41.7991412 L59.1134011,41.7991412 C57.7840452,41.7991412 56.547435,41.1799774 56.547435,39.6960452 C56.547435,39.3868927 56.6092655,39.0785989 56.7020113,38.7694463 L58.8351638,32.4627345 C59.5762712,30.2351186 60.9064859,29.4304633 63.2242712,29.4304633 L74.4791412,29.4304633 C75.8076384,29.4304633 77.0451073,30.0487684 77.0451073,31.5352768 C77.0451073,31.8452881 76.9832768,32.1535819 76.8896723,32.4627345 L75.6230056,36.2343955 C75.5912316,36.3271412 75.4984859,36.4207458 75.3748249,36.4207458 L64.3689944,36.4207458 C64.2144181,36.4207458 64.1525876,36.5134915 64.0898983,36.6371525 C64.0297853,36.7599548 63.440678,38.5848136 63.440678,38.6148701 C63.440678,38.7084746 63.5351412,38.7694463 63.6270282,38.7694463 L80.0430282,38.7694463 C79.2718644,41.0254011 77.940791,41.7991412 75.6230056,41.7991412 L75.6230056,41.7991412 Z" id="Fill-49" fill="#FFFFFF"></path>
                <path d="M92.7114124,32.4627345 L88.3523616,32.4627345 C88.2578983,32.4627345 88.2278418,32.524565 88.1960678,32.5863955 C88.1359548,32.7109153 87.516791,34.595887 87.516791,34.6577175 C87.516791,34.7204068 87.5786215,34.7822373 87.6413107,34.7822373 L92.0003616,34.7822373 C92.1223051,34.7822373 92.2167684,34.6886328 92.2468249,34.595887 C92.3086554,34.4421695 92.8960452,32.6791412 92.8960452,32.616452 C92.8960452,32.524565 92.8032994,32.4627345 92.7114124,32.4627345 Z M98.368904,41.7991412 L81.8592994,41.7991412 C80.5290847,41.7991412 79.2933333,41.1799774 79.2933333,39.6960452 C79.2933333,39.3868927 79.3551638,39.0785989 79.4479096,38.7694463 L81.5810621,32.4627345 C82.3221695,30.2351186 83.6523842,29.4304633 85.9701695,29.4304633 L97.2250395,29.4304633 C98.5535367,29.4304633 99.7910056,30.0487684 99.7910056,31.5352768 C99.7910056,31.8452881 99.7291751,32.1535819 99.6347119,32.4627345 L98.368904,36.2343955 C98.3371299,36.3271412 98.2443842,36.4207458 98.1207232,36.4207458 L87.1140339,36.4207458 C86.9603164,36.4207458 86.8976271,36.5134915 86.8357966,36.6371525 C86.7756836,36.7599548 86.1865763,38.5848136 86.1865763,38.6148701 C86.1865763,38.7084746 86.2810395,38.7694463 86.3729266,38.7694463 L102.788068,38.7694463 C102.016904,41.0254011 100.686689,41.7991412 98.368904,41.7991412 L98.368904,41.7991412 Z" id="Fill-50" fill="#FFFFFF"></path>
                <path d="M113.211661,41.8360678 L104.494418,41.8360678 C103.164203,41.8360678 101.927593,41.216904 101.927593,39.7329718 C101.927593,39.4238192 101.990282,39.1155254 102.082169,38.8055141 L107.368678,22.976904 C107.431367,22.7604972 107.647774,22.6042034 107.863322,22.6042034 L113.799051,22.6042034 C113.922712,22.6042034 114.077288,22.6986667 114.077288,22.8523842 C114.077288,22.9451299 113.149831,25.7257853 113.057085,25.9421921 C111.66504,30.1784407 110.243797,34.4164068 108.821695,38.6835706 C108.853469,38.7454011 108.915299,38.8055141 109.008045,38.8055141 L117.632542,38.8055141 C116.859661,41.0004972 115.49939,41.8360678 113.211661,41.8360678" id="Fill-51" fill="#FFFFFF"></path>
                <path d="M138.835254,32.499661 L125.941876,32.499661 C125.849989,32.499661 125.788158,32.531435 125.757243,32.623322 L125.076249,34.6628701 C125.046192,34.7573333 125.170712,34.8191638 125.232542,34.8191638 L136.237514,34.8191638 C136.299345,34.8191638 136.392949,34.8492203 136.392949,34.9411073 C136.392949,35.0656271 135.279141,38.3735593 135.125424,38.8055141 C134.38174,40.9704407 133.084158,41.8360678 130.796429,41.8360678 L119.356927,41.8360678 C118.028429,41.8360678 116.792678,41.248678 116.792678,39.7329718 C116.792678,39.4238192 116.852791,39.1155254 116.947254,38.8055141 L128.229605,38.8055141 C128.354124,38.8055141 128.446011,38.7454011 128.508701,38.6217401 C128.570531,38.5289944 129.157062,36.6740791 129.157062,36.6122486 C129.157062,36.5177853 129.096949,36.4576723 129.003345,36.4576723 L121.244475,36.4576723 C119.91426,36.4576723 118.67765,35.8694237 118.67765,34.3863503 C118.67765,33.7371299 118.924113,33.1179661 119.14052,32.499661 C119.91426,30.2402712 121.211842,29.4665311 123.56226,29.4665311 L143.100701,29.4665311 C142.38965,31.5421469 140.998463,32.499661 138.835254,32.499661" id="Fill-52" fill="#FFFFFF"></path>
                <path d="M52.8058305,41.8154576 L44.0568136,41.8154576 C43.9322938,41.8154576 43.7777175,41.7536271 43.7777175,41.5990508 C43.7777175,41.4135593 45.9117288,35.1077062 46.1281356,34.4267119 C46.1599096,34.3348249 46.7146667,32.7272316 46.7146667,32.6954576 C46.7146667,32.5735141 46.6846102,32.4489944 46.5308927,32.4489944 L42.1709831,32.4489944 C42.9129492,30.219661 44.2732203,29.4467797 46.5609492,29.4467797 L51.043661,29.4467797 C52.3721582,29.4467797 53.6104859,30.035887 53.6104859,31.5515932 C53.6104859,31.8624633 53.5486554,32.1707571 53.4559096,32.4790508 L51.4447006,38.5392994 C51.4447006,38.5693559 51.4146441,38.6311864 51.4146441,38.6311864 C51.4146441,38.7256497 51.5073898,38.7857627 51.6009944,38.7857627 L57.2267119,38.7857627 C56.4856045,41.0125198 55.0935593,41.8154576 52.8058305,41.8154576" id="Fill-53" fill="#FFFFFF"></path>
            </g>
        </g>
    </g>
</svg>