<?xml version="1.0" encoding="UTF-8"?>
<svg width="140px" height="40px" viewBox="0 0 140 40" version="1.1" xmlns="http://www.w3.org/2000/svg" xmlns:xlink="http://www.w3.org/1999/xlink">
    <!-- Generator: Sketch 47.1 (45422) - http://www.bohemiancoding.com/sketch -->
    <title>logo_alt</title>
    <desc>Created with Sketch.</desc>
    <defs>
        <polygon id="path-1" points="18.9102717 23.3695652 0.0738586957 23.3695652 0.0738586957 0.235706522 18.9102717 0.235706522"></polygon>
        <polygon id="path-3" points="10.0271739 9.98347826 10.0271739 0.269891304 0.316521739 0.269891304 0.316521739 9.98347826 10.0271739 9.98347826"></polygon>
    </defs>
    <g id="esure_logo" stroke="none" stroke-width="1" fill="none" fill-rule="evenodd">
        <g id="logo_alt">
            <g id="Page-1" transform="translate(8.000000, 6.000000)">
                <path d="M16.7594565,14.1384783 C16.7458696,12.1341304 16.248587,10.5808696 15.2659783,9.48358696 C14.2855435,8.38576087 12.7931522,7.83630435 10.7898913,7.83630435 C8.7725,7.83630435 7.16706522,8.43902174 5.97195652,9.64608696 C4.77630435,10.8520652 4.09967391,12.3498913 3.9398913,14.1384783 L16.7594565,14.1384783 Z M20.411087,17.0759783 L3.9398913,17.0759783 C3.9398913,18.4509783 4.14586957,19.6466304 4.55945652,20.6667391 C4.97304348,21.6868478 5.54206522,22.5238043 6.26217391,23.1770652 C6.95728261,23.8167391 7.7801087,24.2966304 8.73445652,24.6172826 C9.69043478,24.9373913 10.7420652,25.0971739 11.8898913,25.0971739 C13.4127174,25.0971739 14.9458696,24.7917391 16.4877174,24.1803261 C18.0290217,23.568913 19.1273913,22.9678261 19.7817391,22.3748913 L19.9828261,22.3748913 L19.9828261,26.4998913 C18.7067391,27.0373913 17.4045652,27.4868478 16.0746739,27.8493478 C14.7447826,28.2107609 13.3491304,28.3922826 11.885,28.3922826 C8.15184783,28.3922826 5.23663043,27.3819565 3.14152174,25.3607609 C1.04695652,23.3428261 0.000217391304,20.4727174 0.000217391304,16.7553261 C0.000217391304,13.0776087 1.0023913,10.158587 3.00891304,7.99880435 C5.01380435,5.83793478 7.6551087,4.75586957 10.9311957,4.75586957 C13.9638043,4.75586957 16.3013043,5.64663043 17.9458696,7.42652174 C19.5898913,9.20641304 20.411087,11.7352174 20.411087,15.0123913 L20.411087,17.0759783 L20.411087,17.0759783 Z" id="Fill-1" fill="#FFFFFF" opacity="0.900000036"></path>
                <path d="M43.0746196,21.3477717 C43.0746196,23.4064674 42.2257065,25.0955978 40.5333152,26.4135326 C38.8360326,27.7325543 36.5208152,28.392337 33.5854891,28.392337 C31.9246196,28.392337 30.3996196,28.1917935 29.0132065,27.7961413 C27.6257065,27.3994022 26.4642935,26.9640761 25.5267935,26.4934239 L25.5267935,22.2314674 L25.7267935,22.2314674 C26.9115761,23.1542935 28.2295109,23.8858152 29.6833152,24.427663 C31.1338587,24.9711413 32.527337,25.240163 33.8599457,25.240163 C35.5115761,25.240163 36.8034239,24.967337 37.7371196,24.4195109 C38.6691848,23.8727717 39.1354891,23.0086413 39.1354891,21.8330978 C39.1354891,20.9434239 38.8816848,20.2716848 38.3746196,19.8135326 C37.8659239,19.3564674 36.8920109,18.965163 35.450163,18.642337 C34.9159239,18.5216848 34.2191848,18.3814674 33.3583152,18.2195109 C32.4969022,18.0575543 31.7115761,17.8825543 31.0039674,17.6955978 C29.0425543,17.1695109 27.6496196,16.3994022 26.8284239,15.3830978 C26.0083152,14.3678804 25.5979891,13.1189674 25.5979891,11.6390761 C25.5979891,10.7113587 25.78875,9.83690217 26.1729891,9.01625 C26.5545109,8.19342391 27.1365761,7.46081522 27.9170109,6.81516304 C28.6697283,6.18255435 29.6257065,5.68255435 30.7909239,5.3113587 C31.9545109,4.94233696 33.2545109,4.75592391 34.6930978,4.75592391 C36.0371196,4.75592391 37.3985326,4.92059783 38.7767935,5.24831522 C40.1545109,5.57820652 41.300163,5.97548913 42.2153804,6.44559783 L42.2153804,10.4869022 L42.01375,10.4869022 C41.0507065,9.76407609 39.8805978,9.15375 38.5039674,8.65429348 C37.1267935,8.15701087 35.77625,7.90755435 34.4517935,7.90755435 C33.0740761,7.90755435 31.9099457,8.17929348 30.9615761,8.71951087 C30.012663,9.26190217 29.5365761,10.0657065 29.5365761,11.1341848 C29.5365761,12.0624457 29.8229891,12.7629891 30.3979891,13.2330978 C30.9588587,13.704837 31.8664674,14.0885326 33.1224457,14.3836413 C33.8153804,14.5450543 34.5920109,14.7075543 35.4534239,14.8684239 C36.3159239,15.02875 37.0327717,15.1771196 37.6077717,15.3113587 C39.3555978,15.71625 40.7039674,16.4080978 41.6534239,17.3907065 C42.6007065,18.3879891 43.0746196,19.7070109 43.0746196,21.3477717" id="Fill-3" fill="#FFFFFF" opacity="0.900000036"></path>
                <g id="Group-7" transform="translate(47.826087, 5.165109)">
                    <mask id="mask-2" fill="white">
                        <use xlink:href="#path-1"></use>
                    </mask>
                    <g id="Clip-6"></g>
                    <path d="M18.9102717,22.724837 L15.1135326,22.724837 L15.1135326,20.2460326 C13.8374457,21.2530978 12.6140761,22.0270109 11.4466848,22.5639674 C10.2760326,23.099837 8.98472826,23.3699457 7.57440217,23.3699457 C5.20809783,23.3699457 3.36516304,22.6482065 2.04777174,21.2036413 C0.73201087,19.7617935 0.0738586957,17.6411413 0.0738586957,14.8465761 L0.0738586957,0.235706522 L3.87005435,0.235706522 L3.87005435,13.0694022 C3.87005435,14.2139674 3.9238587,15.1911413 4.03146739,16.0058152 C4.13744565,16.8210326 4.36570652,17.5166848 4.71516304,18.0933152 C5.07820652,18.687337 5.5488587,19.1166848 6.12603261,19.38625 C6.70429348,19.6552717 7.54288043,19.7884239 8.6461413,19.7884239 C9.62657609,19.7884239 10.6977717,19.5340761 11.8586413,19.0232065 C13.0205978,18.5128804 14.1059239,17.860163 15.1135326,17.0645109 L15.1135326,0.235706522 L18.9102717,0.235706522 L18.9102717,22.724837" id="Fill-5" fill="#FFFFFF" opacity="0.900000036" mask="url(#mask-2)"></path>
                </g>
                <path d="M86.5597826,9.48331522 L86.3608696,9.48331522 C85.7951087,9.35831522 85.2494565,9.26701087 84.7206522,9.20940217 C84.1896739,9.15451087 83.5625,9.12516304 82.8380435,9.12516304 C81.6711957,9.12516304 80.5440217,9.3838587 79.4586957,9.90179348 C78.3717391,10.4186413 77.3244565,11.0865761 76.3190217,11.9066848 L76.3190217,27.889837 L72.523913,27.889837 L72.523913,5.40070652 L76.3190217,5.40070652 L76.3190217,8.72298913 C77.8201087,7.51592391 79.1461957,6.66048913 80.2934783,6.15559783 C81.4380435,5.65288043 82.6097826,5.40070652 83.8065217,5.40070652 C84.4619565,5.40070652 84.9375,5.41809783 85.2331522,5.45125 C85.5277174,5.48494565 85.9695652,5.54744565 86.5597826,5.63929348 L86.5597826,9.48331522" id="Fill-8" fill="#FFFFFF" opacity="0.900000036"></path>
                <path d="M106.549348,14.1384783 C106.537391,12.1341304 106.039022,10.5808696 105.056957,9.48358696 C104.075435,8.38576087 102.585217,7.83630435 100.580326,7.83630435 C98.5645652,7.83630435 96.9575,8.43902174 95.7640217,9.64608696 C94.5672826,10.8520652 93.8906522,12.3498913 93.7292391,14.1384783 L106.549348,14.1384783 Z M110.203696,17.0759783 L93.7292391,17.0759783 C93.7292391,18.4509783 93.9379348,19.6466304 94.3498913,20.6667391 C94.7640217,21.6868478 95.333587,22.5238043 96.0536957,23.1770652 C96.7477174,23.8167391 97.5721739,24.2966304 98.5243478,24.6172826 C99.4808696,24.9373913 100.533043,25.0971739 101.68087,25.0971739 C103.203152,25.0971739 104.736848,24.7917391 106.279783,24.1803261 C107.819457,23.568913 108.917826,22.9678261 109.573261,22.3748913 L109.774348,22.3748913 L109.774348,26.4998913 C108.497717,27.0373913 107.195543,27.4868478 105.866196,27.8493478 C104.536304,28.2107609 103.140652,28.3922826 101.675978,28.3922826 C97.9428261,28.3922826 95.0270652,27.3819565 92.9325,25.3607609 C90.8363043,23.3428261 89.7901087,20.4727174 89.7901087,16.7553261 C89.7901087,13.0776087 90.7928261,10.158587 92.8009783,7.99880435 C94.8047826,5.83793478 97.4482609,4.75586957 100.721087,4.75586957 C103.754239,4.75586957 106.092283,5.64663043 107.737391,7.42652174 C109.38087,9.20641304 110.203696,11.7352174 110.203696,15.0123913 L110.203696,17.0759783 L110.203696,17.0759783 Z" id="Fill-10" fill="#FFFFFF" opacity="0.900000036"></path>
                <g id="Group-14" transform="translate(114.673913, 0.273804)">
                    <mask id="mask-4" fill="white">
                        <use xlink:href="#path-3"></use>
                    </mask>
                    <g id="Clip-13"></g>
                    <path d="M6.33065217,3.93130435 C6.33065217,3.79815217 6.30293478,3.67586957 6.24804348,3.57152174 C6.19913043,3.46663043 6.10945652,3.37967391 5.98663043,3.315 C5.87195652,3.24978261 5.74641304,3.20902174 5.61597826,3.18945652 C5.48554348,3.17423913 5.32195652,3.16282609 5.12304348,3.16282609 L4.28663043,3.16282609 L4.28663043,4.89380435 L5.00021739,4.89380435 C5.23228261,4.89380435 5.43119565,4.87695652 5.60021739,4.84217391 C5.76815217,4.80576087 5.90456522,4.74543478 6.01434783,4.65956522 C6.13336957,4.56608696 6.21326087,4.46391304 6.25945652,4.35141304 C6.30565217,4.23891304 6.33065217,4.09869565 6.33065217,3.93130435 L6.33065217,3.93130435 Z M8.30402174,7.59923913 L7.04695652,7.59923913 L5.19206522,5.60467391 L4.28663043,5.60467391 L4.28663043,7.59923913 L3.35456522,7.59923913 L3.35456522,2.46065217 L5.11,2.46065217 C5.46271739,2.46065217 5.74967391,2.47695652 5.98065217,2.50521739 C6.20728261,2.5351087 6.43391304,2.6073913 6.65402174,2.72423913 C6.89206522,2.85086957 7.06543478,3.00576087 7.1773913,3.18673913 C7.28608696,3.36771739 7.34097826,3.59706522 7.34097826,3.87097826 C7.34097826,4.23184783 7.23717391,4.53293478 7.02195652,4.77641304 C6.81271739,5.01608696 6.52086957,5.2101087 6.15021739,5.35195652 L8.30402174,7.59923913 Z M9.37521739,5.12804348 C9.37521739,3.96717391 8.96652174,2.9698913 8.14369565,2.13945652 C7.32413043,1.30630435 6.33445652,0.892173913 5.1725,0.892173913 C4.01217391,0.892173913 3.02141304,1.30630435 2.20076087,2.13945652 C1.3801087,2.9698913 0.96923913,3.96717391 0.96923913,5.12804348 C0.96923913,6.28619565 1.3801087,7.28293478 2.20076087,8.11445652 C3.02141304,8.94815217 4.01217391,9.36282609 5.1725,9.36282609 C6.33445652,9.36282609 7.32413043,8.94815217 8.14369565,8.11445652 C8.96652174,7.28293478 9.37521739,6.28619565 9.37521739,5.12804348 L9.37521739,5.12804348 Z M10.0273913,5.12804348 C10.0273913,6.46771739 9.55293478,7.61119565 8.60673913,8.56065217 C7.65673913,9.50956522 6.51326087,9.98347826 5.1725,9.98347826 C3.835,9.98347826 2.68717391,9.50956522 1.74043478,8.56065217 C0.791521739,7.61119565 0.316521739,6.46771739 0.316521739,5.12804348 C0.316521739,3.78619565 0.791521739,2.64380435 1.74043478,1.69706522 C2.68717391,0.743804348 3.835,0.269891304 5.1725,0.269891304 C6.51326087,0.269891304 7.65673913,0.743804348 8.60673913,1.69706522 C9.55293478,2.64380435 10.0273913,3.78619565 10.0273913,5.12804348 L10.0273913,5.12804348 Z" id="Fill-12" fill="#FFFFFF" opacity="0.900000036" mask="url(#mask-4)"></path>
                </g>
            </g>
        </g>
    </g>
</svg>