<svg style="position: absolute; width: 0; height: 0; overflow: hidden;" version="1.1" xmlns="http://www.w3.org/2000/svg" xmlns:xlink="http://www.w3.org/1999/xlink">
  <defs>
  <symbol id="icon-multicar" viewBox="0 0 32 32">
  <title>multicar</title>
  <path fill="currentColor" d="M10.912 16.312l2.344-4.293 5.182-0.235c-0.141-0.453-0.3-0.839-0.49-1.206-0.204-0.47-0.456-0.91-0.748-1.318-0.24-0.337-0.632-0.586-1.083-0.648-0.718-0.119-1.555-0.201-2.405-0.226-0.862-0.023-1.434-0.029-1.434-0.029h-0.188s-0.564 0-1.405 0.028c-0.879 0.026-1.716 0.107-2.535 0.241-0.904 0.132-1.416 1.223-1.783 2.055-0.196 0.45-0.365 0.901-0.534 1.362q-0.092 0.254-0.188 0.51c0 0.023-0.085 0.188-0.070 0.203-0.041-0.059-0.078-0.125-0.108-0.196-0.033-0.094 0.069-0.184 0.069-0.184v-0.621s-0.154-0.233-0.73-0.188-0.854 0.288-0.892 0.367 0.188 0.525 0.294 0.634 0.608 0.070 0.608 0.070 0.643 0.564 0.329 0.781c-0.293 0.23-0.507 0.549-0.603 0.916-0.102 0.359-0.16 0.758-0.16 1.171 0 0.028 0 0.056 0.001 0.083 0.002 0.502 0.041 0.998 0.114 1.482l-0.007 3.392c-0.003 0.020-0.004 0.044-0.004 0.068 0 0.309 0.238 0.562 0.54 0.587l1.142 0c0.393 0 0.44-0.549 0.44-0.549v-0.376h3.227zM7.118 10.642c0.161-0.333 0.312-0.604 0.476-0.867 0.083-0.156 0.233-0.315 0.414-0.428 0.382-0.204 0.946-0.238 1.371-0.265 0.484-0.032 0.845-0.047 1.328-0.060 0.785-0.023 1.343-0.028 1.39-0.028h0.188c0.047 0 0.606 0 1.39 0.028 0.743 0.009 1.464 0.071 2.168 0.182 0.209 0.009 0.475 0.114 0.692 0.279 0.173 0.17 0.322 0.371 0.436 0.592 0.068 0.122 0.128 0.233 0.194 0.34 0.173 0.312 0.343 0.685 0.485 1.070 0.151 0.399-4.497 0.382-4.389 0.672l-0.341 0.376h-6.572c0.26-0.765 0.519-1.39 0.813-1.996zM5.183 14.999c0.12-0.207 0.474-0.228 0.79-0.045s0.476 0.5 0.356 0.707-0.474 0.228-0.79 0.045-0.476-0.5-0.356-0.707zM6.529 18.873c-0.004 0.071-0.061 0.127-0.131 0.13h-1.129c-0.076 0-0.137-0.061-0.137-0.137v-0.581c0-0.076 0.061-0.137 0.137-0.137h1.129c0.076 0 0.137 0.061 0.137 0.137zM6.879 15.317c-0.6-0.346-0.882-0.98-0.632-1.415s0.941-0.506 1.541-0.16 0.882 0.98 0.632 1.415-0.941 0.506-1.541 0.16zM10.299 18.303c-0.286 0.333-0.030 0.726-0.54 0.726h-0.576c-0.354 0-0.611-0.218-0.828-0.474-0.055-0.064-0.098-0.107-0.152-0.173-0.030-0.036-0.115-0.122-0.107-0.175s0.1-0.062 0.149-0.058h1.959s0.25-0.026 0.096 0.154z"></path>
  <path d="M26.881 16.137s0.576 0.045 0.702-0.081 0.393-0.645 0.339-0.734-0.376-0.386-1.044-0.435-0.843 0.22-0.843 0.22v0.719s0.119 0.105 0.083 0.205c-0.038 0.089-0.082 0.166-0.132 0.237-0.278-0.835-0.577-1.665-0.938-2.467-0.26-0.592-0.553-1.1-0.892-1.572-0.277-0.389-0.727-0.676-1.246-0.752-0.83-0.138-1.797-0.232-2.781-0.262-0.996-0.027-1.659-0.035-1.659-0.035h-0.218s-0.662 0-1.626 0.034c-1.015 0.031-1.98 0.125-2.925 0.279-1.047 0.152-1.637 1.413-2.061 2.384-0.224 0.512-0.421 1.035-0.611 1.562q-0.115 0.295-0.209 0.593c0 0.024-0.096 0.213-0.081 0.235-0.048-0.067-0.091-0.144-0.127-0.225-0.039-0.108 0.080-0.213 0.080-0.213v-0.721s-0.179-0.269-0.843-0.22-0.992 0.352-1.044 0.435 0.213 0.608 0.339 0.734 0.702 0.081 0.702 0.081 0.743 0.653 0.376 0.903c-0.339 0.266-0.587 0.635-0.699 1.059-0.123 0.423-0.192 0.893-0.192 1.38 0 0.023 0 0.046 0 0.069 0.003 0.582 0.048 1.154 0.132 1.714l-0.008 3.923c0 0.73 0.623 0.753 0.623 0.753h1.317c0.455 0 0.508-0.636 0.508-0.636v-0.442h12.886v0.442s0.053 0.636 0.508 0.636h1.317s0.623-0.026 0.623-0.753v-3.989c0.076-0.494 0.121-1.067 0.124-1.649 0.002-0.053 0.003-0.112 0.003-0.17 0-0.476-0.065-0.937-0.186-1.374-0.112-0.375-0.361-0.717-0.691-0.952-0.348-0.262 0.395-0.914 0.395-0.914zM12.508 13.831c0.187-0.385 0.362-0.698 0.551-1.001 0.097-0.181 0.271-0.365 0.481-0.495 0.446-0.235 1.101-0.274 1.585-0.306 0.564-0.036 0.976-0.055 1.537-0.070 0.909-0.024 1.554-0.032 1.609-0.034h0.207c0.055 0 0.7 0 1.609 0.034 0.856 0.007 1.69 0.076 2.505 0.2 0.233 0.042 0.541 0.093 0.797 0.319 0.201 0.203 0.37 0.437 0.499 0.696 0.078 0.142 0.15 0.27 0.225 0.392 0.273 0.442 0.724 1.644 1.003 2.431h-13.494c0.301-0.876 0.6-1.591 0.939-2.285zM10.273 18.867c0.139-0.241 0.547-0.263 0.914-0.053s0.551 0.578 0.412 0.818-0.547 0.263-0.914 0.053-0.551-0.578-0.412-0.818zM11.829 23.345c0 0.088-0.072 0.16-0.16 0.16h-1.289c-0.088 0-0.16-0.072-0.16-0.16v-0.679c0-0.088 0.072-0.16 0.16-0.16h1.285c0.088 0 0.16 0.072 0.16 0.16zM12.23 19.236c-0.694-0.401-1.020-1.129-0.73-1.637s1.088-0.587 1.782-0.188 1.020 1.129 0.73 1.637-1.086 0.587-1.782 0.188zM23.022 22.689c-0.331 0.376-0.606 0.839-1.195 0.839h-6.931c-0.408 0-0.706-0.254-0.958-0.549-0.064-0.075-0.113-0.124-0.175-0.199-0.034-0.041-0.132-0.141-0.124-0.201s0.115-0.072 0.171-0.068h9.103s0.29-0.032 0.111 0.177zM24.487 19.4c-0.694 0.401-1.492 0.318-1.782-0.188s0.036-1.236 0.73-1.637 1.492-0.318 1.782 0.188-0.034 1.24-0.728 1.637zM26.493 23.351c0 0.088-0.072 0.16-0.16 0.16h-1.289c-0.088 0-0.16-0.072-0.16-0.16v-0.679c0-0.088 0.072-0.16 0.16-0.16h1.296c0.088 0 0.16 0.072 0.16 0.16zM26.446 19.024c0.139 0.241-0.045 0.606-0.412 0.818s-0.775 0.188-0.914-0.053 0.045-0.606 0.412-0.818 0.779-0.179 0.918 0.060z"></path>
  </symbol>
  <symbol id="icon-cancellation" viewBox="0 0 32 32">
  <title>cancellation</title>
  <path d="M15.917 5.372c-0.004 0-0.008 0-0.012 0-6.062 0-10.976 4.914-10.976 10.976 0 3.469 1.609 6.562 4.122 8.574l0.21 0.205 0.024-0.024c1.822 1.394 4.132 2.233 6.638 2.233 6.065 0 10.982-4.917 10.982-10.982s-4.917-10.982-10.982-10.982c-0.002 0-0.004 0-0.006 0zM15.917 7.14c0.001 0 0.002 0 0.003 0 2.463 0 4.699 0.97 6.348 2.549l-13.019 13.015c-1.57-1.648-2.536-3.884-2.536-6.346 0-5.084 4.12-9.206 9.204-9.208zM15.917 25.569c-0.002 0-0.005 0-0.007 0-2.009 0-3.867-0.647-5.378-1.744l12.873-12.828c1.079 1.489 1.726 3.352 1.726 5.366 0 5.084-4.122 9.206-9.206 9.206-0.003 0-0.005 0-0.008 0z"></path>
  </symbol>
  <symbol id="icon-car" viewBox="0 0 32 32">
  <title>car</title>
  <path d="M28.559 12.956s0.856 0.068 1.042-0.119 0.583-0.956 0.502-1.089-0.564-0.564-1.548-0.645-1.251 0.327-1.251 0.327v1.067s0.175 0.156 0.122 0.305c-0.055 0.133-0.118 0.248-0.192 0.354-0.412-1.241-0.856-2.473-1.384-3.662-0.387-0.879-0.821-1.634-1.326-2.335-0.412-0.578-1.083-1.004-1.856-1.112-1.232-0.205-2.668-0.344-4.128-0.388-1.479-0.041-2.461-0.050-2.461-0.050h-0.32s-0.982 0.009-2.412 0.049c-1.509 0.045-2.945 0.184-4.351 0.413-1.552 0.225-2.43 2.097-3.059 3.536-0.331 0.753-0.625 1.537-0.907 2.316q-0.158 0.438-0.31 0.871c-0.013 0.038-0.143 0.314-0.12 0.348-0.070-0.1-0.133-0.215-0.184-0.336-0.057-0.161 0.118-0.317 0.118-0.317v-1.059s-0.267-0.401-1.255-0.329-1.469 0.516-1.548 0.647 0.316 0.901 0.502 1.089 1.042 0.119 1.042 0.119 1.103 0.969 0.564 1.341-0.867 0.997-1.040 1.59c-0.17 0.595-0.268 1.279-0.268 1.986 0 0.049 0 0.097 0.001 0.145 0.006 0.861 0.074 1.708 0.2 2.536l-0.012 5.822c0 1.082 0.924 1.129 0.924 1.129h1.957c0.675 0 0.753-0.941 0.753-0.941v-0.655h19.127v0.655s0.079 0.941 0.753 0.941h1.957s0.924-0.040 0.924-1.129v-5.912c0.114-0.731 0.182-1.578 0.188-2.439 0.003-0.081 0.004-0.169 0.004-0.257 0-0.709-0.097-1.395-0.278-2.046-0.166-0.559-0.536-1.068-1.027-1.418-0.545-0.382 0.558-1.349 0.558-1.349zM7.23 9.531c0.277-0.571 0.537-1.036 0.818-1.485 0.141-0.267 0.396-0.539 0.705-0.734 0.662-0.349 1.634-0.408 2.353-0.455 0.828-0.055 1.449-0.081 2.28-0.105 1.347-0.038 2.305-0.049 2.388-0.049h0.312c0.081 0 1.039 0.011 2.388 0.049 1.275 0.016 2.512 0.122 3.721 0.312 0.342 0.064 0.795 0.135 1.183 0.474 0.303 0.297 0.558 0.641 0.753 1.020 0.118 0.21 0.221 0.399 0.336 0.587 0.404 0.657 1.074 2.446 1.488 3.609h-20.041c0.447-1.303 0.892-2.368 1.395-3.4zM3.912 17.008c0.205-0.357 0.813-0.391 1.357-0.077s0.817 0.858 0.611 1.214-0.813 0.391-1.357 0.077-0.818-0.856-0.611-1.214zM6.22 23.656c0 0.001 0 0.001 0 0.002 0 0.131-0.106 0.237-0.237 0.237 0 0 0 0 0 0h-1.912c-0.129-0.001-0.234-0.106-0.235-0.235v-1.009c0.001-0.129 0.106-0.234 0.235-0.235h1.912c0.129 0.001 0.234 0.106 0.235 0.235zM6.82 17.554c-1.029-0.595-1.515-1.682-1.084-2.429s1.614-0.869 2.645-0.275 1.515 1.682 1.084 2.429-1.616 0.869-2.645 0.275zM22.837 22.677c-0.491 0.564-0.901 1.246-1.774 1.246h-10.29c-0.606 0-1.048-0.376-1.421-0.815-0.094-0.111-0.167-0.188-0.26-0.295-0.051-0.062-0.188-0.209-0.188-0.299s0.171-0.105 0.254-0.1h13.509s0.435-0.045 0.167 0.263zM25.012 17.799c-1.029 0.595-2.215 0.47-2.645-0.275s0.055-1.834 1.084-2.429 2.215-0.47 2.645 0.275-0.055 1.834-1.084 2.429zM27.989 23.673c-0.001 0.129-0.106 0.234-0.235 0.235h-1.912c-0.129-0.001-0.234-0.106-0.235-0.235v-1.009c0.001-0.129 0.106-0.234 0.235-0.235h1.912c0.129 0.001 0.234 0.106 0.235 0.235zM27.921 17.253c0.205 0.357-0.068 0.899-0.611 1.214s-1.151 0.278-1.357-0.077 0.068-0.899 0.611-1.214 1.15-0.28 1.357 0.077z"></path>
  </symbol>
  <symbol id="icon-contents" viewBox="0 0 32 32">
  <title>contents</title>
  <path d="M12.134 17.603c-1.514 0.006-2.993 0.143-4.43 0.399s-0.314-1.6-1.221-1.985-1.317-0.252-1.317-0.252 0.117-3.069 2.649-3.069h8.698c2.532 0 2.649 3.069 2.649 3.069s-0.403-0.134-1.317 0.252-1.375 1.962-1.375 1.962c-1.282-0.234-2.76-0.37-4.269-0.376zM17.62 22.817c1.56 0 1.543-1.492 1.543-1.492s0.1-2.162 0.301-1.945c0.504-0.085 0.89-0.494 0.94-1.002s0.335-1.497-1.239-1.815-2.258 2.547-2.258 2.547c-0.539-0.194-1.189-0.368-1.858-0.491-0.766-0.157-1.556-0.24-2.366-0.24-0.168 0-0.335 0.004-0.501 0.011l-0.048-0.001c-0.143-0.006-0.31-0.010-0.478-0.010-0.81 0-1.6 0.083-2.363 0.241-0.669 0.121-1.317 0.296-1.943 0.517s-0.597-2.893-2.172-2.581-1.24 1.81-1.24 1.81c0.050 0.513 0.437 0.922 0.934 1.006 0.208-0.217 0.308 1.946 0.308 1.946s-0.017 1.492 1.543 1.492zM18.373 24.207v-0.551c-0.001-0.276-0.223-0.5-0.498-0.504h-1.191c-0.277 0.002-0.501 0.227-0.502 0.504v0.551c0.001 0.278 0.226 0.503 0.504 0.504h1.189c0.276-0.003 0.499-0.227 0.5-0.504zM6.467 24.711h1.191c0.278-0.001 0.503-0.226 0.504-0.504v-0.551c-0.001-0.278-0.226-0.503-0.504-0.504h-1.189c-0.278 0.001-0.503 0.226-0.504 0.504v0.551c0.001 0.278 0.226 0.503 0.504 0.504z"></path>
  <path d="M20.583 17.797h6.636c0.374-0.001 0.677-0.302 0.681-0.675v-5.895c-0.001-0.376-0.305-0.68-0.681-0.681h-11.394c-0.376 0.001-0.68 0.305-0.681 0.681v1.304h-0.79v-1.912c0.001-0.376 0.305-0.68 0.681-0.681h12.973c0.376 0.001 0.68 0.305 0.681 0.681v7.511c-0.001 0.376-0.305 0.68-0.681 0.681h-7.575c0.107-0.22 0.17-0.479 0.17-0.753 0-0.092-0.007-0.183-0.021-0.271zM21.524 17.996c-0.157 0.005-0.282 0.134-0.282 0.291 0 0.161 0.131 0.292 0.292 0.292s0.29-0.129 0.292-0.29c0-0.001 0-0.001 0-0.002 0-0.161-0.131-0.292-0.292-0.292-0.002 0-0.004 0-0.006 0z"></path>
  <path d="M19.345 20.696c0.674 0.159 1.452 0.256 2.25 0.267l0.111 0c1.592 0 3.678-0.525 4.053-0.973s-0.243-0.786-0.243-0.786h-5.364c-0.157 0.144-0.345 0.255-0.554 0.323-0.261 0.041-0.253 1.169-0.253 1.169z"></path>
  </symbol>
  <symbol id="icon-email" viewBox="0 0 32 32">
  <title>email</title>
  <path d="M27.144 22.431c-0.003 0.497-0.136 0.962-0.367 1.364l-7.082-7.948 7.012-6.135c0.273 0.422 0.435 0.937 0.436 1.49v11.227zM15.917 17.289l9.757-8.538c-0.385-0.22-0.846-0.351-1.337-0.354h-16.84c-0.492 0.003-0.953 0.134-1.351 0.361zM18.638 16.771l-2.258 1.977c-0.123 0.107-0.285 0.173-0.462 0.173s-0.339-0.065-0.463-0.174l-2.257-1.977-7.178 8.034c0.419 0.27 0.931 0.43 1.481 0.431h16.839c0.549-0.001 1.061-0.161 1.492-0.438zM5.129 9.712c-0.272 0.422-0.435 0.937-0.436 1.49v11.227c0.003 0.497 0.137 0.962 0.368 1.364l7.078-7.946z"></path>
  </symbol>
  <symbol id="icon-excess_protection" viewBox="0 0 32 32">
  <title>excess_protection</title>
  <path d="M24.425 8.967l-0.011-0.363-0.344-0.117c-3.913-1.338-6.008-1.725-7.543-2.009h-0.038c-1.289-0.241-2.175-0.013-3.198 0.248-0.275 0.070-0.564 0.143-0.864 0.211-1.439 0.316-5.326 1.505-5.49 1.552l-0.352 0.102-0.011 0.376c0 0.231-0.169 5.68 0 7.012 0.25 1.913 0.894 4.655 2.544 6.837 1.319 1.725 2.837 3.207 4.543 4.446 0.804 0.557 1.532 1.005 1.568 1.024l0.278 0.171 0.277-0.175 0.363-0.228c0.045-0.026 0.42-0.256 1.129-0.753 1.768-1.283 3.287-2.764 4.568-4.437 1.688-2.235 2.332-4.974 2.582-6.889 0.171-1.328 0.008-6.777 0-7.008zM17.612 19.944c-0.206 0.057-0.443 0.091-0.688 0.092-0.416-0.019-0.806-0.092-1.176-0.212-0.279-0.096-0.639-0.168-1.012-0.194-0.462 0.014-0.873 0.167-1.206 0.417l-0.504-1.157c0.318-0.216 0.578-0.493 0.769-0.816 0.147-0.25 0.233-0.536 0.242-0.841-0-0.098-0.007-0.192-0.020-0.284l-0.99 0.011v-1.054h0.753c-0.119-0.335-0.188-0.721-0.188-1.124 0-0.005 0-0.010 0-0.015 0.001-0.367 0.107-0.709 0.289-0.999 0.186-0.306 0.461-0.552 0.788-0.704 0.335-0.159 0.716-0.249 1.117-0.249 0.008 0 0.016 0 0.024 0 0.036-0.002 0.080-0.004 0.124-0.004 0.523 0 1.004 0.18 1.385 0.481 0.374 0.338 0.625 0.814 0.676 1.348l-1.29 0.197c-0.037-0.284-0.162-0.534-0.345-0.727-0.148-0.138-0.349-0.224-0.569-0.224-0.009 0-0.019 0-0.028 0-0.006-0-0.014-0-0.022-0-0.239 0-0.455 0.098-0.611 0.256s-0.253 0.375-0.253 0.614c0 0.010 0 0.019 0 0.029 0.006 0.189 0.031 0.371 0.073 0.546 0.045 0.216 0.103 0.417 0.175 0.612l1.477-0.030v1.054h-1.268c0.009 0.062 0.015 0.135 0.015 0.208 0 0.006 0 0.012 0 0.018 0 0.246-0.053 0.479-0.147 0.689-0.163 0.309-0.359 0.585-0.585 0.831 0.181-0.088 0.39-0.137 0.611-0.137 0.018 0 0.035 0 0.053 0.001 0.003-0 0.009-0 0.015-0 0.1 0 0.198 0.007 0.295 0.020q0.055 0.008 0.38 0.089c0.229 0.071 0.496 0.124 0.772 0.148 0.373-0.024 0.704-0.12 1.002-0.273l0.501 1.136c-0.181 0.1-0.391 0.184-0.611 0.242z"></path>
  </symbol>
  <symbol id="icon-family_legal" viewBox="0 0 32 32">
  <title>family_legal</title>
  <path d="M17.498 17.601c0.273 0.273 1.3 0.683 1.678 0.307l4.926-4.926c0.376-0.376-0.034-1.405-0.307-1.678l-6.297 6.294z"></path>
  <path d="M16.689 16.683c0.333 0.333 0.7-0.126 0.7-0.126l5.323-5.323s0.425-0.356 0.103-0.677-0.7 0.081-0.7 0.081l-4.728-4.73s0.401-0.376 0.081-0.7-0.677 0.103-0.677 0.103l-5.325 5.323s-0.459 0.376-0.126 0.7c0.075 0.088 0.186 0.144 0.309 0.144s0.235-0.056 0.309-0.143l1.485 1.484s0.070 0.162-0.188 0.425-0.544-0.292-1.025 0.188-0.156 0.753-0.156 0.753l-8.245 8.248c-0.034 0.034-0.508-0.326-1.345 0.512-1.103 1.103 0.096 2.243 0.096 2.243l0.256 0.256s1.14 1.198 2.243 0.096c0.837-0.837 0.478-1.317 0.512-1.345l8.239-8.237s0.278 0.326 0.753-0.156-0.073-0.753 0.188-1.025 0.425-0.188 0.425-0.188l1.484 1.484c-0.083 0.074-0.135 0.182-0.135 0.302 0 0.124 0.056 0.235 0.144 0.309z"></path>
  <path d="M10.423 10.598l6.299-6.301c-0.273-0.273-1.294-0.683-1.671-0.307l-4.939 4.931c-0.376 0.376 0.034 1.405 0.307 1.678z"></path>
  <path d="M29.080 24.44h-0.331v-0.777c0-0.188-0.28-0.333-0.623-0.333h-10.252c-0.342 0-0.623 0.149-0.623 0.333v0.777h-0.333c-0.406 0-0.738 0.149-0.738 0.333v1.234h13.637v-1.234c0-0.184-0.331-0.333-0.738-0.333z"></path>
  </symbol>
  <symbol id="icon-fridge_freezer" viewBox="0 0 32 32">
  <title>fridge_freezer</title>
  <path d="M21.55 12.606v-7.037h-11.264v7.037zM11.541 8.579c0-0.241 0.195-0.436 0.436-0.436s0.436 0.195 0.436 0.436v2.574c0 0.241-0.195 0.436-0.436 0.436s-0.436-0.195-0.436-0.436z"></path>
  <path d="M15.895 21.155v0.418l0.363 0.211 0.363-0.211v-0.418l-0.363-0.211-0.363 0.211z"></path>
  <path d="M10.286 13.49v13.17h1.099v0.888h2.124v-0.888h4.83v0.888h2.107v-0.888h1.099v-13.17zM12.429 17.413c0 0.24-0.195 0.435-0.435 0.435s-0.435-0.195-0.435-0.435v-2.564c0-0.24 0.195-0.435 0.435-0.435s0.435 0.195 0.435 0.435zM19.868 23.368c-0.042 0.070-0.118 0.116-0.204 0.116-0.045 0-0.087-0.012-0.123-0.034l-0.953-0.564-0.026 0.519c-0.006 0.126-0.11 0.226-0.237 0.226-0 0-0 0-0 0-0.131-0.001-0.237-0.108-0.237-0.239 0-0.003 0-0.007 0-0.010l0.040-0.769-0.429-0.254v0.199c0 0 0 0 0 0.001 0 0.099-0.076 0.18-0.172 0.188l-0.001 0c-0 0-0 0-0.001 0-0.099 0-0.18-0.076-0.188-0.172l-0.021-0.439-0.357-0.213-0.472 0.273v0.544l0.438 0.282c0.083 0.021 0.143 0.095 0.143 0.183 0 0.104-0.084 0.188-0.188 0.188-0.057 0-0.108-0.026-0.143-0.066l-0.241-0.155v0.651l0.67 0.433c0.082 0.038 0.138 0.12 0.138 0.216 0 0.131-0.106 0.237-0.237 0.237-0.061 0-0.117-0.023-0.159-0.061l-0.412-0.267v0.736c0 0.131-0.106 0.237-0.237 0.237s-0.237-0.106-0.237-0.237v-0.741l-0.442 0.243c-0.034 0.020-0.074 0.031-0.118 0.031-0.131 0-0.237-0.106-0.237-0.237 0-0.091 0.051-0.17 0.126-0.209l0.673-0.377v-0.649l-0.213 0.117c-0.013 0.003-0.028 0.005-0.044 0.005-0.104 0-0.188-0.084-0.188-0.188 0-0.053 0.022-0.101 0.057-0.135l0.384-0.209v-0.579l-0.47-0.271-0.167 0.1-0.009 0.499c-0.022 0.081-0.095 0.139-0.182 0.139s-0.159-0.058-0.181-0.137l-0-0.274-0.613 0.365-0.013 0.822c0 0.131-0.106 0.237-0.237 0.237s-0.237-0.106-0.237-0.237v-0.529l-0.941 0.564c-0.037 0.026-0.083 0.041-0.133 0.041-0.131 0-0.237-0.106-0.237-0.237 0-0.091 0.051-0.17 0.126-0.21l0.914-0.544-0.41-0.23c-0.073-0.041-0.121-0.119-0.121-0.207 0-0.131 0.106-0.237 0.237-0.237 0.043 0 0.082 0.011 0.117 0.031l0.65 0.353 0.645-0.376-0.222-0.126c-0.037-0.034-0.060-0.083-0.060-0.138 0-0.104 0.084-0.188 0.188-0.188 0.021 0 0.042 0.004 0.061 0.010l0.401 0.227 0.301-0.188v-0.442l-0.47-0.278-0.423 0.22c-0.033 0.030-0.077 0.048-0.125 0.048-0.104 0-0.188-0.084-0.188-0.188 0-0.089 0.062-0.164 0.145-0.183l0.225-0.117-0.497-0.295-0.726 0.376c-0.032 0.017-0.069 0.027-0.109 0.027-0.131 0-0.237-0.106-0.237-0.237 0-0.091 0.051-0.17 0.127-0.21l0.464-0.24-0.877-0.521c-0.070-0.043-0.116-0.119-0.116-0.205 0-0.132 0.107-0.24 0.24-0.24 0.046 0 0.089 0.013 0.125 0.035l0.849 0.506v-0.476c0.002-0.129 0.107-0.233 0.237-0.233 0.067 0 0.128 0.028 0.171 0.073 0.041 0.042 0.066 0.1 0.066 0.163 0 0.002-0 0.004-0 0.006l-0.013 0.752 0.54 0.322v-0.275c-0.004-0.015-0.007-0.032-0.007-0.049 0-0.104 0.084-0.188 0.188-0.188s0.188 0.084 0.188 0.188c0 0.018-0.002 0.035-0.007 0.051l0 0.482 0.598 0.356 0.23-0.132v-0.728l-0.408-0.245c-0.032-0.034-0.052-0.079-0.052-0.13 0-0.104 0.084-0.188 0.188-0.188 0.018 0 0.036 0.003 0.053 0.008l0.224 0.135v-0.376l-0.672-0.406c-0.069-0.042-0.115-0.117-0.115-0.203 0-0.131 0.106-0.237 0.237-0.237 0.045 0 0.087 0.013 0.123 0.035l0.417 0.235v-0.788c0-0.131 0.106-0.237 0.237-0.237s0.237 0.106 0.237 0.237v0.788l0.438-0.262c0.033-0.019 0.073-0.030 0.116-0.030 0.131 0 0.237 0.106 0.237 0.237 0 0.085-0.044 0.159-0.111 0.201l-0.671 0.396v0.399l0.228-0.134c0.017-0.006 0.037-0.009 0.057-0.009 0.104 0 0.188 0.084 0.188 0.188 0 0.053-0.022 0.101-0.057 0.135l-0.412 0.243v0.739l0.228 0.132 0.44-0.263-0.032-0.467c0-0 0-0 0-0.001 0-0.099 0.076-0.18 0.172-0.188l0.001-0c0 0 0 0 0.001 0 0.099 0 0.18 0.076 0.188 0.172l0.011 0.264 0.51-0.305v-0.785c0-0.131 0.106-0.237 0.237-0.237s0.237 0.106 0.237 0.237v0.502l1.037-0.619c0.032-0.017 0.070-0.027 0.11-0.027 0.131 0 0.237 0.106 0.237 0.237 0 0.081-0.041 0.153-0.103 0.196l-1.017 0.606 0.435 0.233c0.071 0.042 0.119 0.118 0.119 0.205 0 0.131-0.106 0.237-0.237 0.237-0.038 0-0.075-0.009-0.107-0.025l-0.683-0.376-0.5 0.299 0.237 0.115c0.060 0.032 0.101 0.095 0.101 0.167 0 0.028-0.006 0.054-0.017 0.077-0.031 0.059-0.092 0.099-0.163 0.1-0.029-0-0.056-0.007-0.080-0.019l-0.45-0.218-0.324 0.188v0.467l0.41 0.245 0.444-0.267c0.016-0.005 0.035-0.008 0.054-0.008 0.104 0 0.188 0.084 0.188 0.188 0 0.052-0.021 0.098-0.054 0.132l-0.277 0.167 0.508 0.303 0.717-0.341c0.029-0.014 0.064-0.023 0.101-0.023 0 0 0.001 0 0.001 0 0.094 0 0.175 0.055 0.214 0.134 0.015 0.031 0.024 0.066 0.024 0.103 0 0.094-0.055 0.175-0.134 0.214l-0.43 0.206 0.928 0.551c0.070 0.042 0.116 0.118 0.116 0.204 0 0.045-0.012 0.087-0.034 0.123z"></path>
  </symbol>
  <symbol id="icon-golf" viewBox="0 0 32 32">
  <title>golf</title>
  <path d="M12.341 23.003v0c0.36 0 0.651-0.291 0.651-0.651v-8.822l9.091-3.848-10.391-4.619v17.289c0 0 0 0 0 0 0 0.359 0.29 0.65 0.649 0.651z"></path>
  <path d="M15.917 18.521c-0.822 0-1.622 0.036-2.395 0.102v3.165c0.429 0.209 0.709 0.534 0.709 0.905 0 0.63-0.807 1.142-1.804 1.142s-1.804-0.512-1.804-1.142c0.021-0.331 0.206-0.616 0.473-0.775l0.004-2.975c-3.763 0.696-6.374 2.181-6.374 3.902 0 2.388 5.008 4.327 11.185 4.327s11.185-1.936 11.185-4.327-5.001-4.324-11.18-4.324zM19.868 23.68c-0.864 0-1.564-0.442-1.564-0.99s0.7-0.99 1.564-0.99 1.564 0.442 1.564 0.99-0.698 0.992-1.562 0.992z"></path>
  </symbol>
  <symbol id="icon-home_emergency" viewBox="0 0 32 32">
  <title>home_emergency</title>
  <path d="M15.906 5.483l-5.727 4.013v-2.145h-2.794v4.096l-4.122 2.867 1.389 0.973 11.255-7.876 11.242 7.898 1.424-1.001-12.666-8.826z"></path>
  <path d="M6.337 15.093v12.536h19.138v-12.529l-9.569-6.692zM17.031 16.181v2.563h2.48c0.174 0.003 0.314 0.145 0.314 0.32 0 0.001 0 0.003-0 0.004v1.646c0 0.001 0 0.002 0 0.004 0 0.175-0.14 0.317-0.314 0.32h-2.48v2.553c0 0.001 0 0.002 0 0.004 0 0.175-0.14 0.317-0.314 0.32h-1.6c-0.174-0.003-0.314-0.145-0.314-0.32 0-0.001 0-0.003 0-0.004v-2.553h-2.478c-0.174-0.003-0.314-0.145-0.314-0.32 0-0.001 0-0.003 0-0.004v-1.646c0-0.001-0-0.002-0-0.004 0-0.175 0.14-0.317 0.314-0.32h2.478v-2.563c0-0.001-0-0.002-0-0.004 0-0.175 0.14-0.317 0.314-0.32h1.6c0.174 0.003 0.314 0.145 0.314 0.32 0 0.001 0 0.003-0 0.004z"></path>
  </symbol>
  <symbol id="icon-key_cover" viewBox="0 0 32 32">
  <title>key_cover</title>
  <path d="M25.859 24.339l-8.687-8.677 2.088-2.087c0.234-0.235 0.379-0.559 0.379-0.917s-0.145-0.682-0.38-0.917l-5.974-5.968c-0.242-0.22-0.564-0.355-0.918-0.355s-0.677 0.135-0.919 0.356l-7.845 7.833c-0.233 0.235-0.378 0.559-0.378 0.916s0.144 0.681 0.378 0.916l5.977 5.972c0.236 0.234 0.56 0.378 0.918 0.378s0.683-0.144 0.918-0.378l2.181-2.179 1.545 1.543c0.090 0.090 0.214 0.146 0.351 0.146 0.019 0 0.038-0.001 0.056-0.003l1.462-0.154v1.548c0 0.274 0.222 0.497 0.497 0.497h1.582v1.881c0 0.274 0.222 0.497 0.497 0.497h2.152l0.386 1.881c0.046 0.23 0.247 0.401 0.487 0.401 0.001 0 0.001 0 0.002 0h2.892c0.274 0 0.497-0.222 0.497-0.497v-2.282c0-0 0-0.001 0-0.001 0-0.137-0.055-0.261-0.145-0.351zM12.672 10.98l-3.838 3.838c-0.263 0.264-0.628 0.428-1.030 0.428-0.803 0-1.455-0.651-1.455-1.455 0-0.401 0.162-0.764 0.425-1.027l3.842-3.838c0.263-0.264 0.627-0.427 1.029-0.427 0.803 0 1.454 0.651 1.454 1.454 0 0.001 0 0.003 0 0.004 0 0.4-0.163 0.762-0.427 1.023z"></path>
  </symbol>
  <symbol id="icon-medical_expenses" viewBox="0 0 32 32">
  <title>medical_expenses</title>
  <path d="M21.434 19.046c-1.351 0-2.446 1.095-2.446 2.446s1.095 2.446 2.446 2.446c1.351 0 2.446-1.095 2.446-2.446s-1.095-2.446-2.446-2.446z"></path>
  <path d="M21.432 20.011c-0.806 0.008-1.456 0.663-1.456 1.469 0 0.673 0.452 1.24 1.069 1.414l0.010 1.679h0.753v-1.673c0.634-0.172 1.093-0.743 1.093-1.421 0-0.812-0.658-1.469-1.469-1.469-0 0-0 0-0 0z"></path>
  <path d="M21.844 24.363c-0.034-0.036-0.082-0.058-0.135-0.058h-0.581c-0 0-0.001 0-0.001 0-0.054 0-0.104 0.023-0.138 0.060-0.032 0.037-0.051 0.085-0.051 0.137 0 0.002 0 0.004 0 0.006 0 0.113 0 0.099-0.036 0.463-0.047 0.534-0.17 1.027-0.358 1.486-0.18 0.474-0.516 0.891-0.948 1.176-0.504 0.295-1.098 0.466-1.732 0.469h-0.157c-0.73-0.038-1.477-0.137-1.987-0.611-0.287-0.284-0.514-0.627-0.661-1.009-0.152-0.399-0.244-0.839-0.262-1.297-0.023-0.322-0.027-0.642-0.030-0.962-0.009-0.732-0.017-1.693-0.017-2.617 0-0.297 0-0.553 0-0.813 0-0.135 0-0.275 0-0.42h0.134c0.104 0 0.188-0.084 0.188-0.188v-1.14c0.132-0.026 0.265-0.062 0.399-0.102 1.044-0.318 1.754-0.681 2.374-1.212 0.511-0.44 0.959-0.929 1.343-1.467 0.321-0.431 0.628-0.895 0.907-1.376l0.101-0.178c0.066-0.098 0.119-0.212 0.154-0.334 0.004-0.024 0.005-0.041 0.005-0.059 0-0.106-0.040-0.203-0.105-0.277-0.162-0.168-0.389-0.274-0.641-0.276-0.011-0.001-0.023-0.002-0.035-0.002-0.139 0-0.261 0.076-0.326 0.188l-0.080 0.154c-0.107 0.209-0.288 0.564-0.41 0.766-0.177 0.301-0.941 1.419-1.373 1.804-0.476 0.427-1.033 0.897-1.635 1.076-0.447 0.163-0.962 0.263-1.5 0.275l-0.178 0c-0.678-0.022-1.309-0.202-1.864-0.504-0.617-0.334-1.154-0.787-1.584-1.329l-0.063-0.078c-0.336-0.379-0.637-0.803-0.889-1.258-0.331-0.6-0.434-0.817-0.453-0.856-0.049-0.119-0.164-0.202-0.299-0.202-0.008 0-0.016 0-0.024 0.001-0.131 0.006-0.253 0.041-0.361 0.1l-0.082 0.035c-0.090 0.034-0.167 0.076-0.238 0.126-0.081 0.057-0.135 0.153-0.135 0.262 0 0.023 0.002 0.045 0.007 0.067 0.014 0.062 0.038 0.119 0.071 0.169l0.162 0.274c0.141 0.237 0.284 0.472 0.431 0.706 0.045 0.072 0.090 0.141 0.137 0.211l0.036 0.055c0.282 0.421 0.807 1.206 1.454 1.742 0.753 0.623 1.434 1.087 2.316 1.317 0.188 0.051 0.425 0.113 0.67 0.16v1.157c0 0.104 0.084 0.188 0.188 0.188h0.188v3.633c0 1.212 0 2.719 0.954 3.906 0.255 0.325 0.574 0.587 0.94 0.77 0.181 0.088 0.382 0.168 0.589 0.233 0.433 0.129 0.894 0.199 1.371 0.199 0.045 0 0.090-0.001 0.134-0.002 1.135 0 2.101-0.263 2.644-0.724 0.558-0.482 0.981-1.107 1.215-1.817 0.107-0.352 0.188-0.737 0.235-1.133q0.028-0.234 0.041-0.437c0-0.113 0.019-0.203 0.024-0.32s0.028-0.239-0.043-0.312z"></path>
  <path d="M8.425 14.376c-0.001 0-0.002 0-0.004 0-0.034 0-0.064-0.014-0.086-0.036-0.030-0.032-0.056-0.069-0.074-0.11-0.039-0.079-0.077-0.172-0.109-0.268-0.109-0.289-0.176-0.605-0.193-0.933l-0-2.809c0-0.901 0.058-1.223 0.188-1.601 0.21-0.683 0.817-1.178 1.546-1.217l0.004 0.094 0.188 0.544h0.049l-0.024 0.188h-0.070c-0.553 0-0.952 0.48-1.059 0.954-0.029 0.147-0.046 0.317-0.046 0.49 0 0.039 0.001 0.079 0.003 0.117-0 0.119-0 0.243-0 0.371 0 0.162 0 0.324 0 0.485 0 0.753 0.013 1.505 0.028 2.098v0.376c0.019 0.16 0.051 0.305 0.095 0.444 0.029 0.122 0.076 0.243 0.137 0.357l0.022 0.037c0.020 0.025 0.036 0.053 0.048 0.084 0.004 0.012 0.005 0.023 0.005 0.035 0 0.047-0.028 0.088-0.068 0.106-0.029 0.014-0.063 0.029-0.099 0.040l-0.397 0.141c-0.024 0.008-0.051 0.013-0.080 0.013-0.002 0-0.004-0-0.005-0z"></path>
  <path d="M20.068 14.378c-0.028-0.001-0.054-0.006-0.079-0.016l-0.394-0.141c-0.042-0.013-0.077-0.027-0.11-0.044-0.036-0.017-0.064-0.057-0.064-0.104 0-0.012 0.002-0.023 0.005-0.034 0.009-0.027 0.022-0.050 0.038-0.071l0.032-0.052c0.067-0.111 0.121-0.24 0.154-0.376 0.030-0.13 0.051-0.271 0.060-0.416l0.010-0.383c0.015-0.596 0.034-1.338 0.030-2.098 0-0.154 0-0.309 0-0.463v-0.021c0-0.124 0-0.248 0-0.376 0.001-0.028 0.002-0.062 0.002-0.095 0-0.176-0.017-0.348-0.050-0.514-0.105-0.457-0.502-0.937-1.057-0.937h-0.060l-0.024-0.188h0.023l0.009-0.038 0.068-0.499v-0.103h0.079c0.753 0.018 1.385 0.521 1.596 1.207 0.135 0.388 0.191 0.71 0.191 1.613v2.79c-0.017 0.336-0.084 0.651-0.195 0.945-0.029 0.089-0.066 0.18-0.108 0.268-0.014 0.032-0.041 0.072-0.073 0.106-0.021 0.022-0.050 0.037-0.082 0.039z"></path>
  <path d="M11.579 8.467v-1.537h-1.505c-0.022-0.004-0.046-0.006-0.072-0.006-0.098 0-0.189 0.033-0.262 0.088-0.089 0.080-0.145 0.198-0.145 0.328 0 0.013 0.001 0.025 0.002 0.038l-0 0.854c0.005 0.208 0.169 0.377 0.375 0.388 0.076 0 0.283 0 0.524 0 0.461 0 1.050 0 1.088 0z"></path>
  <path d="M11.579 6.929c-0.271 0-0.376 0.455-0.376 0.845s0.096 0.845 0.376 0.845 0.376-0.455 0.376-0.845-0.102-0.845-0.376-0.845z"></path>
  <path d="M18.719 7.010c-0.072-0.054-0.163-0.087-0.262-0.087-0.025 0-0.050 0.002-0.074 0.006l-1.503-0v1.682c0.038 0 0.625 0 1.087 0 0.241 0 0.448 0 0.523 0 0.209-0.013 0.375-0.186 0.376-0.397v-0.839c0.001-0.010 0.001-0.022 0.001-0.033 0-0.132-0.058-0.25-0.149-0.331z"></path>
  <path d="M16.89 6.929c-0.271 0-0.376 0.455-0.376 0.845s0.096 0.845 0.376 0.845 0.376-0.455 0.376-0.845-0.105-0.845-0.376-0.845z"></path>
  </symbol>
  <symbol id="icon-misfuelling" viewBox="0 0 32 32">
  <title>misfuelling</title>
  <path d="M21.131 12.956l2.397 2.397v4.235s-0.132 0.837 0.837 0.837c0.019 0.001 0.040 0.002 0.062 0.002 0.5 0 0.906-0.405 0.907-0.905v-6.894l-1.182-1.379-0.070-2.431-2.23-2.233c-0.126-0.152-0.203-0.349-0.203-0.564 0-0.249 0.103-0.474 0.269-0.635 0.58-0.58 1.129 0.148 1.129 0.148l4 4v10.26s0.013 2.29-2.694 2.29-2.512-2.192-2.512-2.192v-3.693l-0.715-0.715z"></path>
  <path d="M5.912 25.074h16.376c0.075 0 0.135 0.061 0.135 0.135v1.897c0 0.075-0.061 0.135-0.135 0.135h-16.376c-0.075 0-0.135-0.061-0.135-0.135v-1.897c0-0.075 0.061-0.135 0.135-0.135z"></path>
  <path d="M7.861 8.090c0-1.97 1.379-1.904 1.379-1.904h9.261c1.904 0 1.838 1.643 1.838 1.643v16.421h-12.478zM18.653 7.866h-9.106v5.4h9.106z"></path>
  </symbol>
  <symbol id="icon-motor_legal_protection" viewBox="0 0 32 32">
  <title>motor_legal_protection</title>
  <path d="M17.515 18.581c0.273 0.273 1.3 0.683 1.678 0.307l4.931-4.931c0.376-0.376-0.034-1.405-0.307-1.678l-6.301 6.301z"></path>
  <path d="M16.711 17.663c0.333 0.333 0.7-0.126 0.7-0.126l5.323-5.323s0.425-0.356 0.103-0.677-0.7 0.081-0.7 0.081l-4.73-4.73s0.401-0.376 0.081-0.7-0.677 0.103-0.677 0.103l-5.323 5.323s-0.459 0.376-0.126 0.7c0.075 0.088 0.186 0.144 0.309 0.144s0.235-0.056 0.309-0.143l1.485 1.484s0.070 0.162-0.188 0.425-0.544-0.292-1.025 0.188-0.156 0.753-0.156 0.753l-8.245 8.248c-0.034 0.034-0.508-0.326-1.345 0.512-1.103 1.103 0.096 2.243 0.096 2.243l0.256 0.256s1.14 1.198 2.243 0.096c0.837-0.837 0.478-1.317 0.512-1.345l8.239-8.241s0.278 0.326 0.753-0.156-0.073-0.753 0.188-1.025 0.425-0.188 0.425-0.188l1.484 1.484c-0.084 0.075-0.137 0.183-0.137 0.304 0 0.125 0.057 0.237 0.146 0.311z"></path>
  <path d="M10.444 11.579l6.301-6.301c-0.273-0.273-1.3-0.683-1.678-0.307l-4.931 4.931c-0.376 0.376 0.034 1.405 0.307 1.678z"></path>
  <path d="M29.103 25.421h-0.331v-0.773c0-0.188-0.28-0.333-0.623-0.333h-10.254c-0.342 0-0.623 0.149-0.623 0.333v0.777h-0.339c-0.406 0-0.738 0.149-0.738 0.333v1.234h13.644v-1.234c0-0.188-0.333-0.337-0.738-0.337z"></path>
  </symbol>
  <symbol id="icon-ncd" viewBox="0 0 32 32">
  <title>ncd</title>
  <path d="M21.373 15.639c0-0.766-0.435-1.161-1.099-1.161h-0.406v2.339h0.406c0.683 0 1.099-0.404 1.099-1.178z"></path>
  <path d="M24.877 12.794v-3.622l-0.465 0.066c-0.051 0-5.165 0.696-8.199-2.491l-0.295-0.31-0.301 0.31c-3.022 3.182-8.143 2.5-8.192 2.493l-0.463-0.066v3.62h-1.261v5.863h1.261v0.135c0 5.594 8.435 9.366 8.794 9.524l0.164 0.072 0.164-0.072c0.359-0.158 8.796-3.93 8.796-9.524v-0.135h1.259v-5.863zM24.062 18.802c0 4.664-6.978 8.152-8.145 8.702-1.167-0.549-8.145-4.034-8.145-8.702v-0.135h16.29zM12.056 15.515v-1.571c-0.002-0.011-0.002-0.023-0.002-0.036 0-0.153 0.124-0.277 0.277-0.277 0.013 0 0.025 0.001 0.038 0.003l0.365-0c0.011-0.002 0.023-0.002 0.036-0.002 0.153 0 0.277 0.124 0.277 0.277 0 0.013-0.001 0.025-0.003 0.038l0 3.408c0.002 0.011 0.002 0.023 0.002 0.036 0 0.153-0.124 0.277-0.277 0.277-0.013 0-0.025-0.001-0.038-0.003l-0.441 0c-0.009 0.001-0.019 0.001-0.029 0.001-0.147 0-0.275-0.085-0.337-0.208l-0.998-1.669c-0.106-0.183-0.219-0.408-0.321-0.64l-0.029-0.046s0.045 0.435 0.045 0.687v1.565c0.002 0.011 0.002 0.023 0.002 0.036 0 0.153-0.124 0.277-0.277 0.277-0.013 0-0.025-0.001-0.038-0.003l-0.362 0c-0.011 0.002-0.023 0.002-0.036 0.002-0.153 0-0.277-0.124-0.277-0.277 0-0.013 0.001-0.025 0.003-0.038l-0-3.408c-0.002-0.011-0.002-0.023-0.002-0.036 0-0.153 0.124-0.277 0.277-0.277 0.013 0 0.025 0.001 0.038 0.003l0.439-0c0.011-0.001 0.025-0.002 0.038-0.002 0.148 0 0.275 0.085 0.337 0.209l0.993 1.675c0.106 0.183 0.219 0.409 0.321 0.64l0.029 0.046s-0.051-0.433-0.051-0.687zM16.333 16.832c0.311-0.011 0.595-0.117 0.826-0.291 0.046-0.049 0.116-0.081 0.193-0.081 0.102 0 0.191 0.056 0.238 0.139l0.159 0.221c0.046 0.051 0.075 0.12 0.075 0.195 0 0.099-0.049 0.186-0.125 0.239-0.381 0.299-0.867 0.479-1.395 0.479-0.005 0-0.011-0-0.016-0-1.296 0-2.112-0.896-2.112-2.090-0-0.012-0-0.027-0-0.041 0-1.121 0.909-2.030 2.030-2.030 0.029 0 0.058 0.001 0.087 0.002 0.008-0 0.023-0.001 0.038-0.001 0.465 0 0.898 0.141 1.257 0.382 0.074 0.046 0.128 0.136 0.128 0.238 0 0.071-0.026 0.136-0.069 0.186l-0.148 0.229c-0.044 0.092-0.136 0.154-0.243 0.154-0.069 0-0.133-0.026-0.18-0.069-0.214-0.134-0.473-0.216-0.75-0.226-0.808-0-1.131 0.564-1.131 1.149s0.361 1.212 1.138 1.212zM18.884 17.355v-3.411c-0.001-0.011-0.002-0.023-0.002-0.036 0-0.153 0.124-0.277 0.277-0.277 0.011 0 0.023 0.001 0.034 0.002l1.128-0c1.268 0 2.079 0.738 2.079 2.006s-0.817 2.023-2.079 2.023h-1.129c-0.010 0.001-0.021 0.002-0.032 0.002-0.153 0-0.277-0.124-0.277-0.277 0-0.012 0.001-0.024 0.002-0.035zM24.062 12.794h-16.29v-2.702c1.358 0.103 5.355 0.149 8.145-2.491 2.79 2.634 6.786 2.596 8.145 2.491z"></path>
  </symbol>
  <symbol id="icon-new_old" viewBox="0 0 32 32">
  <title>new_old</title>
  <path d="M15.917 5.268c-6.126 0-11.091 4.966-11.091 11.091s4.966 11.091 11.091 11.091c6.126 0 11.091-4.966 11.091-11.091s-4.966-11.091-11.091-11.091zM12.23 18.45c0.002 0.012 0.002 0.026 0.002 0.040 0 0.187-0.152 0.339-0.339 0.339-0.014 0-0.028-0.001-0.042-0.003l-0.535 0c-0.010 0.001-0.021 0.001-0.032 0.001-0.181 0-0.337-0.102-0.415-0.253l-1.219-2.038c-0.129-0.223-0.267-0.499-0.39-0.782l-0.043-0.057s0.055 0.531 0.055 0.839v1.913c0.002 0.012 0.002 0.026 0.002 0.040 0 0.187-0.152 0.339-0.339 0.339-0.014 0-0.028-0.001-0.042-0.003l-0.442 0c-0.012 0.002-0.026 0.002-0.040 0.002-0.187 0-0.339-0.152-0.339-0.339 0-0.014 0.001-0.028 0.003-0.042l-0-4.164c-0.002-0.012-0.002-0.026-0.002-0.040 0-0.187 0.152-0.339 0.339-0.339 0.014 0 0.028 0.001 0.042 0.003l0.535-0c0.011-0.001 0.024-0.001 0.037-0.001 0.181 0 0.339 0.103 0.417 0.253l1.213 2.048c0.129 0.223 0.267 0.499 0.39 0.782l0.035 0.057s-0.055-0.531-0.055-0.839v-1.923c-0.002-0.012-0.002-0.026-0.002-0.040 0-0.187 0.152-0.339 0.339-0.339 0.014 0 0.028 0.001 0.042 0.003l0.448-0c0.012-0.002 0.026-0.002 0.040-0.002 0.187 0 0.339 0.152 0.339 0.339 0 0.014-0.001 0.028-0.003 0.042zM16.704 18.45c0.002 0.012 0.002 0.026 0.002 0.040 0 0.187-0.152 0.339-0.339 0.339-0.014 0-0.028-0.001-0.042-0.003l-2.42 0c-0.012 0.002-0.026 0.002-0.040 0.002-0.187 0-0.339-0.152-0.339-0.339 0-0.014 0.001-0.028 0.003-0.042l-0-4.164c-0.002-0.012-0.002-0.026-0.002-0.040 0-0.187 0.152-0.339 0.339-0.339 0.014 0 0.028 0.001 0.042 0.003l2.326-0c0.012-0.002 0.026-0.002 0.040-0.002 0.187 0 0.339 0.152 0.339 0.339 0 0.014-0.001 0.028-0.003 0.042l0 0.273c0.002 0.012 0.002 0.026 0.002 0.040 0 0.187-0.152 0.339-0.339 0.339-0.014 0-0.028-0.001-0.042-0.003l-1.504 0v0.896h1.129c0.012-0.002 0.026-0.002 0.040-0.002 0.187 0 0.339 0.152 0.339 0.339 0 0.014-0.001 0.028-0.003 0.042l0 0.273c0.002 0.012 0.002 0.026 0.002 0.040 0 0.187-0.152 0.339-0.339 0.339-0.014 0-0.028-0.001-0.042-0.003l-1.127 0v0.929h1.597c0.012-0.002 0.026-0.002 0.040-0.002 0.187 0 0.339 0.152 0.339 0.339 0 0.014-0.001 0.028-0.003 0.042zM22.762 18.504c-0.031 0.186-0.19 0.325-0.383 0.325-0.013 0-0.026-0.001-0.039-0.002l-0.666 0c-0.008 0.001-0.017 0.001-0.026 0.001-0.195 0-0.357-0.142-0.388-0.328l-0.537-2.157c-0.041-0.163-0.075-0.359-0.095-0.56l-0.015-0.017c-0.021 0.218-0.055 0.415-0.102 0.606l-0.53 2.125c-0.030 0.189-0.193 0.332-0.389 0.332-0.011 0-0.022-0-0.032-0.001l-0.68 0c-0.009 0.001-0.020 0.001-0.031 0.001-0.196 0-0.358-0.143-0.388-0.33l-1.018-4.175c-0.015-0.035-0.024-0.076-0.024-0.119 0-0.168 0.136-0.305 0.305-0.305 0.018 0 0.035 0.002 0.052 0.004l0.487-0c0.012-0.001 0.026-0.002 0.040-0.002 0.195 0 0.355 0.148 0.374 0.337l0.551 2.741c0.034 0.153 0.057 0.33 0.062 0.511l0.013 0.004c0.012-0.189 0.042-0.365 0.087-0.535l0.671-2.728c0.030-0.189 0.193-0.332 0.389-0.332 0.011 0 0.022 0 0.032 0.001l0.294-0c0.012-0.001 0.026-0.002 0.040-0.002 0.193 0 0.352 0.145 0.374 0.332l0.661 2.749c0.041 0.151 0.071 0.327 0.082 0.507l0.014 0.008c0.005-0.186 0.028-0.363 0.066-0.534l0.595-2.728c0.022-0.189 0.181-0.334 0.374-0.334 0.016 0 0.032 0.001 0.048 0.003l0.467-0c0.015-0.003 0.033-0.004 0.051-0.004 0.168 0 0.305 0.136 0.305 0.305 0 0.043-0.009 0.084-0.025 0.121z"></path>
  </symbol>
  <symbol id="icon-personal_claims_handler" viewBox="0 0 32 32">
  <title>personal_claims_handler</title>
  <path d="M15.759 6.053c-2.453 0.016-4.435 2.008-4.435 4.463 0 2.465 1.998 4.463 4.463 4.463s4.462-1.997 4.463-4.461c-0.010-2.468-2.012-4.465-4.482-4.465-0.003 0-0.007 0-0.010 0z"></path>
  <path d="M15.759 16.598c-8.224 0-9.052 9.294-9.059 9.389-0.001 0.012-0.002 0.026-0.002 0.041 0 0.138 0.054 0.263 0.141 0.357 0.097 0.104 0.234 0.169 0.387 0.169h17.067c0.153-0 0.291-0.065 0.387-0.169 0.087-0.094 0.141-0.219 0.141-0.357 0-0.014-0.001-0.028-0.002-0.042-0.009-0.094-0.835-9.387-9.061-9.387z"></path>
  <path d="M10.055 12.389c0.391 1.164 1.087 2.138 1.993 2.86 0.012 0.026 0.012 0.042 0.012 0.058 0 0 0 0.001 0 0.001 0 0.391 0.317 0.707 0.707 0.707s0.707-0.317 0.707-0.707c0-0.391-0.317-0.707-0.707-0.707-0.102 0-0.199 0.022-0.287 0.061-1.211-0.975-1.983-2.459-1.983-4.124 0-2.909 2.359-5.268 5.268-5.268s5.268 2.359 5.268 5.268c0 0.568-0.090 1.116-0.256 1.628l-0.025 0.078 0.122 0.045c0.174 0.059 0.374 0.094 0.582 0.096 0.455-0.006 0.854-0.233 1.097-0.579 0.227-0.342 0.36-0.756 0.36-1.201 0-0.032-0.001-0.064-0.002-0.096 0-1.023-0.442-1.913-1.505-1.984-0.853-2.341-3.059-3.982-5.649-3.982s-4.796 1.641-5.636 3.94c-1.063 0.106-1.581 0.934-1.581 1.953s0.478 1.866 1.513 1.953z"></path>
  </symbol>
  <symbol id="icon-personal_injury" viewBox="0 0 32 32">
  <title>personal_injury</title>
  <path d="M15.93 5.656c-6.109 0-11.061 4.952-11.061 11.061s4.952 11.061 11.061 11.061c6.109 0 11.061-4.952 11.061-11.061s-4.952-11.061-11.061-11.061zM21.046 17.795c0 0.002 0 0.004 0 0.006 0 0.229-0.184 0.415-0.412 0.418h-3.246v3.343c0 0.002 0 0.004 0 0.006 0 0.229-0.184 0.415-0.412 0.418h-2.092c-0.228-0.003-0.412-0.189-0.412-0.418 0-0.002 0-0.004 0-0.006v-3.343h-3.246c-0.228-0.003-0.412-0.189-0.412-0.418 0-0.002 0-0.004 0-0.006v-2.156c-0-0.002-0-0.004-0-0.006 0-0.229 0.184-0.415 0.412-0.418h3.246v-3.343c-0-0.002-0-0.004-0-0.006 0-0.229 0.184-0.415 0.412-0.418h2.092c0.228 0.003 0.412 0.189 0.412 0.418 0 0.002 0 0.004-0 0.006v3.343h3.246c0.228 0.003 0.412 0.189 0.412 0.418 0 0.002 0 0.004-0 0.006z"></path>
  </symbol>
  <symbol id="icon-personal_possession" viewBox="0 0 32 32">
  <title>personal_possession</title>
  <path d="M27.605 22.875h-23.377l-2.158 1.793v0.92h27.69v-0.913zM17.765 24.8c0 0.017-0.009 0.030-0.023 0.030h-3.65c-0.013 0-0.023-0.013-0.023-0.030v-0.263c0-0.017 0.009-0.030 0.023-0.030h3.65c0.013 0 0.023 0.013 0.023 0.030z"></path>
  <path d="M4.376 22.068h23.093c0.112 0 0.203-0.091 0.203-0.203v-14.348c0-0.112-0.091-0.203-0.203-0.203h-23.093c-0.112 0-0.203 0.091-0.203 0.203v14.348c0 0.112 0.091 0.203 0.203 0.203zM5.53 8.655h20.796v12.058h-20.796z"></path>
  </symbol>
  <symbol id="icon-pest" viewBox="0 0 32 32">
  <title>pest</title>
  <path d="M17.251 19.755l0.578 0.113-0.564 0.038 0.61 0.265-0.864-0.115 0.209 0.263-0.881-0.399c-1.262 0.222-3.187 0.297-3.951-0.162-0.605-0.36-1.333-0.572-2.112-0.572-0.381 0-0.75 0.051-1.101 0.146 0.030-0.003 0.030 0.002 0.030 0.006s-0 0.009-0 0.014c0 0.020-0.011 0.039-0.017 0.060-0.074 0.146-0.193 0.26-0.34 0.324-0.045 0.024-0.093 0.047-0.143 0.067-0.058 0.022-0.12 0.042-0.185 0.059-0.087 0.021-0.162 0.036-0.239 0.050s-0.188 0.024-0.275 0.030-0.218 0.011-0.327 0.011-0.256 0-0.376-0.011-0.297-0.023-0.446-0.040l-0.107-0.013c-2.455-0.301-4.666-0.785-4.583 1.39 0.029 0.37 0.237 0.687 0.537 0.865 0.39 0.185 0.838 0.307 1.31 0.341 0.401 0.042 0.852 0.066 1.308 0.066 0.167 0 0.333-0.003 0.498-0.009 0.593 0.001 1.21-0.022 1.826-0.063q0.792-0.053 1.582-0.139c0.544-0.051 1.025-0.124 1.498-0.222 0.199-0.047 0.487-0.098 0.777-0.139 0.719-0.103 1.505-0.188 2.213 0 0.066 0.017 0.13 0.038 0.188 0.062 0.249 0.084 0.465 0.195 0.66 0.334 0.066 0.040 0.181 0.121 0.254 0.17 0.099 0.067 0.186 0.135 0.267 0.21 0.040 0.038 0.081 0.078 0.121 0.119 0.037 0.039 0.070 0.082 0.098 0.128 0.033 0.049 0.054 0.104 0.060 0.163l0 0.002c-0.064 0.064-0.484-0.188-0.564-0.239-0.191-0.117-0.424-0.243-0.664-0.356-0.286-0.151-0.564-0.247-0.859-0.291-0.169-0.020-0.349-0.031-0.532-0.031-0.118 0-0.234 0.004-0.35 0.013-0.57 0.067-1.079 0.156-1.578 0.27-0.785 0.142-1.852 0.267-2.936 0.328-0.786 0.046-1.499 0.078-2.214 0.065-2.943-0.056-4.072-0.388-3.972-2.055 0.020-0.364 0.164-0.691 0.391-0.942 0.202-0.213 0.455-0.378 0.738-0.478 0.24-0.089 0.503-0.152 0.777-0.18 0.116-0.013 0.235-0.020 0.355-0.020s0.239 0.007 0.356 0.020l0.292 0.033 0.941 0.1q0.549 0.056 1.101 0.107c0.32 0.028 0.638 0.056 0.958 0.073l0.254 0.009c0.307 0 0.777-0.083 0.98-0.348 0.036-0.046 0.063-0.1 0.078-0.159 0.018-0.085 0.030-0.181 0.034-0.279 0-0.061 0-0.117 0.013-0.175 0.011-0.173 0.023-0.346 0.038-0.519q0.030-0.357 0.075-0.715 0.055-0.433 0.137-0.864 0.092-0.485 0.224-0.961c0.115-0.417 0.229-0.754 0.36-1.082 0.131-0.334 0.287-0.668 0.463-0.989 0.181-0.326 0.391-0.643 0.624-0.942 0.24-0.307 0.508-0.594 0.802-0.855q0.183-0.162 0.373-0.303c3.293-2.472 7.469-1.103 7.469-1.103s1.385 0.542 2.205 1.387 1.437 1.202 1.236 0.702-0.5-2.070 1.037-2.070 1.772 1.232 1.772 1.232 0.216 0.941 0 1.705c0 0.060 0.087 0.105 0.13 0.126 0.071 0.036 0.156 0.070 0.244 0.097 0.224 0.058 0.397 0.114 0.565 0.179 0.093 0.043 0.196 0.096 0.297 0.153 0.136 0.078 0.263 0.16 0.385 0.248 0.156 0.112 0.302 0.23 0.442 0.355 0.17 0.152 0.331 0.313 0.483 0.481 0.18 0.199 0.352 0.408 0.513 0.625 1.351 1.843 1.551 1.664 1.067 2.092-0.301 0.335-0.651 0.785-2.406 0.753-1.161-0.034-2.256-0.283-3.258-0.707s-2.001 0.95-1.378 1.042c0.206 0.041 0.443 0.064 0.686 0.064 0.084 0 0.168-0.003 0.251-0.008l-0.451 0.179 0.542 0.354-0.704-0.103 0.188 0.418-0.564-0.485s-0.702-0.167-0.986-0.051-2.546 0.502-3.571 0.54c-0.378 0.033-0.719 0.086-1.052 0.16z"></path>
  </symbol>
  <symbol id="icon-special_event" viewBox="0 0 32 32">
  <title>special_event</title>
  <path d="M23.055 14.265l3.705-0.45-0.376-2.683-3.994-2.391-2.484 0.914 1.264 3.562c-0.781-0.304-1.685-0.48-2.63-0.48-4.114 0-7.449 3.335-7.449 7.449 0 0.001 0 0.001 0 0.002-0.002 0.064-0.004 0.138-0.004 0.213 0 0.68 0.107 1.336 0.306 1.95 0.332 0.038 0.727 0.086 1.133 0.087 0.132 0 0.262 0 0.392-0.017-0.227-0.663-0.367-1.428-0.387-2.223-0-3.335 2.695-6.031 6.021-6.031s6.021 2.696 6.021 6.021c0 3.325-2.696 6.021-6.021 6.021-1.334 0-2.335-0.228-3.368-1.018-0.514 0.181-1.114 0.318-1.736 0.386 1.388 1.418 3.476 2.073 5.103 2.073 0.002 0 0.004 0 0.007 0 4.113 0 7.447-3.334 7.447-7.447 0-2.41-1.145-4.552-2.92-5.914zM26.013 11.631l0.228 1.584-1.379-0.835zM24.696 11.979l-0.015-1.358 1.095 0.651zM24.248 10.348l0.019 1.658-1.611-0.976 1.516-0.726zM22.476 10.64l0.143-1.268 1.114 0.668zM22.043 10.657l-1.377-0.835 1.535-0.564zM24.058 12.38l-1.919 1.249 0.254-2.258zM22.527 13.885l1.938-1.261 1.413 0.856-3.349 0.406zM20.578 10.278l1.413 0.856-0.262 2.32-0.026-0.011z"></path>
  <path d="M19.616 15.007c-0.321-0.069-0.691-0.109-1.069-0.109-0.199 0-0.395 0.011-0.588 0.032 0.308 0.711 0.579 1.631 0.579 2.393 0 3.325-2.696 6.021-6.021 6.021s-6.021-2.696-6.021-6.021c0-3.325 2.696-6.021 6.021-6.021 1.317 0 2.271 0.243 3.264 0.963h0.032c0.537-0.193 1.164-0.338 1.813-0.409-1.077-1.035-2.516-1.73-4.11-1.921l2.994-2.359-1.71-2.103h-4.653l-1.659 2.053 2.933 2.427c-3.611 0.557-6.344 3.644-6.344 7.368 0 4.115 3.336 7.451 7.451 7.451s7.451-3.336 7.451-7.451c0-0 0-0 0-0 0.001-0.044 0.002-0.096 0.002-0.148 0-0.776-0.133-1.52-0.377-2.213zM12.576 5.902l0.867 1.411-1.881-0.009 0.928-1.402zM14.141 7.317l0.602-1.234 1.010 1.242zM15.584 7.754l-2.668 2.070 1.016-2.083zM13.791 7.059l-0.711-1.157h1.276zM11.206 7.059l-0.529-1.161h1.298zM13.464 7.738l-1.010 2.062-0.941-2.070zM10.258 6.021l0.585 1.283h-1.611zM9.387 7.714h1.652l0.984 2.175z"></path>
  </symbol>
  <symbol id="icon-travel" viewBox="0 0 32 32">
  <title>travel</title>
  <path d="M16.369 16.472c0 0.004 0 0.010 0 0.015 0 0.057-0.017 0.11-0.046 0.154-0.057 0.082-0.152 0.136-0.259 0.136-0.001 0-0.003 0-0.004-0h0c-0.001 0.009-0.002 0.020-0.002 0.031 0 0.091 0.039 0.173 0.101 0.231 0.067 0.062 0.157 0.1 0.255 0.1s0.188-0.038 0.255-0.1c0.065-0.059 0.106-0.143 0.106-0.238s-0.041-0.179-0.106-0.238c-0.066-0.059-0.154-0.094-0.249-0.094-0.018 0-0.037 0.001-0.054 0.004zM13.923 13.654c0.086 1.030 0.698 1.9 1.564 2.348l0.016-0.041c-0.041-0.211-0.064-0.454-0.064-0.702 0-0.582 0.129-1.134 0.36-1.629zM16.487 13.654c-0.425 0.542-0.54 1.665-0.359 2.307h1.278l2.412 2.258-1.91 1.784-2.412-2.258v-1.108c-1.486-0.534-2.179-2.070-2.194-2.982h-1.913v12.807h9.136v-12.807zM14.196 5.72c0.006-0.16 0.138-0.288 0.299-0.288 0.003 0 0.007 0 0.010 0h3.087c0.003-0 0.006-0 0.010-0 0.161 0 0.293 0.128 0.299 0.287l0 7.41h1.234v-7.699c-0.024-0.642-0.55-1.154-1.196-1.154-0.014 0-0.027 0-0.040 0.001l-3.703-0c-0.011-0-0.025-0.001-0.038-0.001-0.646 0-1.172 0.512-1.196 1.152l-0 7.701h1.234zM16.995 17.473l1.274 1.189 0.128-0.119-1.276-1.189zM16.619 17.831l0.764 0.713 0.128-0.119-0.766-0.713zM18.653 18.307l-1.274-1.185 0.128-0.119 1.274 1.189zM12.405 26.773v0.531c-0.002 0.559-0.455 1.012-1.014 1.014h-0c-0.559-0.002-1.012-0.455-1.014-1.014v-0.531zM21.541 26.773v0.531c-0.002 0.559-0.455 1.012-1.014 1.014h-0c-0.559-0.002-1.012-0.455-1.014-1.014v-0.531zM22.077 26.453h-1.069v-12.8h1.069zM10.99 26.453h-1.229v-12.771h1.227z"></path>
  </symbol>
  <symbol id="icon-winter_sports" viewBox="0 0 32 32">
  <title>winter_sports</title>
  <path d="M25.776 21.944l-2.822-1.682 1.441-0.685c0.172-0.090 0.287-0.267 0.287-0.472 0-0.293-0.238-0.531-0.531-0.531-0.083 0-0.162 0.019-0.232 0.053l-2.080 0.988-1.693-1.005 0.975-0.587c0.094-0.069 0.154-0.179 0.154-0.303 0-0.208-0.168-0.376-0.376-0.376-0.060 0-0.117 0.014-0.167 0.039l-1.315 0.793-1.291-0.768v-1.417l1.040-0.621 1.336 0.647c0.041 0.017 0.089 0.027 0.139 0.027 0.208 0 0.376-0.168 0.376-0.376 0-0.139-0.075-0.26-0.186-0.325l-0.888-0.424 1.693-1.012 1.989 1.071c0.073 0.040 0.159 0.063 0.251 0.063 0.294 0 0.533-0.239 0.533-0.533 0-0.203-0.113-0.379-0.279-0.469l-1.438-0.775 3.067-1.831c0.158-0.094 0.261-0.263 0.261-0.457 0-0.099-0.027-0.192-0.075-0.271l0.001 0.002c-0.095-0.153-0.262-0.253-0.452-0.253-0.105 0-0.203 0.031-0.285 0.083l-3.119 1.861v-1.656c0-0.293-0.238-0.531-0.531-0.531s-0.531 0.238-0.531 0.531v2.288l-1.693 1.012-0.041-0.967c-0.009-0.201-0.174-0.361-0.376-0.361-0.208 0-0.377 0.169-0.377 0.377 0 0.006 0 0.011 0 0.017l0.064 1.378-1.379 0.822-0.779-0.446v-2.248l1.225-0.721c0.094-0.069 0.155-0.18 0.155-0.304 0-0.208-0.168-0.376-0.376-0.376-0.056 0-0.109 0.012-0.157 0.034l-0.842 0.496v-1.43l1.947-1.146c0.153-0.095 0.253-0.262 0.253-0.452 0-0.293-0.238-0.531-0.531-0.531-0.096 0-0.186 0.025-0.263 0.070l-1.41 0.83v-2.429c0-0.293-0.238-0.531-0.531-0.531s-0.531 0.238-0.531 0.531v2.478l-1.407-0.856c-0.082-0.055-0.184-0.088-0.293-0.088-0.293 0-0.531 0.238-0.531 0.531 0 0.199 0.109 0.372 0.271 0.463l1.959 1.185v1.402l-0.841-0.508c-0.062-0.046-0.139-0.073-0.223-0.073-0.208 0-0.376 0.168-0.376 0.376 0 0.148 0.085 0.276 0.209 0.337l1.231 0.754v2.207l-0.781 0.452-1.812-1.091 0.017-1.43c0-0.002 0-0.004 0-0.006 0-0.208-0.168-0.376-0.376-0.376-0.206 0-0.373 0.165-0.376 0.37l-0.017 0.999-1.787-1.065 0.038-2.181c0-0.003 0-0.006 0-0.009 0-0.293-0.238-0.531-0.531-0.531-0.29 0-0.525 0.232-0.531 0.521l-0.028 1.575-2.593-1.543c-0.083-0.056-0.185-0.090-0.295-0.090-0.293 0-0.531 0.238-0.531 0.531 0 0.203 0.114 0.379 0.281 0.468l2.682 1.595-1.522 0.788c-0.186 0.085-0.314 0.27-0.314 0.484 0 0.293 0.238 0.531 0.531 0.531 0.1 0 0.193-0.027 0.273-0.075l2.107-1.088 1.673 0.995-0.847 0.44c-0.135 0.059-0.227 0.192-0.227 0.345 0 0.208 0.168 0.376 0.376 0.376 0.073 0 0.141-0.021 0.199-0.057l1.259-0.654 1.453 0.864v1.402l-0.982 0.585-1.202-0.681c-0.054-0.032-0.119-0.050-0.188-0.050-0.208 0-0.377 0.169-0.377 0.377 0 0.139 0.075 0.26 0.187 0.325l0.837 0.477-2.087 1.246-1.891-1.057c-0.078-0.048-0.173-0.077-0.275-0.077-0.293 0-0.531 0.238-0.531 0.531 0 0.205 0.116 0.382 0.285 0.471l1.361 0.754-2.77 1.652c-0.164 0.092-0.273 0.265-0.273 0.464 0 0.293 0.238 0.531 0.531 0.531 0.106 0 0.205-0.031 0.288-0.085l2.871-1.713-0.026 1.731c-0 0.003-0 0.006-0 0.008 0 0.293 0.238 0.531 0.531 0.531 0.29 0 0.526-0.233 0.531-0.522l0.038-2.386 2.002-1.195-0.019 1.012c-0 0.002-0 0.005-0 0.008 0 0.208 0.168 0.376 0.376 0.376 0.205 0 0.372-0.164 0.376-0.368l0.028-1.479 0.595-0.361 1.462 0.843v1.791l-1.161 0.638c-0.1 0.069-0.166 0.183-0.166 0.312 0 0.208 0.168 0.376 0.376 0.376 0.054 0 0.106-0.012 0.153-0.032l0.795-0.439v2.137l-1.955 1.078c-0.154 0.095-0.255 0.262-0.255 0.453 0 0.293 0.238 0.531 0.531 0.531 0.085 0 0.166-0.020 0.237-0.056l1.446-0.794v2.312c0 0.293 0.238 0.531 0.531 0.531s0.531-0.238 0.531-0.531v-2.312l1.372 0.886c0.081 0.053 0.181 0.085 0.288 0.085 0.186 0 0.35-0.096 0.445-0.241l0.001-0.002c0.053-0.081 0.085-0.181 0.085-0.288 0-0.186-0.096-0.35-0.241-0.445l-1.949-1.258v-2.156l0.886 0.564c0.063 0.049 0.143 0.078 0.23 0.078 0.208 0 0.376-0.168 0.376-0.376 0-0.143-0.080-0.268-0.198-0.331l-1.295-0.834v-1.684l1.464-0.845 1.14 0.677 0.062 1.317c0.010 0.2 0.175 0.359 0.376 0.359 0.208 0 0.377-0.169 0.377-0.377 0-0.006-0-0.013-0-0.019l-0.039-0.812 1.494 0.888-0.115 2.246c-0 0.003-0 0.007-0 0.011 0 0.293 0.238 0.531 0.531 0.531 0.278 0 0.506-0.214 0.529-0.485l0.087-1.695 2.875 1.71c0.083 0.056 0.185 0.090 0.295 0.090 0.293 0 0.531-0.238 0.531-0.531 0-0.203-0.114-0.379-0.281-0.468zM17.076 17.77l-1.159 0.668-1.157-0.668v-1.336l1.157-0.668 1.157 0.668z"></path>
  </symbol>
  <symbol id="icon-alarm_clock" viewBox="0 0 32 32">
  <title>alarm_clock</title>
  <path d="M24.373 9.165l-2.205-1.725c-0.235-0.185-0.535-0.297-0.862-0.297-0.446 0-0.844 0.209-1.1 0.534l-1.174 1.508c1.85 0.653 3.395 1.782 4.539 3.241l1.042-1.296c0.186-0.235 0.299-0.537 0.299-0.864 0-0.446-0.209-0.844-0.535-1.1zM9.659 7.419l-2.22 1.737c-0.331 0.26-0.541 0.661-0.541 1.11 0 0.328 0.112 0.631 0.301 0.87l1.032 1.314c1.165-1.492 2.724-2.628 4.52-3.256l-1.114-1.526c-0.26-0.333-0.662-0.545-1.113-0.545-0.327 0-0.628 0.112-0.868 0.299z"></path>
  <path d="M21.897 25.148c1.865-1.64 3.036-4.030 3.039-6.694 0-4.727-3.718-8.727-8.395-9.050v-1.225c0.381-0.218 0.633-0.623 0.633-1.086 0-0.689-0.558-1.247-1.247-1.247s-1.247 0.558-1.247 1.247c0 0.463 0.252 0.867 0.627 1.082l0.006 1.232c-4.7 0.33-8.388 4.223-8.388 8.978 0 2.684 1.175 5.094 3.039 6.742l-1.496 1.513c-0.090 0.113-0.144 0.258-0.144 0.415 0 0.37 0.3 0.67 0.67 0.67 0.157 0 0.302-0.054 0.416-0.145l1.634-1.634c1.381 0.91 3.074 1.452 4.894 1.452 1.814 0 3.502-0.538 4.914-1.464l1.591 1.647c0.113 0.090 0.258 0.144 0.415 0.144 0.37 0 0.67-0.3 0.67-0.67 0-0.157-0.054-0.302-0.145-0.416zM15.928 26.072c-4.241 0-7.678-3.438-7.678-7.678s3.438-7.678 7.678-7.678c4.228 0 7.675 3.53 7.675 7.731-0.022 4.216-3.446 7.626-7.665 7.626-0.003 0-0.007 0-0.010 0z"></path>
  <path d="M19.682 17.65h-3.010v-3.763c0-0.416-0.337-0.753-0.753-0.753s-0.753 0.337-0.753 0.753v4.512c0 0.416 0.337 0.753 0.753 0.753h3.763c0.416 0 0.753-0.337 0.753-0.753s-0.337-0.753-0.753-0.753z"></path>
  </symbol>
  <symbol id="icon-avatar" viewBox="0 0 32 32">
  <title>avatar</title>
  <path d="M15.573 14.282c2.639-0.022 4.77-2.167 4.77-4.809 0-2.656-2.153-4.809-4.809-4.809s-4.809 2.153-4.809 4.809c0.012 2.659 2.17 4.809 4.83 4.809 0.007 0 0.013 0 0.020-0z"></path>
  <path d="M15.573 16.026c-8.862 0-9.754 10.015-9.761 10.117-0.001 0.013-0.002 0.028-0.002 0.044 0 0.148 0.057 0.283 0.151 0.384 0.103 0.115 0.252 0.187 0.417 0.188h18.39c0.166-0.001 0.315-0.073 0.417-0.188 0.094-0.101 0.151-0.236 0.151-0.384 0-0.015-0.001-0.031-0.002-0.046-0.007-0.102-0.899-10.115-9.761-10.115z"></path>
  </symbol>
  <symbol id="icon-baggage_personal_money" viewBox="0 0 32 32">
  <title>baggage_personal_money</title>
  <path d="M8.442 9.712l-4.764 1.821c-0.245 0.095-0.415 0.329-0.415 0.603 0 0.233 0.124 0.437 0.309 0.551l0.964 0.583-0.856 0.327c-0.244 0.096-0.414 0.329-0.414 0.603 0 0.232 0.122 0.435 0.306 0.549l0.985 0.594-0.879 0.337c-0.244 0.096-0.413 0.329-0.413 0.602 0 0.232 0.123 0.436 0.307 0.55l1.143 0.69-1.037 0.397c-0.244 0.096-0.413 0.329-0.413 0.602 0 0.232 0.123 0.436 0.307 0.55l6.588 3.979c0.095 0.059 0.211 0.094 0.334 0.094 0 0 0 0 0 0 0.091-0 0.178-0.019 0.256-0.052l13.068-5.558c0.232-0.101 0.391-0.329 0.391-0.593 0-0.24-0.131-0.449-0.325-0.561l-1.132-0.634 1.063-0.452c0.232-0.101 0.392-0.329 0.392-0.593 0-0.24-0.131-0.449-0.325-0.56l-0.972-0.545 0.905-0.376c0.232-0.101 0.391-0.329 0.391-0.593 0-0.24-0.131-0.449-0.325-0.561l-0.944-0.532 0.884-0.376c0.232-0.101 0.392-0.329 0.392-0.593 0-0.24-0.131-0.449-0.325-0.56l-6.3-3.541c-0.091-0.052-0.199-0.082-0.315-0.082-0.083 0-0.162 0.016-0.235 0.044l-5.331 2.042zM22.359 12.555l-3.996 1.693 0.019-0.79 3.183-1.353zM17.23 7.612l5.129 2.877-4.557 1.928-4.873-3.159zM9.648 10.512l4.946 3.279-4.058 1.725-5.417-3.272zM10.16 16.666c0.095 0.058 0.211 0.093 0.334 0.093 0.091 0 0.178-0.019 0.257-0.053l4.579-1.948v0.783l-4.794 2.038-5.417-3.279 0.696-0.265zM10.16 18.736c0.095 0.059 0.211 0.094 0.335 0.094 0.001 0 0.002 0 0.003 0 0.090 0 0.176-0.019 0.253-0.052l4.579-1.957v0.803l-4.794 2.040-5.417-3.272 0.713-0.275zM10.536 21.91l-5.417-3.283 0.875-0.335 4.166 2.517c0.096 0.060 0.213 0.096 0.339 0.096 0.001 0 0.001 0 0.002 0s0.002 0 0.003 0c0.090 0 0.176-0.019 0.253-0.052l4.583-1.948v0.96zM22.361 16.882l-4.111 1.744 0.023-0.969 3.104-1.317zM22.361 14.643l-4.049 1.712 0.019-0.811 3.212-1.366z"></path>
  <path d="M25.622 19.451c-1.18 0-2.446 0.341-2.446 1.087v0.435c-0.47-0.303-1.27-0.446-2.032-0.446-1.112 0-2.301 0.303-2.446 0.961h-0.013v4.156c0.041 0.657 1.080 0.988 2.143 1.040v0.596c0.045 0.719 1.287 1.050 2.446 1.050s2.446-0.341 2.446-1.087v-0.151c1.148-0.021 2.337-0.363 2.337-1.086v-5.456c0.017-0.76-1.255-1.101-2.435-1.101zM25.622 20.040c1.221 0 1.863 0.376 1.863 0.499s-0.64 0.499-1.863 0.499-1.863-0.376-1.863-0.499 0.642-0.499 1.863-0.499zM21.422 25.227c0.517 0.228 1.12 0.361 1.753 0.361 0.045 0 0.090-0.001 0.135-0.002 0.029 0.001 0.070 0.002 0.112 0.002 0.622 0 1.214-0.125 1.753-0.351l-0.030 0.656c0 0.128-0.64 0.499-1.863 0.499s-1.863-0.376-1.863-0.499zM25.166 24.499h-0.021v0.045c-0.113 0.152-0.739 0.453-1.842 0.453-1.221 0-1.863-0.376-1.863-0.499s0.64-0.499 1.863-0.499 1.863 0.371 1.863 0.499zM21.138 21.112c0.96 0 1.558 0.228 1.772 0.388v0.222c-0.215 0.16-0.813 0.388-1.772 0.388-1.221 0-1.863-0.376-1.863-0.499s0.642-0.493 1.863-0.493zM19.276 22.35c0.514 0.222 1.112 0.352 1.741 0.352 0.043 0 0.086-0.001 0.128-0.002 0.024 0.001 0.059 0.001 0.094 0.001 0.601 0 1.176-0.114 1.704-0.321l-0.032 0.637c-0.215 0.16-0.813 0.388-1.772 0.388-1.221 0-1.863-0.376-1.863-0.499zM19.276 23.646c0.509 0.221 1.101 0.349 1.724 0.349 0.031 0 0.062-0 0.093-0.001-0.145 0.123-0.234 0.301-0.238 0.5l-0.021 0.001v0.248c-1.022-0.055-1.558-0.376-1.558-0.491zM19.276 25.599v-0.608c0.458 0.204 0.992 0.328 1.553 0.34l0.005 0.753c-1.022-0.045-1.558-0.363-1.558-0.48zM23.283 27.735c-1.221 0-1.863-0.376-1.863-0.499v-0.608c0.514 0.222 1.112 0.352 1.741 0.352 0.043 0 0.086-0.001 0.128-0.002 0.030 0.001 0.073 0.002 0.116 0.002 0.629 0 1.227-0.129 1.77-0.363l-0.029 0.619c0 0.134-0.64 0.504-1.861 0.504zM25.729 26.493v-0.753c0.013 0 0.028 0 0.043 0 0.616 0 1.202-0.127 1.733-0.357l-0.028 0.619c0.008 0.124-0.595 0.474-1.74 0.497zM25.729 25.146v-0.499c0.010-0.039 0.016-0.083 0.016-0.129s-0.006-0.090-0.016-0.133c0.012 0.004 0.024 0.004 0.037 0.004 0.615 0 1.2-0.127 1.731-0.357l-0.028 0.615c0.017 0.132-0.585 0.482-1.731 0.504zM25.614 23.802c-0.132 0-0.263 0-0.395-0.015-0.429-0.208-0.93-0.34-1.459-0.365l-0.009-0.657c0.552 0.221 1.192 0.349 1.862 0.349s1.31-0.128 1.896-0.361l-0.035 0.55c0.009 0.134-0.632 0.504-1.853 0.504zM25.614 22.525c-1.221 0-1.863-0.376-1.863-0.499v-0.753c0.552 0.221 1.192 0.349 1.862 0.349s1.31-0.128 1.896-0.361l-0.035 0.765c0.009 0.134-0.632 0.504-1.853 0.504z"></path>
  </symbol>
  <symbol id="icon-breakdown" viewBox="0 0 32 32">
  <title>breakdown</title>
  <path d="M10.741 13.531l3.14 3.138 2.822-2.822-3.135-3.144c0.088-0.313 0.139-0.671 0.139-1.042 0-1.103-0.45-2.102-1.175-2.822-0.732-0.731-1.742-1.183-2.857-1.183-0.622 0-1.211 0.14-1.737 0.391l2.709 2.676c0.27 0.245 0.439 0.597 0.439 0.988 0 0.736-0.596 1.332-1.332 1.332-0.391 0-0.743-0.169-0.987-0.438l-2.69-2.684c-0.243 0.503-0.385 1.094-0.385 1.717 0 2.222 1.801 4.023 4.023 4.023 0.365 0 0.719-0.049 1.055-0.14z"></path>
  <path d="M23.895 21.966l2.679 2.681c0.25-0.505 0.397-1.1 0.397-1.729 0-1.111-0.457-2.116-1.194-2.836-0.706-0.734-1.696-1.189-2.791-1.189-0.383 0-0.752 0.056-1.101 0.159l-3.115-3.149-2.822 2.822 3.14 3.14c-0.088 0.312-0.139 0.671-0.139 1.042 0 1.104 0.449 2.102 1.175 2.823 0.731 0.729 1.741 1.18 2.855 1.18 0.621 0 1.21-0.14 1.736-0.391l-2.711-2.676c-0.27-0.245-0.439-0.597-0.439-0.988 0-0.736 0.596-1.332 1.332-1.332 0.391 0 0.743 0.169 0.987 0.438z"></path>
  <path d="M22.474 11.080l1.421-0.47 1.881-1.881-1.881-1.881-1.881 1.881-0.47 1.413-8.068 8.055-1.415-1.413-0.941 0.941c0.181 0.181 0.293 0.431 0.293 0.706 0 0.552-0.447 0.999-0.999 0.999-0.276 0-0.526-0.112-0.707-0.293l-3.763 3.763c-0.555 0.491-0.903 1.205-0.903 2 0 1.472 1.194 2.666 2.666 2.666 0.795 0 1.509-0.348 1.997-0.9l3.765-3.766c-0.181-0.181-0.293-0.431-0.293-0.706 0-0.552 0.447-0.999 0.999-0.999 0.276 0 0.526 0.112 0.707 0.293l0.941-0.941-1.413-1.413z"></path>
  </symbol>
  <symbol id="icon-buildings" viewBox="0 0 32 32">
  <title>buildings</title>
  <path d="M3.262 13.96l1.389 0.973 11.255-7.876 11.242 7.898 1.424-1.001-12.666-8.826-5.727 4.013v-2.145h-2.794v4.096l-4.122 2.867z"></path>
  <path d="M15.906 8.055l-9.569 6.685v12.542h19.138v-12.534zM20.373 23.078h-1.979v-1.979h1.981zM20.373 20.504h-1.979v-1.979h1.981zM22.939 23.078h-1.979v-1.979h1.981zM22.939 20.504h-1.979v-1.979h1.981z"></path>
  </symbol>
  <symbol id="icon-business_travel" viewBox="0 0 32 32">
  <title>business_travel</title>
  <path d="M13.855 15.71c0 0.007 0.001 0.015 0.001 0.023 0 0.088-0.026 0.169-0.071 0.237-0.088 0.127-0.234 0.211-0.401 0.211-0.002 0-0.003 0-0.005-0h0c-0.001 0.014-0.002 0.030-0.002 0.047 0 0.141 0.060 0.269 0.156 0.358 0.104 0.094 0.241 0.152 0.393 0.152s0.289-0.058 0.393-0.152c0.1-0.090 0.162-0.221 0.162-0.366s-0.063-0.276-0.162-0.367c-0.1-0.091-0.233-0.146-0.379-0.146-0.029 0-0.058 0.002-0.086 0.007zM10.094 11.366c0.017 1.059 0.803 2.856 2.437 3.631v-0.075c-0.061-0.321-0.097-0.689-0.097-1.066 0-0.904 0.202-1.761 0.563-2.528zM14.062 11.366c-0.655 0.834-0.832 2.568-0.564 3.556h1.981l3.712 3.473-2.939 2.751-3.718-3.473v-1.71c-2.292-0.822-3.36-3.185-3.387-4.598h-5.093v13.338h22.85v-13.338zM12.623 9.142c0.009-0.247 0.212-0.444 0.461-0.444 0.005 0 0.011 0 0.016 0l4.759-0c0.005-0 0.010-0 0.015-0 0.249 0 0.451 0.197 0.461 0.443l0 1.335h1.904v-1.78c0-0.982-0.852-1.778-1.904-1.778h-5.712c-1.052 0-1.898 0.796-1.898 1.778v1.778h1.898zM14.834 17.255l1.964 1.834 0.188-0.188-1.955-1.831zM14.245 17.806l1.183 1.099 0.188-0.188-1.18-1.101zM17.387 18.54l-1.959-1.836 0.188-0.188 1.964 1.834z"></path>
  </symbol>
  <symbol id="icon-call" viewBox="0 0 32 32">
  <title>call</title>
  <path d="M26.152 7.276q-0.909-0.941-1.848-1.84c-0.988-0.952-2.141-0.852-2.975 0.248-0.794 1.048-1.565 2.113-2.374 3.15-1.074 1.379-1.153 2.425 0.188 3.524 0.35 0.288 0.333 0.538 0.055 0.894-1.702 2.13-3.59 3.994-5.673 5.62-0.489 0.384-0.775 0.406-1.129-0.011-0.408-0.48-0.869-0.911-1.547-0.854-0.625-0.028-1.11 0.23-1.565 0.564-1.178 0.879-2.361 1.752-3.531 2.634-1.067 0.811-1.153 1.868-0.222 2.864 0.625 0.666 1.274 1.317 1.94 1.938 0.502 0.507 1.197 0.82 1.966 0.82 0.216 0 0.425-0.025 0.627-0.071 0.933-0.214 1.772-0.575 2.524-1.061 5.546-3.304 9.95-7.833 13.339-13.366 0.441-0.753 0.774-1.63 0.948-2.563 0.219-1.018-0.067-1.808-0.722-2.489z"></path>
  </symbol>
  </defs>
</svg>
