<svg style="position: absolute; width: 0; height: 0; overflow: hidden;" version="1.1" xmlns="http://www.w3.org/2000/svg" xmlns:xlink="http://www.w3.org/1999/xlink">
  <defs>
    <symbol id="icon-fwd-arrow" viewBox="0 0 32 32">
      <title>fwd-arrow</title>
      <path d="M15.909 20.218c-0.352 0.268-0.42 0.77-0.152 1.121s0.77 0.42 1.121 0.152l6-4.568c0.633-0.482 0.755-1.385 0.273-2.018-0.073-0.096-0.158-0.182-0.253-0.257l-5.894-4.661c-0.347-0.274-0.85-0.215-1.124 0.131s-0.215 0.85 0.131 1.124l5.733 4.533-5.836 4.443z"></path>
      <path d="M14.847 15.881l-5.889 4.441c-0.353 0.266-0.423 0.768-0.157 1.12s0.768 0.423 1.12 0.157l6.055-4.566c0.635-0.479 0.762-1.382 0.283-2.017-0.075-0.1-0.163-0.19-0.262-0.267l-5.949-4.659c-0.348-0.272-0.851-0.211-1.123 0.136s-0.211 0.851 0.136 1.123l5.785 4.531z"></path>
    </symbol>
    <symbol id="icon-make-claim" viewBox="0 0 32 32">
      <title>make-claim</title>
      <path d="M26.267 16c0 5.67-4.597 10.267-10.267 10.267s-10.267-4.597-10.267-10.267c0-5.67 4.597-10.267 10.267-10.267s10.267 4.597 10.267 10.267zM24.933 16c0-4.934-4-8.933-8.933-8.933s-8.933 4-8.933 8.933c0 4.934 4 8.933 8.933 8.933s8.933-4 8.933-8.933z"></path>
      <path d="M21.887 12.474l-6.042 5.241-0.953-1.099 6.042-5.241z"></path>
      <path d="M14.95 16.706l-2.301-2.743 1.114-0.935 2.301 2.743z"></path>
      <path d="M15.542 6.814l-0.053 3.149 1.22 0.020 0.053-3.149-1.22-0.020zM25.593 15.666h-3.15v1.221h3.15v-1.221zM16.752 25.728v-3.15h-1.221v3.15h1.221zM7.3 16.886h2.539v-1.221h-3.15v1.221h0.61z"></path>
    </symbol>
    <symbol id="icon-special-offers" viewBox="0 0 32 32">
      <title>special-offers</title>
      <path d="M16.574 8.079l-11.882 11.882 7.551 7.551 11.882-11.882-2.134-5.417-5.417-2.134zM16.277 6.65l6.655 2.622 2.622 6.655-13.311 13.311-9.277-9.277 13.311-13.311z"></path>
      <path d="M17.668 14.335c-0.791-0.791-0.791-2.074 0-2.866s2.074-0.791 2.866 0c0.791 0.791 0.791 2.074 0 2.866s-2.074 0.791-2.866 0zM18.315 13.688c0.434 0.434 1.137 0.434 1.571 0s0.434-1.137 0-1.571c-0.434-0.434-1.137-0.434-1.571 0s-0.434 1.137 0 1.571z"></path>
      <path d="M23.941 6.983l-5.717 5.717 1.079 1.079 5.717-5.717z"></path>
    </symbol>
    <symbol id="icon-help-support" viewBox="0 0 32 32">
      <title>help-support</title>
      <path d="M23.949 25.549c-4.39 4.39-11.509 4.39-15.899 0s-4.39-11.509 0-15.899c4.39-4.39 11.509-4.39 15.899 0s4.39 11.509 0 15.899zM23.113 24.713c3.928-3.928 3.928-10.297 0-14.225s-10.297-3.928-14.225 0c-3.928 3.928-3.928 10.297 0 14.225s10.297 3.928 14.225 0z"></path>
      <path d="M20.812 22.412c-2.657 2.657-6.966 2.657-9.623 0s-2.657-6.966 0-9.623c2.657-2.657 6.966-2.657 9.623 0s2.657 6.966 0 9.623zM19.975 21.575c2.195-2.195 2.195-5.754 0-7.949s-5.754-2.195-7.949 0c-2.195 2.195-2.195 5.754 0 7.949s5.754 2.195 7.949 0z"></path>
      <path d="M12.728 23.533l-2.473-2.474-3.026 1.752 1.456 2.104 2.136 1.479 1.907-2.861zM10.979 27.223l-2.72-1.883-1.883-2.72 3.975-2.301 3.138 3.138-2.51 3.766z"></path>
      <path d="M19.272 11.667l2.474 2.473 3.026-1.752-1.456-2.104-2.136-1.479-1.907 2.861zM21.021 7.977l2.72 1.883 1.883 2.72-3.975 2.301-3.138-3.138 2.51-3.766z"></path>
      <path d="M7.206 12.421l2.861 1.907 2.473-2.473-1.752-3.026-2.104 1.456-1.479 2.136zM6.377 12.579l1.883-2.72 2.72-1.883 2.301 3.975-3.138 3.138-3.766-2.51z"></path>
      <path d="M21.933 20.872l-2.474 2.474 1.752 3.026 2.104-1.456 1.479-2.136-2.861-1.907zM25.623 22.621l-1.883 2.72-2.72 1.883-2.301-3.975 3.138-3.138 3.766 2.51z"></path>
      <path d="M16 7.393c-1.243 0-2.619 0.279-3.838 0.714-0.463 0.165-0.861 0.34-1.097 0.475-0.047 0.027-0.084 0.051-0.109 0.069-0.006 0.005-0.004 0.003 0.012-0.019 0.098-0.13 0.135-0.335-0.036-0.521-0.063-0.068-0.131-0.102-0.198-0.118-0.026-0.006-0.045-0.008-0.059-0.008-0.091 0-0.144 0.026-0.172 0.051 0.013-0.012 0.040-0.044 0.075-0.093 0.080-0.113 0.182-0.287 0.328-0.557 0.059-0.11 0.362-0.682 0.454-0.853 0.203-0.376 0.383-0.694 0.57-0.999 1.123-1.832 2.298-2.875 3.774-2.875 1.13 0 2.25 0.651 3.325 1.768 0.702 0.73 1.354 1.634 1.86 2.521 0.206 0.362 0.374 0.698 0.479 0.955 0.055 0.135 0.093 0.248 0.112 0.341 0.016 0.079 0.022 0.149 0.009 0.229-0.034 0.21-0.197 0.398-0.459 0.398-0.2 0-1.358-0.628-1.699-0.776-1.028-0.446-2.115-0.703-3.33-0.703zM11.687 7.807c-0.456 0.846-0.612 1.065-1.012 1.065-0.151 0-0.277-0.030-0.396-0.16-0.191-0.208-0.149-0.444-0.020-0.615 0.078-0.103 0.194-0.188 0.364-0.285 0.287-0.165 0.731-0.36 1.241-0.542 0.044-0.016 0.089-0.031 0.134-0.047-0.121 0.227-0.269 0.507-0.31 0.583zM16 6.506c1.346 0 2.55 0.285 3.683 0.776 0.182 0.079 0.342 0.153 0.507 0.236-0.023-0.042-0.047-0.085-0.072-0.128-0.473-0.828-1.082-1.673-1.729-2.346-0.924-0.961-1.845-1.496-2.685-1.496-1.073 0-2.042 0.859-3.017 2.451-0.177 0.29-0.35 0.594-0.546 0.957-0.030 0.056-0.084 0.156-0.144 0.27 1.275-0.44 2.694-0.719 4.003-0.719z"></path>
    </symbol>
    <symbol id="icon-log-out" viewBox="0 0 32 32">
      <title>log-out</title>
      <path d="M27.636 16c0 6.426-5.209 11.636-11.636 11.636s-11.636-5.209-11.636-11.636c0-6.426 5.209-11.636 11.636-11.636s11.636 5.209 11.636 11.636zM26.124 16c0-5.592-4.533-10.124-10.124-10.124s-10.124 4.533-10.124 10.124c0 5.592 4.533 10.124 10.124 10.124s10.124-4.533 10.124-10.124z"></path>
      <path d="M16.080 13.394c0.32-0.268 0.362-0.744 0.094-1.064s-0.744-0.362-1.064-0.094l-3.422 2.865c-0.576 0.482-0.652 1.34-0.169 1.916 0.046 0.055 0.096 0.106 0.15 0.153l3.362 2.924c0.315 0.274 0.792 0.241 1.066-0.074s0.241-0.792-0.074-1.066l-3.228-2.808 3.286-2.752z"></path>
      <path d="M20.307 16.907h-0.832v-1.511h0.832c0.010 0 0.010 0.002 0.010 0.247l0 1.264h-8.549v-1.511h8.549l-0.010 1.511zM20.307 16.907h-0.832v-1.511h0.832c0.010 0 0.010 0.002 0.010 0.247l0 1.264h-8.549v-1.511h8.549l-0.010 1.511zM20.317 15.643l0 1.264h-8.549v-1.511h8.549c0 0 0 0.082 0 0.247 0 0.205 0 0.579 0 1.264l-0-1.264z"></path>
    </symbol>
    <symbol id="icon-notify-iv" viewBox="0 0 32 32">
    <title>notify-iv</title>
      <path d="M16 26.4c-5.744 0-10.4-4.656-10.4-10.4s4.656-10.4 10.4-10.4c5.744 0 10.4 4.656 10.4 10.4s-4.656 10.4-10.4 10.4zM11.695 9.258l-1.504 1.177c-0.415 0.325-0.489 0.925-0.164 1.34l0.701 0.896c0.79-1.017 1.866-1.801 3.108-2.224l-0.801-1.024c-0.325-0.416-0.925-0.489-1.34-0.164zM21.661 10.298l-1.493-1.168c-0.412-0.322-1.008-0.25-1.331 0.163l-0.794 1.014c1.23 0.423 2.297 1.201 3.085 2.21l0.695-0.887c0.323-0.413 0.25-1.009-0.162-1.331zM15.984 21.879c-2.864 0-5.199-2.348-5.199-5.194s2.335-5.209 5.199-5.209c2.864 0 5.199 2.391 5.199 5.237s-2.335 5.166-5.199 5.166zM19.97 21.27c1.261-1.112 2.059-2.734 2.059-4.535 0-3.201-2.518-5.911-5.687-6.131v-0.83c0.256-0.146 0.43-0.417 0.43-0.732 0-0.467-0.379-0.846-0.846-0.846s-0.846 0.378-0.846 0.846c0 0.315 0.174 0.586 0.429 0.732v0.829c-3.169 0.218-5.686 2.897-5.686 6.098 0 1.805 0.801 3.438 2.067 4.56l-1.020 1.020c-0.178 0.178-0.178 0.465 0 0.642s0.464 0.176 0.641 0l1.107-1.107c0.954 0.62 2.090 0.984 3.308 0.984 1.221 0 2.358-0.36 3.313-0.977l1.101 1.101c0.177 0.176 0.464 0.176 0.641 0 0.178-0.177 0.178-0.464 0-0.642l-1.012-1.012zM18.555 16.091h-2.035v-2.544c0-0.282-0.227-0.509-0.509-0.509-0.281 0-0.509 0.227-0.509 0.509v3.051c0 0.28 0.227 0.509 0.509 0.509h2.544c0.28 0 0.508-0.227 0.508-0.509s-0.227-0.507-0.507-0.507z"></path>
    </symbol>
    <symbol id="icon-notify" viewBox="0 0 32 32">
    <title>notify</title>
      <path d="M16 27.36c-6.274 0-11.36-5.086-11.36-11.36s5.086-11.36 11.36-11.36c6.274 0 11.36 5.086 11.36 11.36s-5.086 11.36-11.36 11.36zM16 26.4c5.744 0 10.4-4.656 10.4-10.4s-4.656-10.4-10.4-10.4c-5.744 0-10.4 4.656-10.4 10.4s4.656 10.4 10.4 10.4z"></path>
      <path d="M11.698 9.226l-1.483 1.203c-0.409 0.332-0.473 0.933-0.14 1.343l0.716 0.883c0.772-1.031 1.834-1.834 3.069-2.278l-0.819-1.010c-0.332-0.41-0.933-0.473-1.343-0.141zM21.685 10.235l-1.513-1.142c-0.418-0.315-1.012-0.232-1.328 0.186l-0.776 1.028c1.237 0.401 2.318 1.161 3.124 2.156l0.679-0.899c0.316-0.418 0.233-1.013-0.185-1.328z"></path>
      <path d="M16.165 21.786c-2.864 0.050-5.239-2.257-5.289-5.103s2.244-5.249 5.107-5.299c2.864-0.050 5.24 2.3 5.289 5.145s-2.244 5.206-5.108 5.256v0zM20.197 21.090c1.242-1.134 2.011-2.769 1.98-4.57-0.056-3.201-2.621-5.866-5.793-6.031l-0.014-0.829c0.253-0.15 0.423-0.425 0.417-0.739-0.008-0.467-0.394-0.839-0.86-0.831s-0.839 0.393-0.831 0.86c0.005 0.315 0.184 0.583 0.442 0.725l0.014 0.829c-3.164 0.273-5.635 2.996-5.579 6.197 0.031 1.805 0.861 3.424 2.146 4.523l-1.002 1.038c-0.174 0.181-0.169 0.468 0.011 0.641s0.467 0.168 0.641-0.011l1.088-1.127c0.965 0.604 2.106 0.947 3.324 0.926 1.22-0.021 2.351-0.401 3.296-1.035l1.12 1.081c0.18 0.173 0.467 0.168 0.641-0.011 0.175-0.18 0.17-0.467-0.011-0.641l-1.029-0.994z"></path>
      <path d="M18.608 16.037l-2.035 0.036-0.044-2.543c-0.005-0.281-0.236-0.505-0.517-0.5s-0.505 0.236-0.5 0.517l0.053 3.050c0.005 0.28 0.236 0.505 0.517 0.5l2.543-0.044c0.28-0.005 0.504-0.236 0.499-0.517s-0.236-0.503-0.516-0.498z"></path>
    </symbol>
    <symbol id="icon-documents" viewBox="0 0 32 32">
      <title>documents</title>
      <path d="M7.68 25.6h11.096l5.544-5.544v-13.656h-16.64v19.2zM6.4 5.12h19.2v15.467l-6.293 6.293h-12.907v-21.76z"></path>
      <path d="M19.84 21.12v3.185l3.185-3.185h-3.185zM18.773 20.053h6.827l-6.827 6.827v-6.827z"></path>
      <path d="M9.813 10.667h12.373v-1.067h-12.373z"></path>
      <path d="M9.813 14.080h12.373v-1.067h-12.373z"></path>
      <path d="M9.813 17.28h12.373v-1.067h-12.373z"></path>
    </symbol>
    <symbol id="icon-login-iv" viewBox="0 0 32 32">
    <title>login-iv</title>
      <path d="M16 26.4c-5.744 0-10.4-4.656-10.4-10.4s4.656-10.4 10.4-10.4c5.744 0 10.4 4.656 10.4 10.4s-4.656 10.4-10.4 10.4zM15.984 14.76c1.633 0 2.962-1.32 2.962-2.943s-1.329-2.943-2.962-2.943c-1.633 0-2.961 1.321-2.961 2.943s1.328 2.943 2.961 2.943zM15.984 15.826c-5.423 0-5.968 6.128-5.973 6.19-0.008 0.096 0.025 0.191 0.091 0.261s0.159 0.111 0.255 0.111h11.253c0.097 0 0.19-0.040 0.255-0.111s0.099-0.165 0.091-0.261c-0.005-0.062-0.55-6.19-5.974-6.19z"></path>
    </symbol>
    <symbol id="icon-login" viewBox="0 0 32 32">
      <title>login</title>
      <path d="M15.984 14.76c1.633 0 2.962-1.32 2.962-2.943s-1.329-2.943-2.962-2.943c-1.633 0-2.961 1.321-2.961 2.943s1.328 2.943 2.961 2.943z"></path>
      <path d="M15.984 15.826c-5.423 0-5.968 6.128-5.973 6.19-0.008 0.096 0.025 0.191 0.091 0.261s0.159 0.111 0.255 0.111h11.253c0.097 0 0.19-0.040 0.255-0.111s0.099-0.165 0.091-0.261c-0.005-0.062-0.55-6.19-5.974-6.19z"></path>
      <path d="M16 27.36c-6.274 0-11.36-5.086-11.36-11.36s5.086-11.36 11.36-11.36c6.274 0 11.36 5.086 11.36 11.36s-5.086 11.36-11.36 11.36zM16 26.4c5.744 0 10.4-4.656 10.4-10.4s-4.656-10.4-10.4-10.4c-5.744 0-10.4 4.656-10.4 10.4s4.656 10.4 10.4 10.4z"></path>
    </symbol>
    <symbol id="icon-burger" viewBox="0 0 32 32">
      <title>burger</title>
      <path d="M7.040 8.32h17.92c0.884 0 1.6 0.716 1.6 1.6v0.023c0 0.884-0.716 1.6-1.6 1.6h-17.92c-0.884 0-1.6-0.716-1.6-1.6v-0.023c0-0.884 0.716-1.6 1.6-1.6z"></path>
      <path d="M7.040 14.422h17.92c0.884 0 1.6 0.716 1.6 1.6v0.023c0 0.884-0.716 1.6-1.6 1.6h-17.92c-0.884 0-1.6-0.716-1.6-1.6v-0.023c0-0.884 0.716-1.6 1.6-1.6z"></path>
      <path d="M7.040 20.313h17.92c0.884 0 1.6 0.716 1.6 1.6v0.023c0 0.884-0.716 1.6-1.6 1.6h-17.92c-0.884 0-1.6-0.716-1.6-1.6v-0.023c0-0.884 0.716-1.6 1.6-1.6z"></path>
    </symbol>
    <symbol id="icon-close" viewBox="0 0 32 32">
      <title>close</title>
      <path d="M8.373 8.371c0.498-0.493 1.303-0.495 1.801-0.001l13.217 13.097c0.497 0.493 0.496 1.293-0.001 1.785v0c-0.498 0.493-1.303 0.495-1.801 0.001l-13.217-13.097c-0.497-0.493-0.496-1.293 0.001-1.785z"></path>
      <path d="M8.374 23.251c-0.498-0.493-0.499-1.291-0.001-1.785l13.217-13.097c0.497-0.493 1.304-0.491 1.801 0.001v0c0.498 0.493 0.499 1.291 0.001 1.785l-13.217 13.097c-0.497 0.493-1.304 0.491-1.801-0.001z"></path>
    </symbol>
    <symbol id="icon-facebook" viewBox="0 0 32 32">
      <title>facebook</title>
      <path d="M23.117 8h-14.234c-0.488 0-0.883 0.395-0.883 0.883v14.234c0 0.488 0.395 0.883 0.883 0.883h7.663v-6.196h-2.085v-2.415h2.085v-1.781c0-2.067 1.262-3.192 3.106-3.192 0.883 0 1.642 0.066 1.863 0.095v2.16l-1.279 0.001c-1.003 0-1.197 0.476-1.197 1.176v1.542h2.391l-0.311 2.415h-2.080v6.196h4.077c0.488 0 0.883-0.395 0.883-0.883v-14.234c0-0.488-0.395-0.883-0.883-0.883v0z"></path>
    </symbol>
    <symbol id="icon-twitter" viewBox="0 0 32 32">
      <title>twitter</title>
      <path d="M22.444 8h-12.889c-0.856 0-1.556 0.7-1.556 1.556v12.889c0 0.856 0.7 1.556 1.556 1.556h12.889c0.856 0 1.556-0.7 1.556-1.556v-12.889c0-0.856-0.7-1.556-1.556-1.556v0zM19.714 21.372c-0.515 0.243-0.982 0.414-1.4 0.511s-0.87 0.146-1.355 0.146c-0.551 0-1.038-0.070-1.462-0.209s-0.785-0.338-1.084-0.595c-0.299-0.258-0.507-0.532-0.622-0.822s-0.173-0.711-0.173-1.262v-4.23h-1.333v-1.706c0.474-0.154 0.88-0.374 1.217-0.662s0.609-0.632 0.813-1.035c0.205-0.402 0.345-0.915 0.422-1.537h1.715v3.048h2.862v1.893h-2.862v3.092c0 0.699 0.037 1.148 0.111 1.346s0.212 0.357 0.413 0.475c0.267 0.16 0.572 0.24 0.915 0.24 0.61 0 1.218-0.199 1.822-0.596v1.901h0z"></path>
    </symbol>
    <symbol id="icon-warning" viewBox="0 0 32 32">
      <title>warning</title>
      <path d="M16 26.24c-5.655 0-10.24-4.585-10.24-10.24s4.585-10.24 10.24-10.24c5.655 0 10.24 4.585 10.24 10.24s-4.585 10.24-10.24 10.24zM15.762 17.909h0.655c0.573 0 0.901-0.311 0.918-0.885l0.197-6.291c0.016-0.59-0.295-0.918-0.885-0.918h-1.114c-0.59 0-0.901 0.328-0.885 0.918l0.197 6.291c0.016 0.573 0.344 0.885 0.918 0.885zM14.796 20.628c0 0.59 0.311 0.901 0.901 0.901h0.786c0.59 0 0.901-0.311 0.901-0.901v-0.655c0-0.59-0.311-0.901-0.901-0.901h-0.786c-0.59 0-0.901 0.311-0.901 0.901v0.655z"></path>
    </symbol>
  </defs>
</svg>
