<?xml version="1.0" standalone="no"?>
<!DOCTYPE svg PUBLIC "-//W3C//DTD SVG 20010904//EN"
 "http://www.w3.org/TR/2001/REC-SVG-20010904/DTD/svg10.dtd">
<svg version="1.0" xmlns="http://www.w3.org/2000/svg"
 width="270.000000pt" height="270.000000pt" viewBox="0 0 270.000000 270.000000"
 preserveAspectRatio="xMidYMid meet">
<metadata>
Created by potrace 1.11, written by Peter Selinger 2001-2013
</metadata>
<g transform="translate(0.000000,270.000000) scale(0.100000,-0.100000)"
fill="#000000" stroke="none">
<path d="M1017 2148 c-19 -40 -94 -197 -167 -348 -325 -675 -327 -679 -352
-685 -12 -3 -54 -12 -93 -20 -166 -37 -301 -92 -354 -145 -25 -26 -31 -40 -31
-74 0 -83 77 -196 178 -264 21 -13 24 -13 37 4 21 28 19 37 -20 78 -19 21 -38
48 -41 61 -9 35 21 81 72 111 52 30 174 68 174 54 0 -5 -30 -72 -66 -147 -36
-76 -87 -181 -111 -233 -25 -52 -52 -107 -59 -123 l-15 -27 203 0 203 0 96
288 95 287 215 3 c118 1 260 -1 317 -5 l103 -8 115 -220 c63 -121 129 -248
146 -282 l32 -63 83 0 c46 0 83 2 83 4 0 2 -33 66 -73 142 -41 77 -104 197
-141 267 -37 71 -65 131 -62 135 9 9 373 -27 501 -49 187 -33 295 -80 295
-129 0 -36 -187 -88 -455 -126 -66 -10 -121 -18 -123 -19 -1 -1 0 -10 4 -19 8
-21 32 -20 201 4 390 57 666 140 687 208 41 129 -353 263 -964 327 -85 9 -182
20 -214 23 l-60 7 -76 145 c-41 80 -111 213 -155 297 -44 84 -83 149 -87 145
-4 -4 -20 -43 -37 -87 l-29 -80 105 -203 c57 -112 103 -205 101 -206 -1 -2
-103 -6 -224 -10 l-222 -6 23 73 c13 39 91 277 174 526 83 250 151 456 151
458 0 2 -29 3 -64 3 l-64 0 -35 -72z"/>
</g>
</svg>
