<?xml version="1.0" standalone="no"?>
<!DOCTYPE svg PUBLIC "-//W3C//DTD SVG 20010904//EN"
 "http://www.w3.org/TR/2001/REC-SVG-20010904/DTD/svg10.dtd">
<svg version="1.0" xmlns="http://www.w3.org/2000/svg"
 width="270.000000pt" height="270.000000pt" viewBox="0 0 270.000000 270.000000"
 preserveAspectRatio="xMidYMid meet">
<metadata>
Created by potrace 1.11, written by Peter Selinger 2001-2013
</metadata>
<g transform="translate(0.000000,270.000000) scale(0.100000,-0.100000)"
fill="#000000" stroke="none">
<path d="M1280 2444 c-479 -61 -804 -402 -867 -909 -10 -78 -10 -310 -1 -400
19 -170 85 -353 176 -480 57 -81 184 -196 268 -246 121 -71 216 -104 419 -145
17 -3 104 -7 195 -9 144 -3 192 0 310 19 86 14 234 58 383 114 l97 37 0 192
c0 106 -4 193 -8 193 -4 0 -24 -12 -43 -26 -130 -96 -397 -199 -569 -219 -412
-48 -722 119 -828 445 -40 123 -57 289 -29 291 6 0 351 1 766 1 l753 1 -5 181
c-5 173 -7 200 -22 291 -8 47 -60 206 -82 249 -30 58 -94 146 -141 195 -143
146 -336 219 -597 226 -77 2 -156 1 -175 -1z m220 -288 c269 -24 443 -217 452
-505 l3 -75 -580 -1 c-319 0 -586 1 -593 4 -10 3 -12 16 -7 55 17 120 75 241
163 337 72 78 149 128 242 158 63 20 194 40 235 35 11 -1 49 -5 85 -8z"/>
</g>
</svg>
