<?xml version="1.0" encoding="UTF-8"?>
<svg width="220px" height="50px" viewBox="0 0 220 50" version="1.1" xmlns="http://www.w3.org/2000/svg" xmlns:xlink="http://www.w3.org/1999/xlink">
    <!-- Generator: Sketch 47.1 (45422) - http://www.bohemiancoding.com/sketch -->
    <title>logo</title>
    <desc>Created with Sketch.</desc>
    <defs></defs>
    <g id="first_alternative_logo" stroke="none" stroke-width="1" fill="none" fill-rule="evenodd">
        <g id="logo">
            <g id="Group" transform="translate(71.000000, 21.000000)" fill="#751F7C">
                <polygon id="Fill-4" points="0 0 7.96923077 0 7.96923077 1.08052024 1.39587616 1.08052024 1.39587616 3.69023054 5.1454528 3.69023054 5.1454528 4.75674078 1.39587616 4.75674078 1.39587616 7.96923077 0 7.96923077"></polygon>
                <polygon id="Fill-6" points="10.2461538 7.96923077 11.3846154 7.96923077 11.3846154 1.13846154 10.2461538 1.13846154"></polygon>
                <path d="M15.0128461,2.13636625 L15.0128461,4.34337632 L18.8285959,4.34337632 C19.4186682,4.34337632 19.5886826,4.19867831 19.5886826,3.65131058 L19.5886826,2.82989359 C19.5886826,2.26571751 19.3344269,2.13636625 18.8285959,2.13636625 L15.0128461,2.13636625 Z M13.6615385,1.13846154 L19.4186682,1.13846154 C20.4659412,1.13846154 20.9219932,1.50897614 20.9219932,2.45828279 L20.9219932,3.99003547 C20.9219932,4.92362996 20.4659412,5.29414456 19.4186682,5.29414456 L18.4736336,5.29414456 L21.6307692,7.96923077 L19.8249412,7.96923077 L16.9706915,5.29414456 L15.0128461,5.29414456 L15.0128461,7.96923077 L13.6615385,7.96923077 L13.6615385,1.13846154 Z" id="Fill-8"></path>
                <path d="M25.4505379,2.1530118 L25.4505379,3.92491268 L30.1125048,3.92491268 C31.501027,3.92491268 31.8769231,4.31217349 31.8769231,5.53569845 L31.8769231,6.35698364 C31.8769231,7.61448525 31.4831457,7.96923077 30.1125048,7.96923077 L25.6903806,7.96923077 C24.3018584,7.96923077 23.9076923,7.61448525 23.9076923,6.35698364 L23.9076923,6.16444925 L25.1589949,5.92186324 L25.1589949,6.93824019 L30.6442793,6.93824019 L30.6442793,5.0205685 L25.9652085,5.0205685 C24.5934014,5.0205685 24.1992353,4.66582298 24.1992353,3.40941739 L24.1992353,2.76641831 C24.1992353,1.49247637 24.6101166,1.13846154 25.9652085,1.13846154 L30.0102704,1.13846154 C31.2782881,1.13846154 31.7914038,1.4610571 31.7914038,2.63672247 L31.7914038,2.79783758 L30.54049,3.05503721 L30.54049,2.1530118 L25.4505379,2.1530118 Z" id="Fill-9"></path>
                <polygon id="Fill-10" points="37.6547402 7.96923077 36.3287269 7.96923077 36.3287269 2.15213264 33.0153846 2.15213264 33.0153846 1.13846154 40.9846154 1.13846154 40.9846154 2.15213264 37.6547402 2.15213264"></polygon>
                <path d="M55.0231669,4.98891361 L52.8679694,0.911119527 L50.7138265,4.98891361 L55.0231669,4.98891361 Z M52.1866035,0 L53.61262,0 L58.0615385,7.96923077 L56.5887615,7.96923077 L55.5660095,6.00757396 L50.1555143,6.00757396 L49.1320592,7.96923077 L47.8153846,7.96923077 L52.1866035,0 Z" id="Fill-11"></path>
                <polygon id="Fill-12" points="60.3384615 1.13846154 61.6719674 1.13846154 61.6719674 6.93807474 67.1692308 6.93807474 67.1692308 7.96923077 60.3384615 7.96923077"></polygon>
                <polygon id="Fill-13" points="72.9470479 7.96923077 71.6214104 7.96923077 71.6214104 2.15213264 68.3076923 2.15213264 68.3076923 1.13846154 76.2769231 1.13846154 76.2769231 2.15213264 72.9470479 2.15213264"></polygon>
                <polygon id="Fill-14" points="78.5538462 1.13846154 85.3209948 1.13846154 85.3209948 2.15354001 79.8219452 2.15354001 79.8219452 3.90964769 83.1341709 3.90964769 83.1341709 4.92472616 79.8219452 4.92472616 79.8219452 6.97132605 85.3846154 6.97132605 85.3846154 7.96923077 78.5538462 7.96923077"></polygon>
                <path d="M89.0128461,2.13636625 L89.0128461,4.34337632 L92.8289788,4.34337632 C93.4186682,4.34337632 93.5871509,4.19867831 93.5871509,3.65131058 L93.5871509,2.82989359 C93.5871509,2.26571751 93.3344269,2.13636625 92.8289788,2.13636625 L89.0128461,2.13636625 Z M87.6615385,1.13846154 L93.4186682,1.13846154 C94.4659412,1.13846154 94.9219932,1.50897614 94.9219932,2.45828279 L94.9219932,3.99003547 C94.9219932,4.92362996 94.4659412,5.29414456 93.4186682,5.29414456 L92.4736336,5.29414456 L95.6307692,7.96923077 L93.8245583,7.96923077 L90.9703085,5.29414456 L89.0128461,5.29414456 L89.0128461,7.96923077 L87.6615385,7.96923077 L87.6615385,1.13846154 Z" id="Fill-15"></path>
                <path d="M99.1110823,3.73192503 L99.1110823,7.96923077 L97.9076923,7.96923077 L97.9076923,1.13846154 L98.899327,1.13846154 L103.957475,5.60011027 C104.283593,5.87414488 104.543307,6.17996749 104.788265,6.53475096 C104.707104,6.09958401 104.673533,5.68195527 104.673533,5.26249964 L104.673533,1.13846154 L105.876923,1.13846154 L105.876923,7.96923077 L104.982312,7.96923077 L99.8271399,3.44181373 C99.5172541,3.16777913 99.2416771,2.87766783 99.0136896,2.50717304 C99.078987,2.91055198 99.1110823,3.32964223 99.1110823,3.73192503" id="Fill-16"></path>
                <path d="M113.306692,5.39184397 L111.498077,2.13813977 L109.70471,5.39184397 L113.306692,5.39184397 Z M110.937196,1.13846154 L112.105426,1.13846154 L116.123077,7.96923077 L114.731947,7.96923077 L113.850147,6.37398399 L109.160891,6.37398399 L108.296517,7.96923077 L107.015385,7.96923077 L110.937196,1.13846154 Z" id="Fill-17"></path>
                <polygon id="Fill-18" points="121.900423 7.96923077 120.574598 7.96923077 120.574598 2.15213264 117.261538 2.15213264 117.261538 1.13846154 125.230769 1.13846154 125.230769 2.15213264 121.900423 2.15213264"></polygon>
                <polygon id="Fill-19" points="127.507692 7.96923077 128.646154 7.96923077 128.646154 1.13846154 127.507692 1.13846154"></polygon>
                <polygon id="Fill-20" points="130.923077 1.13846154 132.381723 1.13846154 135.604439 6.63223576 138.690984 1.13846154 140.030769 1.13846154 136.095655 7.96923077 135.062063 7.96923077"></polygon>
                <polygon id="Fill-21" points="141.169231 1.13846154 141.169231 7.96923077 148 7.96923077 148 6.96986446 142.466217 6.96986446 142.466217 4.92509156 145.852935 4.92509156 145.852935 3.91001309 142.466217 3.91001309 142.466217 2.15354001 148 2.15354001 148 1.13846154"></polygon>
            </g>
            <g id="A" transform="translate(4.000000, 3.000000)">
                <polygon id="Fill-1" fill="#751F7C" points="24.8779929 0 4 44 13.4154356 44 28 0"></polygon>
                <path d="M33.9099758,24.45856 L34.3039835,24.5070599 C93.5224077,32.0382582 42.728015,38.7091544 42.728015,38.7091544 L42.0825399,37.6472349 C74.4447513,33.457452 36.6202636,29.6800452 36.6202636,29.6800452 L43.6090355,43 L39.1816929,43 L32.0761593,29.5251502 C-7.00945635,28.0280011 5.63392007,37.1599504 5.63392007,37.1599504 L5.01295987,38.2071423 C-14.5734441,23.9976839 29.5539034,24.3430236 29.5539034,24.3430236 L24.6122531,14.7806693 L26.2373138,10 L33.9099758,24.45856 Z" id="Fill-2" fill="#9B5AA4"></path>
            </g>
        </g>
    </g>
</svg>