<?xml version="1.0" encoding="UTF-8"?>
<svg width="150px" height="72px" viewBox="0 0 150 72" version="1.1" xmlns="http://www.w3.org/2000/svg" xmlns:xlink="http://www.w3.org/1999/xlink">
    <!-- Generator: Sketch 47.1 (45422) - http://www.bohemiancoding.com/sketch -->
    <title>logo_alt</title>
    <desc>Created with Sketch.</desc>
    <defs></defs>
    <g id="first_alternative_logo" stroke="none" stroke-width="1" fill="none" fill-rule="evenodd">
        <g id="logo_alt" fill="#F1F1F1">
            <g id="Group" transform="translate(6.000000, 60.000000)">
                <polygon id="Fill-4" points="0 0 7.48461538 0 7.48461538 0.949105612 1.3109918 0.949105612 1.3109918 3.24141871 4.83255364 3.24141871 4.83255364 4.17821826 1.3109918 4.17821826 1.3109918 7 0 7"></polygon>
                <polygon id="Fill-6" points="9.62307692 7 10.6923077 7 10.6923077 1 9.62307692 1"></polygon>
                <path d="M14.0999028,1.87653793 L14.0999028,3.81512785 L17.6836137,3.81512785 C18.2378033,3.81512785 18.3974789,3.68802824 18.3974789,3.20723227 L18.3974789,2.48571734 C18.3974789,1.99015727 18.1586847,1.87653793 17.6836137,1.87653793 L14.0999028,1.87653793 Z M12.8307692,1 L18.2378033,1 C19.2213908,1 19.6497099,1.32545202 19.6497099,2.15930245 L19.6497099,3.50476089 C19.6497099,4.3248101 19.2213908,4.65026212 18.2378033,4.65026212 L17.3502369,4.65026212 L20.3153846,7 L18.6193705,7 L15.93869,4.65026212 L14.0999028,4.65026212 L14.0999028,7 L12.8307692,7 L12.8307692,1 Z" id="Fill-8"></path>
                <path d="M23.90287,1.89115901 L23.90287,3.44755843 L28.281339,3.44755843 C29.585424,3.44755843 29.9384615,3.78771996 29.9384615,4.86243782 L29.9384615,5.58383698 C29.9384615,6.68839921 29.56863,7 28.281339,7 L24.1281277,7 C22.8240427,7 22.4538462,6.68839921 22.4538462,5.58383698 L22.4538462,5.41471894 L23.629056,5.20163663 L23.629056,6.09440017 L28.7807758,6.09440017 L28.7807758,4.40995882 L24.3862431,4.40995882 C23.0978568,4.40995882 22.7276602,4.09835803 22.7276602,2.99475852 L22.7276602,2.42996203 C22.7276602,1.31095898 23.1135554,1 24.3862431,1 L28.1853215,1 C29.3762301,1 29.8581428,1.28336097 29.8581428,2.31604001 L29.8581428,2.45756004 L28.683298,2.68347863 L28.683298,1.89115901 L23.90287,1.89115901 Z" id="Fill-9"></path>
                <polygon id="Fill-10" points="35.3649249 7 34.1195476 7 34.1195476 1.89038678 31.0076923 1.89038678 31.0076923 1 38.4923077 1 38.4923077 1.89038678 35.3649249 1.89038678"></polygon>
                <path d="M51.6771635,4.38215385 L49.6530253,0.800307692 L47.6298776,4.38215385 L51.6771635,4.38215385 Z M49.0130938,0 L50.3523931,0 L54.5307692,7 L53.147553,7 L52.1869954,5.27692308 L47.1055168,5.27692308 L46.1442988,7 L44.9076923,7 L49.0130938,0 Z" id="Fill-11"></path>
                <polygon id="Fill-12" points="56.6692308 1 57.921645 1 57.921645 6.09425484 63.0846154 6.09425484 63.0846154 7 56.6692308 7"></polygon>
                <polygon id="Fill-13" points="68.5110788 7 67.2660543 7 67.2660543 1.89038678 64.1538462 1.89038678 64.1538462 1 71.6384615 1 71.6384615 1.89038678 68.5110788 1.89038678"></polygon>
                <polygon id="Fill-14" points="73.7769231 1 80.1325559 1 80.1325559 1.89162298 74.967908 1.89162298 74.967908 3.43414999 78.0787146 3.43414999 78.0787146 4.32577298 74.967908 4.32577298 74.967908 6.12346207 80.1923077 6.12346207 80.1923077 7 73.7769231 7"></polygon>
                <path d="M83.5999028,1.87653793 L83.5999028,3.81512785 L87.1839734,3.81512785 C87.7378033,3.81512785 87.8960404,3.68802824 87.8960404,3.20723227 L87.8960404,2.48571734 C87.8960404,1.99015727 87.6586847,1.87653793 87.1839734,1.87653793 L83.5999028,1.87653793 Z M82.3307692,1 L87.7378033,1 C88.7213908,1 89.1497099,1.32545202 89.1497099,2.15930245 L89.1497099,3.50476089 C89.1497099,4.3248101 88.7213908,4.65026212 87.7378033,4.65026212 L86.8502369,4.65026212 L89.8153846,7 L88.1190109,7 L85.4383303,4.65026212 L83.5999028,4.65026212 L83.5999028,7 L82.3307692,7 L82.3307692,1 Z" id="Fill-15"></path>
                <path d="M93.084057,3.27804226 L93.084057,7 L91.9538462,7 L91.9538462,1 L92.8851787,1 L97.6357371,4.91901578 C97.9420235,5.15972185 98.185944,5.42834983 98.4160053,5.73998395 C98.3397801,5.35774271 98.3082507,4.99090666 98.3082507,4.6224659 L98.3082507,1 L99.4384615,1 L99.4384615,7 L98.5982527,7 L93.7565706,3.02321476 C93.4655292,2.78250869 93.2067102,2.5276812 92.9925869,2.20224659 C93.0539135,2.55656593 93.084057,2.92468574 93.084057,3.27804226" id="Fill-16"></path>
                <path d="M106.41642,4.73607917 L104.717788,1.87809575 L103.033477,4.73607917 L106.41642,4.73607917 Z M104.191015,1 L105.288204,1 L109.061538,7 L107.755004,7 L106.926827,5.59876972 L102.522729,5.59876972 L101.710918,7 L100.507692,7 L104.191015,1 Z" id="Fill-17"></path>
                <polygon id="Fill-18" points="114.487559 7 113.242359 7 113.242359 1.89038678 110.130769 1.89038678 110.130769 1 117.615385 1 117.615385 1.89038678 114.487559 1.89038678"></polygon>
                <polygon id="Fill-19" points="119.753846 7 120.823077 7 120.823077 1 119.753846 1"></polygon>
                <polygon id="Fill-20" points="122.961538 1 124.331483 1 127.358223 5.8256125 130.257073 1 131.515385 1 127.819568 7 126.848829 7"></polygon>
                <polygon id="Fill-21" points="132.584615 1 132.584615 7 139 7 139 6.12217824 133.802731 6.12217824 133.802731 4.32609393 136.9835 4.32609393 136.9835 3.43447095 133.802731 3.43447095 133.802731 1.89162298 139 1.89162298 139 1"></polygon>
            </g>
            <g id="A" transform="translate(44.000000, 3.000000)">
                <polygon id="Fill-1" points="24.8779929 0 4 44 13.4154356 44 28 0"></polygon>
                <path d="M33.9099758,24.45856 L34.3039835,24.5070599 C93.5224077,32.0382582 42.728015,38.7091544 42.728015,38.7091544 L42.0825399,37.6472349 C74.4447513,33.457452 36.6202636,29.6800452 36.6202636,29.6800452 L43.6090355,43 L39.1816929,43 L32.0761593,29.5251502 C-7.00945635,28.0280011 5.63392007,37.1599504 5.63392007,37.1599504 L5.01295987,38.2071423 C-14.5734441,23.9976839 29.5539034,24.3430236 29.5539034,24.3430236 L24.6122531,14.7806693 L26.2373138,10 L33.9099758,24.45856 Z" id="Fill-2"></path>
            </g>
        </g>
    </g>
</svg>